<svg id="Layer_1" data-name="Layer 1" xmlns="http://www.w3.org/2000/svg" viewBox="0 0 200 200"><defs><style>.cls-1{fill:none;stroke:#232f3e;stroke-linejoin:round;stroke-width:2px;}</style></defs><line class="cls-1" x1="29.38" y1="98.48" x2="15.93" y2="98.48"/><line class="cls-1" x1="37.6" y1="80.28" x2="15.93" y2="80.28"/><line class="cls-1" x1="29.38" y1="89.38" x2="7.35" y2="89.38"/><g id="Choose_AWS_application" data-name="Choose AWS application"><rect class="cls-1" x="99.18" y="65.76" width="19.21" height="19.21"/><rect class="cls-1" x="99.18" y="92.83" width="19.21" height="19.21"/></g><rect class="cls-1" x="126.57" y="65.76" width="19.21" height="19.21"/><rect class="cls-1" x="126.57" y="92.83" width="19.21" height="19.21"/><rect class="cls-1" x="37.64" y="99.43" width="40.85" height="59.04"/><line class="cls-1" x1="66.51" y1="93.39" x2="56.51" y2="93.39"/><circle class="cls-1" cx="52.45" cy="93.39" r="1.55"/><path class="cls-1" d="M78.5,162.7c0,3.84-3.12,5.37-7,5.37H44.6c-3.84,0-7-1.53-7-5.37V94.22a7,7,0,0,1,7-7H71.54a7,7,0,0,1,7,7Z"/><rect class="cls-1" x="44.09" y="114.76" width="11.53" height="11.53"/><rect class="cls-1" x="44.09" y="131" width="11.53" height="11.53"/><rect class="cls-1" x="60.52" y="114.76" width="11.53" height="11.53"/><rect class="cls-1" x="60.52" y="131" width="11.53" height="11.53"/><path class="cls-1" d="M73.15,79.59V58.19a2.74,2.74,0,0,1,2.74-2.74H169a2.74,2.74,0,0,1,2.74,2.74v62A2.74,2.74,0,0,1,169,123H86.65"/><path class="cls-1" d="M66.51,80V51.77A2.74,2.74,0,0,1,69.25,49H176.07a2.74,2.74,0,0,1,2.74,2.74v76.36a2.74,2.74,0,0,1-2.74,2.74H86.25"/><path class="cls-1" d="M86.7,140.85h95.89s5.8.05,8-3.49v-6.49H177.54"/></svg>