<!DOCTYPE svg PUBLIC "-//W3C//DTD SVG 1.1//EN" "https://www.w3.org/Graphics/SVG/1.1/DTD/svg11.dtd">
<svg xmlns="http://www.w3.org/2000/svg" id="sfn-svg" class="sfn-workflow-graph" width="475" height="450">
    
    
<g transform="translate(12,20.375)"><g class="nodes"><g class="node-container" transform="translate(232.64583206176758,18.75)"><g class="node anchor"><circle class="shape" x="-17.125" y="-8.75" r="27.125"/><text class="label"><tspan xml:space="preserve" text-anchor="middle" alignment-baseline="central">Start</tspan></text></g></g><g class="node-container" transform="translate(232.64583206176758,393.75)"><g class="node anchor"><circle class="shape" x="-13.425000190734863" y="-8.75" r="23.425000190734863"/><text class="label"><tspan xml:space="preserve" text-anchor="middle" alignment-baseline="central">End</tspan></text></g></g><g class="node-container" transform="translate(232.64583206176758,81.25)"><g class="node state Task NotYetStarted"><rect class="shape" rx="5" ry="5" x="-118.94999694824219" y="-18.75" width="237.89999389648438" height="37.5"/><text class="label"><tspan xml:space="preserve" text-anchor="middle" alignment-baseline="central">EmrStartJobTask-SparkJobSimple</tspan></text></g></g><g class="node-container" transform="translate(232.64583206176758,143.75)"><g class="node state Wait NotYetStarted"><rect class="shape" rx="5" ry="5" x="-79.51667022705078" y="-18.75" width="159.03334045410156" height="37.5"/><text class="label"><tspan xml:space="preserve" text-anchor="middle" alignment-baseline="central">Wait-SparkJobSimple</tspan></text></g></g><g class="node-container" transform="translate(151.0124969482422,206.25)"><g class="node state Task NotYetStarted"><rect class="shape" rx="5" ry="5" x="-128.26667022705078" y="-18.75" width="256.53334045410156" height="37.5"/><text class="label"><tspan xml:space="preserve" text-anchor="middle" alignment-baseline="central">EmrMonitorJobTask-SparkJobSimple</tspan></text></g></g><g class="node-container" transform="translate(232.64583206176758,268.75)"><g class="node state Choice NotYetStarted"><rect class="shape" rx="5" ry="5" x="-136.875" y="-18.75" width="273.75" height="37.5"/><text class="label"><tspan xml:space="preserve" text-anchor="middle" alignment-baseline="central">JobSucceededOrFailed-SparkJobSimple</tspan></text></g></g><g class="node-container" transform="translate(110.03333282470703,331.25)"><g class="node state Succeed NotYetStarted"><rect class="shape" rx="5" ry="5" x="-110.03333282470703" y="-18.75" width="220.06666564941406" height="37.5"/><text class="label"><tspan xml:space="preserve" text-anchor="middle" alignment-baseline="central">JobSucceeded-SparkJobSimple</tspan></text></g></g><g class="node-container" transform="translate(355.2583312988281,331.25)"><g class="node state Fail NotYetStarted"><rect class="shape" rx="5" ry="5" x="-95.19166564941406" y="-18.75" width="190.38333129882812" height="37.5"/><text class="label"><tspan xml:space="preserve" text-anchor="middle" alignment-baseline="central">JobFailed-SparkJobSimple</tspan></text></g></g></g><g class="edges"><g class="edge"><path class="path" style="fill: none;" marker-end="url(#arrowhead10)" d="M232.64583206176758,100L232.64583206176758,102.08333333333331C232.64583206176758,104.16666666666666,232.64583206176758,108.33333333333333,232.64583206176758,112.49999999999999C232.64583206176758,116.66666666666666,232.64583206176758,120.83333333333333,232.64583206176758,122.91666666666666L232.64583206176758,125"/><defs><marker id="arrowhead10" viewBox="0 0 10 10" refX="9" refY="5" markerUnits="strokeWidth" markerWidth="8" markerHeight="6" orient="auto"><path d="M 0 0 L 10 5 L 0 10 z"/></marker></defs></g><g class="edge"><path class="path" style="fill: none;" marker-end="url(#arrowhead11)" d="M232.64583206176758,45.875L232.64583206176758,46.5625C232.64583206176758,47.25,232.64583206176758,48.62499999999999,232.64583206176758,51.39583333333333C232.64583206176758,54.16666666666666,232.64583206176758,58.33333333333333,232.64583206176758,60.416666666666664L232.64583206176758,62.5"/><defs><marker id="arrowhead11" viewBox="0 0 10 10" refX="9" refY="5" markerUnits="strokeWidth" markerWidth="8" markerHeight="6" orient="auto"><path d="M 0 0 L 10 5 L 0 10 z"/></marker></defs></g><g class="edge"><path class="path" style="fill: none;" marker-end="url(#arrowhead12)" d="M183.66583099365235,162.5L178.22360865275064,164.58333333333331C172.78138631184896,166.66666666666666,161.89694163004555,170.83333333333331,156.45471928914387,175C151.0124969482422,179.16666666666666,151.0124969482422,183.33333333333331,151.01249694824216,185.41666666666666L151.0124969482422,187.5"/><defs><marker id="arrowhead12" viewBox="0 0 10 10" refX="9" refY="5" markerUnits="strokeWidth" markerWidth="8" markerHeight="6" orient="auto"><path d="M 0 0 L 10 5 L 0 10 z"/></marker></defs></g><g class="edge"><path class="path" style="fill: none;" marker-end="url(#arrowhead13)" d="M151.0124969482422,225L151.01249694824216,227.08333333333331C151.0124969482422,229.16666666666666,151.0124969482422,233.33333333333331,156.45471928914387,237.49999999999997C161.89694163004555,241.66666666666663,172.78138631184896,245.83333333333331,178.22360865275064,247.91666666666666L183.66583099365235,250"/><defs><marker id="arrowhead13" viewBox="0 0 10 10" refX="9" refY="5" markerUnits="strokeWidth" markerWidth="8" markerHeight="6" orient="auto"><path d="M 0 0 L 10 5 L 0 10 z"/></marker></defs></g><g class="edge"><path class="path" style="fill: none;" marker-end="url(#arrowhead14)" d="M159.07833251953124,287.5L150.9041659037272,289.5833333333333C142.72999928792316,291.66666666666663,126.38166605631508,295.8333333333333,118.20749944051104,300C110.03333282470702,304.16666666666663,110.03333282470702,308.3333333333333,110.033332824707,310.41666666666663L110.03333282470703,312.5"/><defs><marker id="arrowhead14" viewBox="0 0 10 10" refX="9" refY="5" markerUnits="strokeWidth" markerWidth="8" markerHeight="6" orient="auto"><path d="M 0 0 L 10 5 L 0 10 z"/></marker></defs></g><g class="edge"><path class="path" style="fill: none;" marker-end="url(#arrowhead15)" d="M306.2133316040039,287.5L314.38749821980787,289.5833333333333C322.56166483561196,291.66666666666663,338.90999806722004,295.8333333333333,347.084164683024,300C355.2583312988281,304.16666666666663,355.2583312988281,308.3333333333333,355.25833129882807,310.41666666666663L355.2583312988281,312.5"/><defs><marker id="arrowhead15" viewBox="0 0 10 10" refX="9" refY="5" markerUnits="strokeWidth" markerWidth="8" markerHeight="6" orient="auto"><path d="M 0 0 L 10 5 L 0 10 z"/></marker></defs></g><g class="edge"><path class="path" style="fill: none;" marker-end="url(#arrowhead16)" d="M281.62583312988284,250L287.0680554707845,247.91666666666663C292.5102778116862,245.83333333333331,303.39472249348955,241.66666666666663,308.83694483439126,234.37499999999997C314.27916717529297,227.08333333333331,314.27916717529297,216.66666666666666,314.2791671752929,206.24999999999997C314.27916717529297,195.83333333333331,314.27916717529297,185.41666666666666,308.83694483439126,178.125C303.39472249348955,170.83333333333331,292.5102778116862,166.66666666666666,287.06805547078454,164.58333333333334L281.62583312988284,162.5"/><defs><marker id="arrowhead16" viewBox="0 0 10 10" refX="9" refY="5" markerUnits="strokeWidth" markerWidth="8" markerHeight="6" orient="auto"><path d="M 0 0 L 10 5 L 0 10 z"/></marker></defs></g><g class="edge"><path class="path" style="fill: none;" marker-end="url(#arrowhead17)" d="M110.03333282470703,350L110.033332824707,352.0833333333333C110.03333282470702,354.16666666666663,110.03333282470702,358.3333333333333,126.68552431684486,364.6607770743927C143.33771580898275,370.988220815452,176.64209879325847,379.47644163090405,193.2942902853963,383.7205520386301L209.9464817775342,387.96466244635616"/><defs><marker id="arrowhead17" viewBox="0 0 10 10" refX="9" refY="5" markerUnits="strokeWidth" markerWidth="8" markerHeight="6" orient="auto"><path d="M 0 0 L 10 5 L 0 10 z"/></marker></defs></g><g class="edge"><path class="path" style="fill: none;" marker-end="url(#arrowhead18)" d="M355.2583312988281,350L355.25833129882807,352.0833333333333C355.2583312988281,354.16666666666663,355.2583312988281,358.3333333333333,338.60613980669024,364.6607770743927C321.95394831455235,370.988220815452,288.6495653302767,379.47644163090405,271.9973738381388,383.7205520386301L255.34518234600097,387.96466244635616"/><defs><marker id="arrowhead18" viewBox="0 0 10 10" refX="9" refY="5" markerUnits="strokeWidth" markerWidth="8" markerHeight="6" orient="auto"><path d="M 0 0 L 10 5 L 0 10 z"/></marker></defs></g></g></g><style xmlns="http://www.w3.org/1999/xhtml">.node &gt; .shape {stroke: #555555;stroke-width: 0.6px;fill: #FFFFFF;} path {stroke: #555;background-color: #555;stroke-width: 1px;} .node.state.NotYetStarted &gt; .shape,.node.state.Container &gt; .shape {stroke-dasharray: 5 2;} .node.state.Failed &gt; .shape,rect.legend.Failed {fill: #DE322F;} .node.state.CaughtError &gt; .shape,rect.legend.CaughtError {fill: #FFA500;} .node.state.Succeeded &gt; .shape,rect.legend.Succeeded {fill: #2BD62E;} .node.state.InProgress &gt; .shape,rect.legend.InProgress {fill: #53c9ed;} .node.state.Cancelled &gt; .shape,rect.legend.Cancelled {fill: #dddddd;} .node.anchor &gt; .shape {fill: #FFDA75;} .node.state.hovered:not(.selected):not(.NotYetStarted) &gt; .shape,.node.selected &gt; .shape {stroke: #555555;stroke-width: 2px;} .node.state.Container.Failed &gt; .shape {fill: #EE9592;} .node.state.Container.CaughtError &gt; .shape {fill: #FFD27F;} .node.state.Container.Succeeded &gt; .shape {fill: #91EA9A;} .node.state.Container.InProgress &gt; .shape {fill :#A9E4F7;} .node.state.Container.Cancelled &gt; .shape {fill: #EEEEEE;} marker {fill: #555555;} .node.anchor,.node.state.NotYetStarted {cursor: default;} .node.state {cursor: pointer;} tspan .label {font-weight: normal;font-size: 12px;text-shadow: none;} </style></svg>