<!DOCTYPE svg PUBLIC "-//W3C//DTD SVG 1.1//EN" "https://www.w3.org/Graphics/SVG/1.1/DTD/svg11.dtd">
<svg xmlns="http://www.w3.org/2000/svg" id="sfn-svg" class="sfn-workflow-graph" width="264" height="450">
    
    
<g transform="translate(12,20.375)"><g class="nodes"><g class="node-container" transform="translate(129.32500457763672,18.75)"><g class="node anchor"><circle class="shape" x="-17.125" y="-8.75" r="27.125"/><text class="label"><tspan xml:space="preserve" text-anchor="middle" alignment-baseline="central">Start</tspan></text></g></g><g class="node-container" transform="translate(129.32500457763672,393.75)"><g class="node anchor"><circle class="shape" x="-13.425000190734863" y="-8.75" r="23.425000190734863"/><text class="label"><tspan xml:space="preserve" text-anchor="middle" alignment-baseline="central">End</tspan></text></g></g><g class="node-container" transform="translate(129.32500457763672,81.25)"><g class="node state Task NotYetStarted"><rect class="shape" rx="5" ry="5" x="-65.23333358764648" y="-18.75" width="130.46666717529297" height="37.5"/><text class="label"><tspan xml:space="preserve" text-anchor="middle" alignment-baseline="central">EmrStartJobTask</tspan></text></g></g><g class="node-container" transform="translate(129.32500457763672,143.75)"><g class="node state Wait NotYetStarted"><rect class="shape" rx="5" ry="5" x="-25.733333587646484" y="-18.75" width="51.46666717529297" height="37.5"/><text class="label"><tspan xml:space="preserve" text-anchor="middle" alignment-baseline="central">Wait</tspan></text></g></g><g class="node-container" transform="translate(74.55000305175781,206.25)"><g class="node state Task NotYetStarted"><rect class="shape" rx="5" ry="5" x="-74.55000305175781" y="-18.75" width="149.10000610351562" height="37.5"/><text class="label"><tspan xml:space="preserve" text-anchor="middle" alignment-baseline="central">EmrMonitorJobTask</tspan></text></g></g><g class="node-container" transform="translate(129.32500457763672,268.75)"><g class="node state Choice NotYetStarted"><rect class="shape" rx="5" ry="5" x="-82.98332977294922" y="-18.75" width="165.96665954589844" height="37.5"/><text class="label"><tspan xml:space="preserve" text-anchor="middle" alignment-baseline="central">JobSucceededOrFailed</tspan></text></g></g><g class="node-container" transform="translate(60.60417175292969,331.25)"><g class="node state Succeed NotYetStarted"><rect class="shape" rx="5" ry="5" x="-56.141666412353516" y="-18.75" width="112.28333282470703" height="37.5"/><text class="label"><tspan xml:space="preserve" text-anchor="middle" alignment-baseline="central">JobSucceeded</tspan></text></g></g><g class="node-container" transform="translate(198.04583740234375,331.25)"><g class="node state Fail NotYetStarted"><rect class="shape" rx="5" ry="5" x="-41.29999923706055" y="-18.75" width="82.5999984741211" height="37.5"/><text class="label"><tspan xml:space="preserve" text-anchor="middle" alignment-baseline="central">JobFailed</tspan></text></g></g></g><g class="edges"><g class="edge"><path class="path" style="fill: none;" marker-end="url(#arrowhead10)" d="M129.32500457763672,100L129.3250045776367,102.08333333333331C129.32500457763672,104.16666666666666,129.32500457763672,108.33333333333333,129.3250045776367,112.49999999999999C129.32500457763672,116.66666666666666,129.32500457763672,120.83333333333333,129.3250045776367,122.91666666666666L129.32500457763672,125"/><defs><marker id="arrowhead10" viewBox="0 0 10 10" refX="9" refY="5" markerUnits="strokeWidth" markerWidth="8" markerHeight="6" orient="auto"><path d="M 0 0 L 10 5 L 0 10 z"/></marker></defs></g><g class="edge"><path class="path" style="fill: none;" marker-end="url(#arrowhead11)" d="M129.32500457763672,45.875L129.3250045776367,46.5625C129.32500457763672,47.25,129.32500457763672,48.62499999999999,129.3250045776367,51.39583333333333C129.32500457763672,54.16666666666666,129.32500457763672,58.33333333333333,129.3250045776367,60.416666666666664L129.32500457763672,62.5"/><defs><marker id="arrowhead11" viewBox="0 0 10 10" refX="9" refY="5" markerUnits="strokeWidth" markerWidth="8" markerHeight="6" orient="auto"><path d="M 0 0 L 10 5 L 0 10 z"/></marker></defs></g><g class="edge"><path class="path" style="fill: none;" marker-end="url(#arrowhead12)" d="M103.59167098999023,158.4312716058806L98.7513930002848,161.19272633823383C93.91111501057941,163.95418107058705,84.23055903116861,169.4770905352935,79.39028104146321,174.32187860098009C74.55000305175781,179.16666666666666,74.55000305175781,183.33333333333331,74.5500030517578,185.41666666666666L74.55000305175781,187.5"/><defs><marker id="arrowhead12" viewBox="0 0 10 10" refX="9" refY="5" markerUnits="strokeWidth" markerWidth="8" markerHeight="6" orient="auto"><path d="M 0 0 L 10 5 L 0 10 z"/></marker></defs></g><g class="edge"><path class="path" style="fill: none;" marker-end="url(#arrowhead13)" d="M74.55000305175781,225L74.5500030517578,227.08333333333331C74.55000305175781,229.16666666666666,74.55000305175781,233.33333333333331,78.20166982014973,237.49999999999997C81.85333658854165,241.66666666666663,89.15667012532552,245.83333333333331,92.80833689371744,247.91666666666666L96.46000366210937,250"/><defs><marker id="arrowhead13" viewBox="0 0 10 10" refX="9" refY="5" markerUnits="strokeWidth" markerWidth="8" markerHeight="6" orient="auto"><path d="M 0 0 L 10 5 L 0 10 z"/></marker></defs></g><g class="edge"><path class="path" style="fill: none;" marker-end="url(#arrowhead14)" d="M88.0925048828125,287.5L83.51111602783203,289.5833333333333C78.92972717285156,291.66666666666663,69.76694946289062,295.8333333333333,65.18556060791016,300C60.60417175292969,304.16666666666663,60.60417175292969,308.3333333333333,60.60417175292968,310.41666666666663L60.60417175292969,312.5"/><defs><marker id="arrowhead14" viewBox="0 0 10 10" refX="9" refY="5" markerUnits="strokeWidth" markerWidth="8" markerHeight="6" orient="auto"><path d="M 0 0 L 10 5 L 0 10 z"/></marker></defs></g><g class="edge"><path class="path" style="fill: none;" marker-end="url(#arrowhead15)" d="M170.55750427246093,287.5L175.13889312744138,289.5833333333333C179.72028198242185,291.66666666666663,188.8830596923828,295.8333333333333,193.46444854736328,300C198.04583740234375,304.16666666666663,198.04583740234375,308.3333333333333,198.04583740234372,310.41666666666663L198.04583740234375,312.5"/><defs><marker id="arrowhead15" viewBox="0 0 10 10" refX="9" refY="5" markerUnits="strokeWidth" markerWidth="8" markerHeight="6" orient="auto"><path d="M 0 0 L 10 5 L 0 10 z"/></marker></defs></g><g class="edge"><path class="path" style="fill: none;" marker-end="url(#arrowhead16)" d="M162.19000549316405,250L165.84167226155597,247.91666666666663C169.4933390299479,245.83333333333331,176.79667256673176,241.66666666666663,180.4483393351237,234.37499999999997C184.10000610351562,227.08333333333331,184.10000610351562,216.66666666666666,184.10000610351562,206.24999999999997C184.10000610351562,195.83333333333331,184.10000610351562,185.41666666666666,179.2597281138102,177.44687860098009C174.4194501241048,169.4770905352935,164.738894144694,163.95418107058705,159.8986161549886,161.19272633823383L155.0583381652832,158.4312716058806"/><defs><marker id="arrowhead16" viewBox="0 0 10 10" refX="9" refY="5" markerUnits="strokeWidth" markerWidth="8" markerHeight="6" orient="auto"><path d="M 0 0 L 10 5 L 0 10 z"/></marker></defs></g><g class="edge"><path class="path" style="fill: none;" marker-end="url(#arrowhead17)" d="M60.60417175292969,350L60.60417175292968,352.0833333333333C60.60417175292969,354.16666666666663,60.60417175292969,358.3333333333333,68.50367974024871,364.0088761096664C76.40318772756777,369.6844188859995,92.20220370220584,376.868837771999,100.10171168952488,380.46104721499876L108.00121967684393,384.05325665799853"/><defs><marker id="arrowhead17" viewBox="0 0 10 10" refX="9" refY="5" markerUnits="strokeWidth" markerWidth="8" markerHeight="6" orient="auto"><path d="M 0 0 L 10 5 L 0 10 z"/></marker></defs></g><g class="edge"><path class="path" style="fill: none;" marker-end="url(#arrowhead18)" d="M198.04583740234375,350L198.04583740234372,352.0833333333333C198.04583740234375,354.16666666666663,198.04583740234375,358.3333333333333,190.1463294150247,364.0088761096664C182.24682142770564,369.6844188859995,166.4478054530676,376.868837771999,158.54829746574853,380.46104721499876L150.6487894784295,384.05325665799853"/><defs><marker id="arrowhead18" viewBox="0 0 10 10" refX="9" refY="5" markerUnits="strokeWidth" markerWidth="8" markerHeight="6" orient="auto"><path d="M 0 0 L 10 5 L 0 10 z"/></marker></defs></g></g></g><style xmlns="http://www.w3.org/1999/xhtml">.node &gt; .shape {stroke: #555555;stroke-width: 0.6px;fill: #FFFFFF;} path {stroke: #555;background-color: #555;stroke-width: 1px;} .node.state.NotYetStarted &gt; .shape,.node.state.Container &gt; .shape {stroke-dasharray: 5 2;} .node.state.Failed &gt; .shape,rect.legend.Failed {fill: #DE322F;} .node.state.CaughtError &gt; .shape,rect.legend.CaughtError {fill: #FFA500;} .node.state.Succeeded &gt; .shape,rect.legend.Succeeded {fill: #2BD62E;} .node.state.InProgress &gt; .shape,rect.legend.InProgress {fill: #53c9ed;} .node.state.Cancelled &gt; .shape,rect.legend.Cancelled {fill: #dddddd;} .node.anchor &gt; .shape {fill: #FFDA75;} .node.state.hovered:not(.selected):not(.NotYetStarted) &gt; .shape,.node.selected &gt; .shape {stroke: #555555;stroke-width: 2px;} .node.state.Container.Failed &gt; .shape {fill: #EE9592;} .node.state.Container.CaughtError &gt; .shape {fill: #FFD27F;} .node.state.Container.Succeeded &gt; .shape {fill: #91EA9A;} .node.state.Container.InProgress &gt; .shape {fill :#A9E4F7;} .node.state.Container.Cancelled &gt; .shape {fill: #EEEEEE;} marker {fill: #555555;} .node.anchor,.node.state.NotYetStarted {cursor: default;} .node.state {cursor: pointer;} tspan .label {font-weight: normal;font-size: 12px;text-shadow: none;} </style></svg>