<svg version="1.1" xmlns="http://www.w3.org/2000/svg" viewBox="0 0 946.2388093024274 991.6426725035271" width="1892.4776186048548" height="1983.2853450070543">
  <!-- svg-source:excalidraw -->
  
  <defs>
    <style class="style-fonts">
      @font-face {
        font-family: "Virgil";
        src: url("https://excalidraw.com/Virgil.woff2");
      }
      @font-face {
        font-family: "Cascadia";
        src: url("https://excalidraw.com/Cascadia.woff2");
      }
    </style>
    
  </defs>
  <g transform="translate(229.09971125875745 298.1650086974587) rotate(0 66.01902663700093 96.93933025179649)" stroke="none"><path fill="#1e1e1e" d="M 0,-5.22 Q 0,-5.22 2.16,-5.28 4.32,-5.33 6.69,-5.48 9.07,-5.63 11.20,-5.78 13.34,-5.94 15.49,-6.05 17.63,-6.17 19.76,-5.89 21.89,-5.61 24.39,-5.71 26.89,-5.81 30.33,-4.49 33.76,-3.18 35.86,-3.87 37.95,-4.56 40.88,-3.89 43.81,-3.22 46.77,-2.86 49.73,-2.50 53.66,-0.98 57.59,0.52 58.36,3.01 59.13,5.50 58.77,8.29 58.40,11.08 58.00,13.28 57.59,15.48 57.12,18.13 56.66,20.79 56.74,23.04 56.82,25.29 56.85,27.79 56.87,30.30 56.89,32.80 56.91,35.31 56.92,37.82 56.94,40.33 57.36,42.76 57.79,45.20 57.80,47.32 57.81,49.45 57.82,51.99 57.83,54.53 57.41,58.31 56.99,62.09 56.57,64.24 56.15,66.39 56.16,68.82 56.16,71.25 56.17,73.75 56.18,76.26 56.19,78.77 56.19,81.27 56.56,83.37 56.92,85.47 57.35,88.40 57.78,91.34 57.76,93.57 57.75,95.79 58.21,98.07 58.66,100.34 59.69,102.27 60.73,104.19 61.68,106.28 62.64,108.36 64.11,110.56 65.59,112.76 67.25,114.82 68.91,116.89 70.79,118.80 72.68,120.72 70.89,119.14 69.10,117.56 71.33,118.35 73.56,119.13 75.90,120.91 78.24,122.70 80.53,122.70 82.82,122.71 86.08,123.82 89.35,124.94 91.92,125.81 94.49,126.67 96.33,127.93 98.17,129.19 100.58,128.82 102.99,128.45 105.36,128.47 107.74,128.49 109.93,128.49 112.12,128.49 114.25,128.49 116.37,128.48 118.88,128.48 121.39,128.47 123.89,128.47 126.40,128.46 128.91,128.46 131.42,128.45 133.52,129.09 135.62,129.73 137.71,131.03 139.80,132.33 140.60,134.92 141.40,137.51 141.42,140.06 141.44,142.61 141.44,144.87 141.43,147.13 141.44,149.30 141.44,151.47 141.81,153.58 142.18,155.69 142.60,158.61 143.03,161.53 143.08,164.02 143.14,166.50 143.14,169.02 143.15,171.53 143.15,174.04 143.15,176.54 143.15,179.05 143.16,181.56 143.16,184.06 143.16,186.57 143.16,189.08 143.16,191.58 142.52,193.69 141.88,195.80 140.58,197.89 139.27,199.99 136.68,200.79 134.08,201.59 131.70,201.63 129.32,201.67 126.98,201.67 124.65,201.66 122.14,201.66 119.64,201.65 117.37,201.65 115.11,201.65 112.60,201.66 110.09,201.66 107.58,201.66 105.07,201.66 102.57,201.66 100.06,201.66 97.55,201.67 95.04,201.67 92.72,201.66 90.39,201.66 88.12,201.66 85.86,201.66 83.35,201.66 80.84,201.66 78.33,201.66 75.82,201.67 73.32,201.67 70.81,201.67 68.30,201.67 65.80,201.67 62.22,200.93 58.65,200.18 56.71,199.21 54.77,198.24 52.24,196.64 49.71,195.03 47.51,193.64 45.30,192.24 43.54,190.37 41.78,188.49 39.00,187.28 36.22,186.06 34.49,184.65 32.75,183.23 31.42,181.25 30.09,179.27 28.26,177.42 26.42,175.56 24.57,173.87 22.72,172.17 21.26,170.61 19.79,169.04 17.79,166.85 15.78,164.66 14.26,162.74 12.74,160.83 11.32,158.70 9.91,156.58 8.93,154.68 7.96,152.79 6.68,151.01 5.41,149.24 4.13,146.70 2.86,144.17 1.62,141.69 0.38,139.22 -0.54,136.93 -1.47,134.63 -2.20,132.51 -2.93,130.39 -3.94,128.44 -4.96,126.49 -5.87,124.20 -6.78,121.91 -7.25,119.52 -7.72,117.13 -7.74,114.86 -7.76,112.60 -7.76,110.27 -7.76,107.94 -7.99,105.72 -8.23,103.51 -8.77,100.95 -9.31,98.38 -9.78,96.04 -10.24,93.71 -10.66,91.62 -11.08,89.53 -11.10,87.27 -11.12,85.02 -11.11,82.62 -11.10,80.22 -11.08,77.79 -11.06,75.37 -10.33,71.22 -9.60,67.07 -9.92,64.76 -10.25,62.45 -10.24,59.88 -10.24,57.31 -10.20,55.16 -10.17,53.01 -10.16,50.86 -10.15,48.71 -10.16,46.43 -10.16,44.15 -10.16,41.37 -10.16,38.59 -10.17,36.32 -10.18,34.05 -10.19,31.54 -10.20,29.03 -10.17,26.08 -10.14,23.13 -10.14,20.65 -10.15,18.17 -10.17,15.66 -10.18,13.15 -10.19,10.64 -10.20,8.13 -9.57,6.04 -8.94,3.95 -8.42,1.66 -7.91,-0.61 -7.30,-1.69 -6.69,-2.77 -5.77,-3.59 -4.85,-4.42 -3.72,-4.91 -2.58,-5.40 -1.35,-5.50 -0.12,-5.60 1.07,-5.30 2.27,-5.00 3.32,-4.34 4.36,-3.67 5.13,-2.71 5.91,-1.75 6.33,-0.59 6.76,0.56 6.79,1.80 6.83,3.03 6.47,4.22 6.10,5.40 5.38,6.40 4.66,7.41 3.66,8.13 2.66,8.85 1.47,9.21 0.29,9.58 -0.93,9.54 -2.17,9.51 -3.33,9.08 -4.49,8.66 -5.45,7.88 -6.42,7.11 -7.08,6.07 -7.75,5.03 -8.05,3.83 -8.35,2.63 -8.25,1.40 -8.15,0.16 -7.66,-0.96 -7.17,-2.10 -6.35,-3.02 -5.52,-3.94 -4.45,-4.55 -3.37,-5.16 -2.16,-5.39 -0.94,-5.62 0.27,-5.46 1.50,-5.29 2.61,-4.74 3.71,-4.19 4.59,-3.32 5.46,-2.44 6.01,-1.34 6.56,-0.23 6.73,0.99 6.90,2.21 6.66,3.43 6.43,4.64 6.43,4.64 6.43,4.64 5.81,6.39 5.18,8.13 5.17,10.64 5.16,13.15 5.15,15.66 5.14,18.17 5.13,20.65 5.12,23.13 5.15,26.08 5.19,29.03 5.18,31.54 5.17,34.05 5.16,36.32 5.15,38.59 5.15,41.37 5.14,44.15 5.14,46.43 5.14,48.71 5.15,50.86 5.15,53.01 5.19,55.16 5.22,57.31 5.23,60.30 5.23,63.29 5.22,65.45 5.21,67.61 4.73,69.89 4.25,72.16 4.31,74.44 4.38,76.72 4.40,79.03 4.42,81.34 3.27,83.57 2.12,85.80 2.54,87.89 2.95,89.98 4.18,92.67 5.40,95.36 6.53,99.26 7.65,103.17 7.70,105.55 7.76,107.94 7.76,110.68 7.76,113.42 7.72,115.86 7.68,118.31 8.76,120.54 9.85,122.78 11.09,124.82 12.33,126.86 12.57,129.26 12.81,131.65 14.41,134.17 16.00,136.69 17.23,139.16 18.46,141.64 19.28,143.66 20.09,145.69 22.14,148.13 24.18,150.58 25.58,152.29 26.97,154.00 28.70,156.08 30.44,158.16 32.04,160.00 33.64,161.85 35.67,163.80 37.70,165.75 39.16,167.71 40.62,169.67 42.58,171.36 44.53,173.06 46.37,174.44 48.21,175.82 50.66,177.75 53.10,179.67 55.22,181.09 57.34,182.50 59.79,183.73 62.23,184.95 64.85,185.51 67.47,186.08 69.97,186.08 72.48,186.08 74.99,186.08 77.50,186.08 80.00,186.08 82.51,186.09 85.03,186.09 87.55,186.09 90.04,186.08 92.54,186.08 95.04,186.08 97.55,186.08 100.06,186.08 102.57,186.08 105.07,186.09 107.58,186.09 110.09,186.09 112.59,186.09 115.13,186.09 117.67,186.10 120.18,186.09 122.69,186.09 125.16,186.08 127.64,186.08 130.09,186.11 132.54,186.15 130.07,187.61 127.59,189.08 127.59,186.57 127.59,184.06 127.60,181.56 127.60,179.05 127.60,176.54 127.60,174.04 127.61,171.53 127.61,169.02 127.94,166.74 128.27,164.46 127.85,161.53 127.44,158.59 126.70,154.61 125.97,150.63 125.97,148.35 125.97,146.07 126.53,143.56 127.08,141.05 129.25,142.51 131.42,143.97 128.91,143.97 126.40,143.96 123.89,143.96 121.39,143.95 118.88,143.95 116.37,143.94 114.25,143.93 112.12,143.93 109.93,143.93 107.73,143.93 105.35,143.95 102.96,143.97 100.00,143.92 97.03,143.87 94.97,143.03 92.91,142.20 90.68,141.31 88.45,140.42 85.64,139.64 82.84,138.85 79.95,138.02 77.05,137.20 74.70,136.58 72.35,135.97 69.61,134.47 66.87,132.98 64.54,131.66 62.22,130.34 60.37,128.60 58.52,126.87 56.83,124.76 55.14,122.66 53.44,120.92 51.73,119.18 50.89,116.70 50.05,114.22 48.30,111.93 46.55,109.64 45.60,107.44 44.64,105.23 44.25,103.09 43.86,100.94 43.12,97.82 42.38,94.71 42.90,92.42 43.42,90.13 42.48,88.21 41.54,86.30 41.14,82.95 40.74,79.60 40.75,77.10 40.76,74.59 40.77,72.08 40.77,69.57 40.80,67.28 40.83,64.99 41.36,62.69 41.88,60.39 42.17,58.12 42.45,55.85 42.45,53.09 42.46,50.33 42.79,48.03 43.12,45.73 42.40,41.77 41.68,37.82 41.69,35.31 41.71,32.80 41.73,30.30 41.75,27.79 41.78,25.25 41.81,22.71 41.97,20.27 42.14,17.83 42.59,15.28 43.04,12.72 43.76,9.82 44.48,6.92 45.79,9.14 47.09,11.37 44.80,10.93 42.51,10.50 40.10,10.03 37.69,9.56 35.22,9.06 32.75,8.57 30.26,8.04 27.76,7.52 25.59,7.42 23.43,7.32 21.17,7.11 18.92,6.91 16.13,6.42 13.34,5.94 11.20,5.78 9.07,5.63 6.69,5.48 4.32,5.33 2.16,5.28 0,5.22 -0.62,5.15 -1.25,5.07 -1.84,4.85 -2.42,4.62 -2.94,4.27 -3.46,3.91 -3.88,3.44 -4.30,2.97 -4.59,2.41 -4.88,1.85 -5.03,1.24 -5.19,0.62 -5.19,-0.00 -5.19,-0.63 -5.03,-1.24 -4.88,-1.85 -4.59,-2.41 -4.30,-2.97 -3.88,-3.44 -3.46,-3.91 -2.94,-4.27 -2.42,-4.62 -1.84,-4.85 -1.25,-5.07 -0.62,-5.15 0.00,-5.22 0.00,-5.22 L 0,-5.22 Z"></path></g><g transform="translate(205.70056257729448 247.188291927112) rotate(0 46.798297362936864 0.41784194074170955)" stroke="none"><path fill="#1e1e1e" d="M 0,-5.23 Q 0,-5.23 2.16,-5.28 4.32,-5.33 7.48,-5.47 10.64,-5.61 13.11,-5.77 15.57,-5.94 18.12,-6.09 20.67,-6.25 22.97,-6.38 25.28,-6.51 27.79,-6.62 30.30,-6.74 32.63,-6.82 34.96,-6.91 37.22,-6.98 39.49,-7.05 41.99,-7.11 44.50,-7.18 47.24,-7.22 49.97,-7.27 52.37,-7.28 54.77,-7.30 58.06,-6.90 61.34,-6.49 63.79,-6.54 66.24,-6.58 68.55,-6.60 70.86,-6.62 73.35,-6.63 75.83,-6.65 78.33,-6.66 80.84,-6.67 83.14,-6.69 85.45,-6.71 89.39,-6.73 93.33,-6.75 94.54,-6.55 95.75,-6.35 96.84,-5.78 97.92,-5.20 98.77,-4.31 99.61,-3.42 100.13,-2.30 100.64,-1.19 100.78,0.02 100.91,1.24 100.64,2.44 100.38,3.64 99.75,4.69 99.11,5.74 98.18,6.54 97.24,7.33 96.10,7.79 94.96,8.24 93.73,8.31 92.51,8.38 91.32,8.05 90.14,7.72 89.13,7.03 88.11,6.34 87.37,5.36 86.62,4.38 86.23,3.22 85.84,2.06 85.84,0.83 85.84,-0.39 86.23,-1.55 86.62,-2.72 87.37,-3.69 88.11,-4.67 89.13,-5.36 90.14,-6.05 91.33,-6.38 92.51,-6.70 93.74,-6.64 94.96,-6.57 96.10,-6.12 97.24,-5.66 98.18,-4.87 99.11,-4.07 99.75,-3.02 100.38,-1.97 100.64,-0.77 100.91,0.42 100.77,1.64 100.64,2.86 100.13,3.98 99.61,5.09 98.77,5.98 97.92,6.87 96.84,7.45 95.75,8.02 94.54,8.22 93.33,8.42 93.33,8.42 93.33,8.42 91.06,8.41 88.80,8.41 86.27,8.39 83.75,8.36 81.58,8.35 79.42,8.34 76.91,8.33 74.41,8.31 71.96,8.30 69.51,8.29 67.00,8.26 64.49,8.23 62.11,8.10 59.73,7.97 57.25,7.63 54.77,7.30 52.37,7.28 49.97,7.27 47.24,7.22 44.50,7.18 41.99,7.11 39.49,7.05 37.22,6.98 34.96,6.91 32.63,6.82 30.30,6.74 27.79,6.62 25.28,6.51 22.97,6.38 20.67,6.25 18.12,6.09 15.57,5.94 13.11,5.77 10.64,5.61 7.48,5.47 4.32,5.33 2.16,5.28 0,5.23 -0.62,5.15 -1.25,5.08 -1.84,4.85 -2.43,4.63 -2.95,4.27 -3.47,3.91 -3.88,3.44 -4.30,2.97 -4.60,2.41 -4.89,1.85 -5.04,1.24 -5.19,0.63 -5.19,-0.00 -5.19,-0.63 -5.04,-1.24 -4.89,-1.85 -4.59,-2.41 -4.30,-2.97 -3.88,-3.44 -3.46,-3.91 -2.95,-4.27 -2.43,-4.63 -1.84,-4.85 -1.25,-5.08 -0.62,-5.15 0.00,-5.23 0.00,-5.23 L 0,-5.23 Z"></path></g><g transform="translate(203.19351093284786 249.69534357155862) rotate(0 0.41784194073989056 16.71367762962109)" stroke="none"><path fill="#1e1e1e" d="M 5.15,0 Q 5.15,0 5.22,1.92 5.30,3.84 5.49,6.36 5.69,8.88 5.86,11.15 6.03,13.42 6.17,15.79 6.31,18.17 6.43,20.47 6.56,22.77 6.67,25.28 6.78,27.79 7.24,30.32 7.71,32.85 7.58,33.96 7.45,35.07 6.97,36.08 6.50,37.09 5.72,37.89 4.95,38.69 3.96,39.21 2.97,39.72 1.87,39.90 0.76,40.07 -0.33,39.88 -1.43,39.69 -2.41,39.16 -3.39,38.63 -4.15,37.81 -4.91,37.00 -5.37,35.98 -5.83,34.96 -5.94,33.85 -6.05,32.74 -5.81,31.65 -5.56,30.57 -4.97,29.62 -4.39,28.66 -3.53,27.95 -2.68,27.23 -1.64,26.83 -0.60,26.42 0.51,26.37 1.62,26.32 2.69,26.63 3.77,26.94 4.68,27.57 5.60,28.20 6.27,29.10 6.94,29.99 7.29,31.05 7.63,32.11 7.62,33.23 7.62,34.34 7.25,35.40 6.89,36.45 6.20,37.33 5.52,38.22 4.59,38.84 3.66,39.45 2.59,39.74 1.51,40.03 0.39,39.96 -0.71,39.89 -1.74,39.47 -2.78,39.05 -3.62,38.32 -4.46,37.59 -5.03,36.63 -5.60,35.67 -5.83,34.58 -6.06,33.49 -6.06,33.49 -6.06,33.49 -5.90,33.02 -5.74,32.54 -6.26,30.17 -6.78,27.79 -6.67,25.28 -6.56,22.77 -6.43,20.47 -6.31,18.17 -6.17,15.79 -6.03,13.42 -5.86,11.15 -5.69,8.88 -5.49,6.36 -5.30,3.84 -5.22,1.92 -5.15,0 -5.08,-0.61 -5.00,-1.23 -4.78,-1.81 -4.56,-2.39 -4.21,-2.90 -3.85,-3.41 -3.39,-3.83 -2.92,-4.24 -2.37,-4.53 -1.82,-4.82 -1.22,-4.96 -0.62,-5.11 0.00,-5.11 0.62,-5.11 1.22,-4.96 1.82,-4.82 2.37,-4.53 2.92,-4.24 3.39,-3.83 3.85,-3.41 4.21,-2.90 4.56,-2.39 4.78,-1.81 5.00,-1.23 5.08,-0.61 5.15,0.00 5.15,0.00 L 5.15,0 Z"></path></g><g transform="translate(204.02919481432764 283.1226988307935) rotate(0 48.469665125898246 -13.788784044438216)" stroke="none"><path fill="#1e1e1e" d="M 0,-5.29 Q 0,-5.29 1.92,-5.35 3.84,-5.42 6.65,-5.56 9.46,-5.70 12.09,-5.85 14.71,-6.01 17.18,-6.14 19.66,-6.27 21.82,-6.37 23.98,-6.47 26.61,-6.57 29.23,-6.68 32.00,-6.76 34.77,-6.84 37.05,-6.91 39.32,-6.98 41.84,-7.04 44.35,-7.10 47.40,-6.45 50.46,-5.79 52.91,-6.15 55.37,-6.50 57.88,-6.54 60.38,-6.58 62.64,-6.55 64.90,-6.51 67.24,-7.38 69.58,-8.26 71.70,-8.67 73.83,-9.09 76.73,-9.97 79.63,-10.85 82.56,-11.28 85.50,-11.72 87.98,-11.78 90.46,-11.85 92.97,-11.86 95.48,-11.87 92.92,-10.42 90.36,-8.98 89.80,-11.59 89.24,-14.19 89.30,-16.55 89.36,-18.90 88.89,-21.18 88.41,-23.47 88.40,-25.81 88.40,-28.14 88.60,-29.37 88.80,-30.60 89.38,-31.71 89.96,-32.81 90.87,-33.66 91.77,-34.52 92.91,-35.04 94.04,-35.57 95.28,-35.70 96.51,-35.84 97.73,-35.57 98.95,-35.30 100.02,-34.66 101.08,-34.02 101.89,-33.07 102.70,-32.12 103.16,-30.96 103.62,-29.80 103.69,-28.56 103.76,-27.31 103.42,-26.11 103.09,-24.91 102.39,-23.88 101.69,-22.85 100.70,-22.09 99.71,-21.34 98.53,-20.94 97.35,-20.54 96.10,-20.54 94.85,-20.54 93.67,-20.94 92.49,-21.34 91.50,-22.09 90.51,-22.85 89.81,-23.88 89.11,-24.91 88.77,-26.11 88.44,-27.31 88.51,-28.56 88.58,-29.80 89.04,-30.96 89.50,-32.12 90.30,-33.07 91.11,-34.02 92.18,-34.66 93.25,-35.30 94.46,-35.57 95.68,-35.84 96.92,-35.70 98.16,-35.57 99.29,-35.05 100.42,-34.52 101.33,-33.66 102.23,-32.81 102.82,-31.71 103.40,-30.61 103.60,-29.38 103.80,-28.15 103.80,-28.15 103.80,-28.15 103.52,-25.98 103.24,-23.81 103.93,-19.72 104.62,-15.64 104.63,-12.86 104.64,-10.08 104.61,-7.77 104.57,-5.47 103.77,-2.90 102.98,-0.33 100.90,0.95 98.83,2.25 95.90,2.87 92.97,3.50 90.67,3.16 88.36,2.83 86.33,3.49 84.31,4.16 81.76,4.28 79.22,4.41 76.86,4.42 74.50,4.43 72.20,5.66 69.89,6.88 66.81,7.59 63.72,8.30 61.22,8.26 58.71,8.23 56.20,8.19 53.69,8.14 51.45,8.09 49.20,8.03 46.78,7.57 44.35,7.10 41.84,7.04 39.32,6.98 37.05,6.91 34.77,6.84 32.00,6.76 29.23,6.68 26.61,6.57 23.98,6.47 21.82,6.37 19.66,6.27 17.18,6.14 14.71,6.01 12.09,5.85 9.46,5.70 6.65,5.56 3.84,5.42 1.92,5.35 0,5.29 -0.63,5.21 -1.26,5.13 -1.86,4.91 -2.45,4.68 -2.98,4.32 -3.50,3.96 -3.93,3.48 -4.35,3.00 -4.65,2.44 -4.94,1.87 -5.10,1.25 -5.25,0.63 -5.25,-0.00 -5.25,-0.63 -5.10,-1.25 -4.94,-1.87 -4.65,-2.44 -4.35,-3.00 -3.93,-3.48 -3.50,-3.96 -2.98,-4.32 -2.45,-4.68 -1.86,-4.91 -1.26,-5.13 -0.63,-5.21 0.00,-5.29 0.00,-5.29 L 0,-5.29 Z"></path></g><g transform="translate(222.41424020691193 212.08956890491027) rotate(0 30.920303614797376 0)" stroke="none"><path fill="#1e1e1e" d="M 0,-5.34 Q 0,-5.34 2.16,-5.38 4.32,-5.43 6.68,-5.45 9.04,-5.47 12.46,-5.59 15.88,-5.71 18.99,-5.81 22.11,-5.91 24.97,-6.00 27.82,-6.09 30.50,-6.17 33.17,-6.24 35.65,-6.35 38.13,-6.45 40.60,-6.54 43.06,-6.63 45.45,-6.72 47.84,-6.82 50.35,-6.91 52.86,-6.99 55.37,-7.06 57.88,-7.13 59.72,-7.14 61.57,-7.15 62.71,-6.96 63.86,-6.77 64.88,-6.23 65.90,-5.69 66.70,-4.85 67.49,-4.01 67.98,-2.96 68.46,-1.91 68.59,-0.76 68.71,0.38 68.46,1.51 68.22,2.64 67.62,3.63 67.02,4.62 66.14,5.37 65.26,6.12 64.18,6.55 63.11,6.98 61.95,7.04 60.80,7.10 59.68,6.79 58.57,6.48 57.61,5.83 56.66,5.19 55.96,4.26 55.26,3.34 54.89,2.25 54.52,1.15 54.52,-0.00 54.52,-1.15 54.89,-2.25 55.26,-3.35 55.96,-4.27 56.66,-5.19 57.61,-5.84 58.57,-6.48 59.69,-6.79 60.80,-7.10 61.96,-7.04 63.11,-6.98 64.19,-6.55 65.26,-6.12 66.14,-5.37 67.02,-4.62 67.62,-3.63 68.22,-2.64 68.46,-1.51 68.71,-0.38 68.59,0.76 68.46,1.91 67.98,2.96 67.49,4.01 66.69,4.85 65.90,5.69 64.88,6.23 63.85,6.77 62.71,6.96 61.57,7.15 61.57,7.15 61.57,7.15 59.72,7.14 57.88,7.13 55.37,7.06 52.86,6.99 50.35,6.91 47.84,6.82 45.45,6.72 43.06,6.63 40.60,6.54 38.13,6.45 35.65,6.35 33.17,6.24 30.50,6.17 27.82,6.09 24.97,6.00 22.11,5.91 18.99,5.81 15.88,5.71 12.46,5.59 9.04,5.47 6.68,5.45 4.32,5.43 2.16,5.38 0,5.34 -0.63,5.26 -1.27,5.18 -1.88,4.95 -2.48,4.73 -3.01,4.36 -3.54,3.99 -3.96,3.51 -4.39,3.03 -4.69,2.46 -4.99,1.89 -5.14,1.26 -5.30,0.64 -5.30,-0.00 -5.30,-0.64 -5.14,-1.26 -4.99,-1.89 -4.69,-2.46 -4.39,-3.03 -3.96,-3.51 -3.54,-3.99 -3.01,-4.36 -2.48,-4.73 -1.88,-4.95 -1.27,-5.18 -0.63,-5.26 0.00,-5.34 0.00,-5.34 L 0,-5.34 Z"></path></g><g transform="translate(221.57855632542487 217.10367219379623) rotate(0 0 6.267629111107453)" stroke="none"><path fill="#1e1e1e" d="M 5.06,0 Q 5.06,0 5.16,1.44 5.25,2.88 5.47,5.28 5.68,7.68 5.73,9.98 5.79,12.27 5.64,13.19 5.49,14.12 5.05,14.95 4.61,15.77 3.93,16.42 3.25,17.06 2.40,17.46 1.54,17.85 0.61,17.95 -0.31,18.05 -1.22,17.85 -2.14,17.65 -2.94,17.17 -3.75,16.68 -4.35,15.97 -4.96,15.25 -5.31,14.38 -5.65,13.51 -5.70,12.58 -5.76,11.64 -5.50,10.74 -5.25,9.83 -4.73,9.06 -4.20,8.28 -3.45,7.71 -2.71,7.15 -1.82,6.85 -0.93,6.55 0.00,6.55 0.93,6.55 1.82,6.85 2.71,7.15 3.46,7.72 4.20,8.28 4.73,9.06 5.25,9.84 5.51,10.74 5.76,11.64 5.70,12.58 5.65,13.51 5.31,14.39 4.96,15.26 4.35,15.97 3.75,16.68 2.94,17.17 2.14,17.65 1.22,17.85 0.31,18.05 -0.61,17.95 -1.55,17.85 -2.40,17.46 -3.25,17.06 -3.93,16.42 -4.61,15.77 -5.05,14.94 -5.49,14.12 -5.64,13.19 -5.79,12.27 -5.79,12.27 -5.79,12.27 -5.73,9.98 -5.68,7.68 -5.47,5.28 -5.25,2.88 -5.16,1.44 -5.06,0 -4.99,-0.60 -4.92,-1.21 -4.70,-1.78 -4.48,-2.35 -4.14,-2.85 -3.79,-3.36 -3.33,-3.76 -2.87,-4.17 -2.33,-4.45 -1.79,-4.73 -1.20,-4.88 -0.61,-5.03 0.00,-5.03 0.61,-5.03 1.20,-4.88 1.79,-4.73 2.33,-4.45 2.87,-4.17 3.33,-3.76 3.79,-3.36 4.14,-2.85 4.48,-2.35 4.70,-1.78 4.92,-1.21 4.99,-0.60 5.06,0.00 5.06,0.00 L 5.06,0 Z"></path></g><g transform="translate(221.57855632542487 229.63893041601477) rotate(0 31.338145555539086 -4.596261348146072)" stroke="none"><path fill="#1e1e1e" d="M 0,-5.17 Q 0,-5.17 1.92,-5.24 3.84,-5.32 6.75,-5.52 9.65,-5.72 11.95,-5.89 14.25,-6.06 16.42,-6.20 18.60,-6.34 21.01,-6.45 23.43,-6.57 25.94,-6.66 28.44,-6.75 31.71,-6.20 34.97,-5.65 37.70,-5.23 40.43,-4.81 42.56,-4.43 44.69,-4.06 47.10,-4.44 49.52,-4.82 52.03,-4.86 54.53,-4.90 57.04,-4.93 59.55,-4.96 57.48,-3.94 55.41,-2.92 55.25,-5.34 55.09,-7.77 55.09,-9.60 55.09,-11.43 55.29,-12.64 55.48,-13.86 56.06,-14.94 56.63,-16.02 57.53,-16.87 58.42,-17.71 59.53,-18.23 60.64,-18.74 61.86,-18.87 63.08,-19.01 64.28,-18.74 65.48,-18.48 66.53,-17.84 67.58,-17.21 68.38,-16.28 69.17,-15.34 69.63,-14.20 70.08,-13.06 70.15,-11.83 70.21,-10.61 69.88,-9.43 69.55,-8.24 68.86,-7.23 68.18,-6.21 67.20,-5.47 66.22,-4.73 65.06,-4.34 63.90,-3.95 62.67,-3.95 61.44,-3.95 60.28,-4.34 59.12,-4.73 58.14,-5.48 57.16,-6.22 56.47,-7.23 55.79,-8.25 55.46,-9.43 55.13,-10.62 55.20,-11.84 55.26,-13.07 55.72,-14.21 56.17,-15.35 56.97,-16.28 57.76,-17.21 58.82,-17.85 59.87,-18.48 61.07,-18.74 62.26,-19.01 63.48,-18.87 64.70,-18.74 65.82,-18.22 66.93,-17.71 67.82,-16.86 68.71,-16.02 69.29,-14.93 69.86,-13.85 70.06,-12.64 70.26,-11.43 70.26,-11.43 70.26,-11.43 70.20,-7.90 70.15,-4.37 69.73,-2.08 69.31,0.20 68.88,2.29 68.45,4.38 65.64,6.57 62.82,8.76 59.93,9.35 57.04,9.95 54.53,9.91 52.03,9.87 49.51,9.83 47.00,9.78 44.54,9.69 42.08,9.59 40.00,9.12 37.92,8.65 35.42,8.16 32.93,7.66 30.68,7.21 28.44,6.75 25.94,6.66 23.43,6.57 21.01,6.45 18.60,6.34 16.42,6.20 14.25,6.06 11.95,5.89 9.65,5.72 6.75,5.52 3.84,5.32 1.92,5.24 0,5.17 -0.61,5.09 -1.23,5.02 -1.82,4.80 -2.40,4.58 -2.91,4.22 -3.43,3.87 -3.84,3.40 -4.25,2.93 -4.54,2.38 -4.83,1.83 -4.98,1.22 -5.13,0.62 -5.13,-0.00 -5.13,-0.62 -4.98,-1.22 -4.83,-1.83 -4.54,-2.38 -4.25,-2.93 -3.84,-3.40 -3.43,-3.87 -2.91,-4.22 -2.40,-4.58 -1.82,-4.80 -1.23,-5.02 -0.61,-5.09 0.00,-5.17 0.00,-5.17 L 0,-5.17 Z"></path></g><g transform="translate(392.0580681475549 179.49789752715515) rotate(0 0.8356838814816001 11.699574340733307)" stroke="none"><path fill="#1e1e1e" d="M 5.11,0 Q 5.11,0 5.20,1.68 5.29,3.36 5.48,5.71 5.67,8.07 5.85,10.41 6.04,12.74 6.20,15.25 6.37,17.76 5.78,17.83 5.20,17.90 5.96,18.63 6.72,19.36 7.21,20.30 7.70,21.23 7.87,22.28 8.03,23.32 7.85,24.36 7.68,25.40 7.18,26.33 6.68,27.26 5.91,27.98 5.13,28.71 4.17,29.14 3.21,29.58 2.16,29.69 1.11,29.80 0.08,29.56 -0.94,29.33 -1.84,28.78 -2.74,28.23 -3.42,27.42 -4.10,26.61 -4.48,25.63 -4.87,24.65 -4.92,23.59 -4.97,22.54 -4.68,21.52 -4.39,20.51 -3.80,19.64 -3.20,18.77 -2.35,18.13 -1.51,17.50 -0.51,17.17 0.49,16.84 1.54,16.84 2.60,16.85 3.60,17.19 4.60,17.53 5.43,18.18 6.27,18.82 6.86,19.70 7.44,20.58 7.72,21.60 8.00,22.62 7.93,23.67 7.87,24.72 7.47,25.70 7.08,26.68 6.39,27.48 5.70,28.28 4.79,28.82 3.88,29.36 2.85,29.58 1.82,29.80 0.77,29.68 -0.27,29.56 -1.23,29.11 -2.18,28.66 -2.18,28.66 -2.18,28.66 -4.27,23.21 -6.37,17.76 -6.20,15.25 -6.04,12.74 -5.85,10.41 -5.67,8.07 -5.48,5.71 -5.29,3.36 -5.20,1.68 -5.11,0 -5.04,-0.61 -4.96,-1.22 -4.74,-1.80 -4.53,-2.37 -4.17,-2.88 -3.82,-3.39 -3.36,-3.80 -2.90,-4.21 -2.36,-4.49 -1.81,-4.78 -1.21,-4.93 -0.61,-5.07 0.00,-5.07 0.61,-5.07 1.21,-4.93 1.81,-4.78 2.36,-4.49 2.90,-4.21 3.36,-3.80 3.82,-3.39 4.18,-2.88 4.53,-2.37 4.74,-1.80 4.96,-1.22 5.04,-0.61 5.11,0.00 5.11,0.00 L 5.11,0 Z"></path></g><g transform="translate(393.7294359105217 202.89704620861812) rotate(0 -10.028206577771925 5.014103288885963)" stroke="none"><path fill="#1e1e1e" d="M 0.84,5.06 Q 0.84,5.06 -0.58,5.39 -2.00,5.72 -5.01,7.61 -8.01,9.49 -10.04,10.88 -12.07,12.27 -14.71,14.09 -17.36,15.91 -18.38,16.16 -19.40,16.40 -20.44,16.30 -21.48,16.21 -22.44,15.79 -23.40,15.37 -24.17,14.66 -24.95,13.95 -25.45,13.04 -25.96,12.12 -26.15,11.09 -26.33,10.06 -26.18,9.02 -26.03,7.99 -25.56,7.05 -25.09,6.12 -24.34,5.39 -23.59,4.65 -22.65,4.20 -21.71,3.74 -20.67,3.61 -19.63,3.48 -18.60,3.68 -17.58,3.89 -16.67,4.42 -15.76,4.94 -15.07,5.72 -14.38,6.51 -13.98,7.48 -13.57,8.44 -13.50,9.49 -13.42,10.53 -13.68,11.54 -13.94,12.56 -14.52,13.43 -15.09,14.31 -15.91,14.96 -16.73,15.61 -17.72,15.96 -18.70,16.31 -19.75,16.33 -20.80,16.35 -21.80,16.03 -22.79,15.71 -23.64,15.10 -24.48,14.48 -25.09,13.62 -25.69,12.77 -25.99,11.76 -26.28,10.76 -26.25,9.71 -26.21,8.67 -25.84,7.69 -25.47,6.71 -24.80,5.90 -24.14,5.09 -23.25,4.53 -22.37,3.98 -22.37,3.98 -22.37,3.98 -21.46,3.29 -20.56,2.60 -18.37,1.44 -16.19,0.29 -14.25,-0.68 -12.31,-1.66 -10.23,-2.73 -8.14,-3.79 -5.95,-4.28 -3.75,-4.76 -2.30,-4.91 -0.84,-5.06 -0.22,-5.09 0.39,-5.12 0.99,-5.00 1.60,-4.87 2.16,-4.61 2.72,-4.35 3.20,-3.96 3.69,-3.57 4.06,-3.07 4.43,-2.58 4.68,-2.01 4.92,-1.44 5.03,-0.83 5.13,-0.22 5.08,0.39 5.03,1.00 4.84,1.59 4.64,2.18 4.32,2.70 3.99,3.23 3.54,3.66 3.10,4.09 2.56,4.40 2.03,4.71 1.43,4.89 0.84,5.06 0.84,5.06 L 0.84,5.06 Z"></path></g><g transform="translate(399.5792230808802 205.40409785305746) rotate(0 6.267629111107453 0)" stroke="none"><path fill="#1e1e1e" d="M 0,-5.00 Q 0,-5.00 1.92,-5.08 3.84,-5.17 6.27,-5.33 8.70,-5.48 10.47,-5.50 12.24,-5.53 13.13,-5.38 14.01,-5.24 14.80,-4.82 15.59,-4.40 16.21,-3.75 16.82,-3.10 17.20,-2.29 17.57,-1.47 17.67,-0.58 17.77,0.29 17.57,1.17 17.38,2.04 16.92,2.81 16.46,3.58 15.78,4.15 15.10,4.73 14.26,5.06 13.43,5.40 12.54,5.44 11.65,5.49 10.78,5.25 9.92,5.01 9.18,4.51 8.44,4.01 7.90,3.30 7.36,2.58 7.07,1.74 6.79,0.89 6.79,-0.00 6.79,-0.89 7.07,-1.74 7.36,-2.59 7.90,-3.30 8.44,-4.01 9.18,-4.51 9.92,-5.01 10.79,-5.25 11.65,-5.49 12.54,-5.44 13.43,-5.40 14.27,-5.06 15.10,-4.73 15.78,-4.15 16.46,-3.57 16.92,-2.81 17.38,-2.04 17.57,-1.17 17.77,-0.29 17.67,0.59 17.57,1.48 17.20,2.29 16.82,3.10 16.21,3.75 15.59,4.40 14.80,4.82 14.01,5.24 13.13,5.38 12.24,5.53 12.24,5.53 12.24,5.53 10.47,5.50 8.70,5.48 6.27,5.33 3.84,5.17 1.92,5.08 0,5.00 -0.59,4.92 -1.19,4.85 -1.76,4.64 -2.32,4.42 -2.82,4.08 -3.31,3.74 -3.71,3.29 -4.11,2.84 -4.39,2.30 -4.67,1.77 -4.82,1.18 -4.96,0.60 -4.96,-0.00 -4.96,-0.60 -4.82,-1.18 -4.67,-1.77 -4.39,-2.30 -4.11,-2.84 -3.71,-3.29 -3.31,-3.74 -2.81,-4.08 -2.32,-4.42 -1.76,-4.64 -1.19,-4.85 -0.59,-4.92 0.00,-5.00 0.00,-5.00 L 0,-5.00 Z"></path></g><g transform="translate(396.23648755496106 209.58251726047092) rotate(0 -7.1033129925890535 12.117416281475016)" stroke="none"><path fill="#1e1e1e" d="M 4.53,2.83 Q 4.53,2.83 3.36,4.77 2.19,6.71 1.15,8.73 0.12,10.76 -1.45,13.57 -3.02,16.37 -3.83,18.38 -4.64,20.39 -6.16,22.53 -7.69,24.67 -8.13,25.91 -8.58,27.14 -9.24,27.92 -9.90,28.70 -10.78,29.23 -11.66,29.75 -12.66,29.97 -13.65,30.19 -14.67,30.08 -15.69,29.97 -16.62,29.54 -17.54,29.11 -18.28,28.40 -19.03,27.70 -19.50,26.79 -19.98,25.89 -20.15,24.88 -20.31,23.87 -20.14,22.86 -19.98,21.85 -19.50,20.95 -19.02,20.05 -18.27,19.35 -17.53,18.64 -16.60,18.22 -15.67,17.79 -14.66,17.68 -13.64,17.57 -12.64,17.79 -11.64,18.01 -10.77,18.54 -9.89,19.07 -9.23,19.85 -8.57,20.63 -8.19,21.58 -7.82,22.53 -7.76,23.55 -7.71,24.57 -7.98,25.56 -8.26,26.54 -8.83,27.39 -9.41,28.23 -10.22,28.85 -11.04,29.47 -12.01,29.79 -12.98,30.12 -14.00,30.12 -15.02,30.11 -15.99,29.79 -16.96,29.46 -17.77,28.84 -18.58,28.22 -19.16,27.37 -19.73,26.53 -20.00,25.54 -20.27,24.55 -20.22,23.53 -20.16,22.51 -19.78,21.56 -19.40,20.61 -19.40,20.61 -19.40,20.62 -17.52,17.84 -15.65,15.06 -14.34,12.55 -13.03,10.04 -11.60,7.94 -10.16,5.83 -8.58,3.40 -6.99,0.97 -5.76,-0.92 -4.53,-2.83 -4.12,-3.33 -3.72,-3.83 -3.20,-4.22 -2.69,-4.61 -2.10,-4.87 -1.51,-5.12 -0.87,-5.23 -0.24,-5.33 0.39,-5.29 1.04,-5.24 1.65,-5.04 2.26,-4.84 2.81,-4.49 3.35,-4.15 3.80,-3.69 4.25,-3.23 4.58,-2.67 4.90,-2.12 5.08,-1.50 5.27,-0.88 5.30,-0.24 5.32,0.40 5.20,1.03 5.07,1.66 4.80,2.24 4.53,2.83 4.53,2.83 L 4.53,2.83 Z"></path></g><g transform="translate(402.0862747253268 220.44640771972263) rotate(0 2.924893585184691 5.014103288887782)" stroke="none"><path fill="#1e1e1e" d="M 4.70,-1.88 Q 4.70,-1.88 5.24,-0.75 5.78,0.36 7.13,2.31 8.49,4.25 9.79,5.94 11.10,7.62 11.31,8.53 11.52,9.44 11.43,10.37 11.34,11.30 10.96,12.15 10.58,13.01 9.94,13.69 9.31,14.38 8.49,14.82 7.67,15.27 6.75,15.43 5.83,15.60 4.91,15.46 3.99,15.32 3.16,14.89 2.33,14.46 1.68,13.79 1.03,13.12 0.62,12.28 0.22,11.44 0.11,10.51 0.00,9.58 0.19,8.67 0.38,7.75 0.85,6.95 1.32,6.14 2.02,5.53 2.73,4.92 3.59,4.56 4.46,4.20 5.39,4.14 6.32,4.08 7.22,4.32 8.12,4.56 8.90,5.07 9.68,5.59 10.26,6.32 10.83,7.06 11.14,7.94 11.45,8.82 11.46,9.76 11.47,10.69 11.18,11.58 10.89,12.47 10.34,13.22 9.78,13.97 9.01,14.50 8.25,15.03 7.35,15.29 6.45,15.55 5.52,15.52 4.59,15.48 3.72,15.14 2.85,14.80 2.13,14.21 1.41,13.61 0.92,12.82 0.43,12.02 0.43,12.02 0.43,12.03 -0.61,10.23 -1.66,8.43 -2.76,6.43 -3.86,4.43 -4.28,3.15 -4.70,1.88 -4.85,1.29 -5.01,0.70 -5.02,0.09 -5.03,-0.51 -4.90,-1.11 -4.76,-1.71 -4.49,-2.25 -4.21,-2.80 -3.82,-3.26 -3.42,-3.72 -2.92,-4.08 -2.43,-4.44 -1.86,-4.66 -1.29,-4.89 -0.69,-4.97 -0.09,-5.06 0.51,-5.00 1.12,-4.93 1.69,-4.73 2.27,-4.52 2.78,-4.18 3.28,-3.84 3.70,-3.40 4.11,-2.95 4.40,-2.41 4.70,-1.88 4.70,-1.88 L 4.70,-1.88 Z"></path></g><g transform="translate(377.015758280897 415.1607521047954) rotate(0 15.460151807399598 0)" stroke="none"><path fill="#1e1e1e" d="M 0,-5.15 Q 0,-5.15 2.88,-5.13 5.76,-5.11 8.67,-5.28 11.58,-5.44 13.96,-5.62 16.33,-5.80 18.71,-5.98 21.10,-6.15 23.61,-6.30 26.12,-6.46 28.39,-6.49 30.65,-6.52 31.69,-6.35 32.74,-6.18 33.67,-5.69 34.60,-5.19 35.33,-4.42 36.06,-3.66 36.50,-2.70 36.94,-1.74 37.06,-0.69 37.17,0.35 36.94,1.38 36.72,2.41 36.17,3.32 35.63,4.22 34.82,4.90 34.02,5.59 33.04,5.98 32.06,6.37 31.00,6.43 29.95,6.48 28.93,6.20 27.91,5.92 27.04,5.33 26.16,4.73 25.52,3.89 24.89,3.05 24.55,2.05 24.21,1.05 24.21,-0.00 24.21,-1.05 24.55,-2.05 24.89,-3.05 25.53,-3.89 26.16,-4.73 27.04,-5.33 27.91,-5.92 28.93,-6.20 29.95,-6.48 31.00,-6.43 32.06,-6.37 33.04,-5.98 34.02,-5.59 34.82,-4.90 35.63,-4.22 36.17,-3.31 36.72,-2.41 36.94,-1.38 37.17,-0.35 37.06,0.69 36.94,1.74 36.50,2.70 36.05,3.66 35.33,4.43 34.60,5.19 33.67,5.69 32.74,6.18 31.69,6.35 30.65,6.52 30.65,6.52 30.65,6.52 28.39,6.49 26.12,6.46 23.61,6.30 21.10,6.15 18.71,5.98 16.33,5.80 13.96,5.62 11.58,5.44 8.67,5.28 5.76,5.11 2.88,5.13 0,5.15 -0.61,5.08 -1.23,5.00 -1.81,4.78 -2.39,4.56 -2.90,4.21 -3.41,3.85 -3.83,3.39 -4.24,2.92 -4.53,2.37 -4.82,1.82 -4.97,1.22 -5.11,0.62 -5.11,-0.00 -5.11,-0.62 -4.97,-1.22 -4.82,-1.82 -4.53,-2.37 -4.24,-2.92 -3.83,-3.39 -3.41,-3.86 -2.90,-4.21 -2.39,-4.56 -1.81,-4.78 -1.23,-5.00 -0.61,-5.08 0.00,-5.15 0.00,-5.15 L 0,-5.15 Z"></path></g><g transform="translate(377.85144216237677 420.17485539368136) rotate(0 17.13151957036098 47.633981244418464)" stroke="none"><path fill="#1e1e1e" d="M 5.20,0 Q 5.20,0 5.27,1.92 5.34,3.84 5.54,6.75 5.74,9.65 5.89,11.91 6.03,14.16 6.19,16.62 6.34,19.07 6.45,21.26 6.56,23.45 6.64,25.59 6.73,27.72 6.81,29.84 6.90,31.97 6.98,34.48 7.05,36.98 7.11,39.72 7.17,42.47 7.21,44.70 7.25,46.94 7.28,49.29 7.31,51.64 7.35,54.26 7.38,56.88 7.40,59.26 7.42,61.63 7.44,64.13 7.45,66.63 7.47,69.28 7.50,71.92 7.89,74.12 8.28,76.32 8.71,78.40 9.14,80.48 9.58,82.98 10.01,85.47 10.48,87.80 10.95,90.12 8.86,88.83 6.78,87.54 9.43,87.60 12.08,87.65 14.22,87.66 16.37,87.67 18.73,87.65 21.10,87.64 23.44,87.70 25.79,87.75 27.82,88.42 29.85,89.08 27.11,90.19 24.38,91.29 23.82,89.03 23.26,86.77 23.25,84.64 23.24,82.51 23.23,80.00 23.22,77.50 23.95,73.52 24.68,69.55 24.35,67.26 24.02,64.96 24.01,62.45 24.01,59.95 24.00,57.44 24.00,54.93 24.00,52.46 24.00,49.98 24.01,47.53 24.02,45.08 24.02,42.92 24.02,40.76 24.02,38.27 24.02,35.78 24.02,33.31 24.02,30.85 24.60,27.60 25.19,24.35 25.77,21.86 26.34,19.38 27.57,16.25 28.79,13.12 27.64,11.05 26.49,8.97 26.09,6.63 25.69,4.30 25.47,3.03 25.26,1.75 25.07,0.51 24.88,-0.72 25.10,-1.96 25.31,-3.20 25.92,-4.31 26.52,-5.41 27.44,-6.26 28.37,-7.12 29.51,-7.63 30.66,-8.15 31.91,-8.27 33.16,-8.39 34.39,-8.10 35.61,-7.82 36.68,-7.16 37.75,-6.50 38.56,-5.53 39.36,-4.56 39.81,-3.39 40.26,-2.21 40.32,-0.96 40.37,0.29 40.02,1.50 39.67,2.71 38.95,3.74 38.23,4.77 37.22,5.52 36.21,6.27 35.01,6.66 33.82,7.04 32.56,7.03 31.30,7.01 30.11,6.60 28.93,6.18 27.94,5.41 26.94,4.64 26.25,3.59 25.56,2.54 25.23,1.32 24.91,0.10 25.00,-1.14 25.08,-2.40 25.56,-3.56 26.04,-4.72 26.86,-5.67 27.69,-6.62 28.78,-7.25 29.86,-7.89 31.09,-8.14 32.32,-8.40 33.57,-8.25 34.82,-8.10 35.96,-7.55 37.09,-7.01 37.99,-6.14 38.90,-5.26 39.47,-4.14 40.05,-3.02 40.05,-3.03 40.05,-3.03 40.29,-0.17 40.54,2.67 41.21,4.73 41.89,6.78 41.95,9.13 42.02,11.48 42.01,13.64 42.00,15.79 41.74,18.09 41.48,20.38 40.24,22.27 39.01,24.16 40.08,22.07 41.15,19.98 40.66,22.31 40.17,24.63 39.80,26.75 39.42,28.86 39.45,31.03 39.49,33.21 39.48,35.47 39.48,37.74 39.48,40.16 39.48,42.58 39.49,45.08 39.50,47.57 39.50,49.76 39.50,51.94 39.50,54.27 39.50,56.60 39.50,59.11 39.49,61.62 39.49,64.13 39.48,66.64 39.46,68.89 39.43,71.15 39.03,73.49 38.62,75.82 38.61,78.33 38.60,80.84 38.59,83.36 38.58,85.89 38.57,88.08 38.57,90.27 38.55,92.54 38.52,94.80 37.73,97.37 36.93,99.94 33.12,101.85 29.32,103.75 26.88,103.33 24.45,102.90 21.92,102.89 19.39,102.87 17.07,102.87 14.76,102.86 12.44,102.86 10.12,102.86 7.48,102.81 4.84,102.76 2.75,102.12 0.66,101.47 -1.09,99.10 -2.84,96.73 -2.86,93.56 -2.87,90.39 -4.06,86.86 -5.26,83.34 -5.67,81.21 -6.09,79.08 -6.79,75.50 -7.50,71.92 -7.47,69.28 -7.45,66.63 -7.44,64.13 -7.42,61.63 -7.40,59.26 -7.38,56.88 -7.35,54.26 -7.31,51.64 -7.28,49.29 -7.25,46.94 -7.21,44.70 -7.17,42.47 -7.11,39.72 -7.05,36.98 -6.98,34.48 -6.90,31.97 -6.81,29.84 -6.73,27.72 -6.64,25.59 -6.56,23.45 -6.45,21.26 -6.34,19.07 -6.19,16.62 -6.03,14.16 -5.89,11.91 -5.74,9.65 -5.54,6.75 -5.34,3.84 -5.27,1.92 -5.20,0 -5.12,-0.62 -5.05,-1.24 -4.82,-1.83 -4.60,-2.41 -4.25,-2.93 -3.89,-3.45 -3.42,-3.86 -2.95,-4.28 -2.40,-4.57 -1.84,-4.86 -1.23,-5.01 -0.62,-5.16 0.00,-5.16 0.62,-5.16 1.23,-5.01 1.84,-4.86 2.40,-4.57 2.95,-4.28 3.42,-3.86 3.89,-3.45 4.25,-2.93 4.60,-2.41 4.83,-1.83 5.05,-1.24 5.12,-0.62 5.20,0.00 5.20,0.00 L 5.20,0 Z"></path></g><g transform="translate(423.8140556438375 440.2312685492252) rotate(0 9.610364637032035 28.413251970354395)" stroke="none"><path fill="#1e1e1e" d="M 0,-5.16 Q 0,-5.16 1.92,-5.24 3.84,-5.31 6.75,-5.46 9.66,-5.61 12.02,-5.79 14.37,-5.97 17.08,-5.58 19.78,-5.19 22.10,-2.68 24.42,-0.17 24.63,2.03 24.84,4.25 24.46,6.50 24.08,8.75 24.24,11.09 24.39,13.44 24.46,15.60 24.54,17.76 24.61,20.27 24.68,22.78 24.74,25.28 24.79,27.79 25.24,30.14 25.69,32.48 26.15,34.99 26.60,37.49 26.65,39.74 26.69,41.99 26.72,44.50 26.75,47.01 26.77,49.52 26.79,52.03 26.18,54.94 25.57,57.85 24.29,59.90 23.01,61.95 20.69,62.49 18.37,63.03 15.97,63.73 13.57,64.42 11.28,64.44 8.98,64.47 5.85,63.75 2.72,63.02 -0.00,61.39 -2.74,59.76 -3.50,57.22 -4.27,54.69 -4.31,52.31 -4.36,49.93 -3.96,47.14 -3.57,44.35 -3.11,40.50 -2.66,36.65 -2.63,33.89 -2.60,31.13 -2.16,28.67 -1.72,26.21 -1.75,23.86 -1.79,21.50 -1.80,19.03 -1.81,16.55 -1.82,14.02 -1.83,11.48 -1.84,8.37 -1.84,5.27 -1.64,4.04 -1.44,2.81 -0.86,1.71 -0.27,0.61 0.62,-0.23 1.53,-1.09 2.66,-1.61 3.79,-2.14 5.02,-2.27 6.26,-2.40 7.48,-2.14 8.69,-1.87 9.76,-1.23 10.83,-0.58 11.63,0.35 12.44,1.30 12.90,2.46 13.36,3.62 13.43,4.86 13.50,6.10 13.16,7.30 12.83,8.50 12.13,9.54 11.43,10.57 10.44,11.32 9.45,12.07 8.27,12.47 7.09,12.87 5.84,12.87 4.60,12.87 3.42,12.47 2.24,12.07 1.25,11.32 0.26,10.56 -0.43,9.53 -1.13,8.50 -1.46,7.30 -1.80,6.10 -1.73,4.86 -1.66,3.62 -1.20,2.46 -0.74,1.30 0.06,0.35 0.86,-0.59 1.93,-1.23 3.00,-1.87 4.21,-2.14 5.43,-2.40 6.67,-2.27 7.91,-2.13 9.04,-1.61 10.17,-1.09 11.07,-0.23 11.97,0.62 12.56,1.72 13.14,2.82 13.34,4.04 13.54,5.27 13.54,5.27 13.54,5.27 13.54,8.37 13.53,11.48 13.52,14.02 13.51,16.55 13.50,19.03 13.49,21.51 13.46,23.77 13.43,26.04 13.02,28.62 12.61,31.20 12.58,33.54 12.55,35.89 12.18,38.25 11.80,40.60 11.71,43.11 11.63,45.62 10.79,48.45 9.95,51.28 7.77,49.85 5.58,48.42 7.69,48.80 9.80,49.17 12.13,49.33 14.46,49.49 13.05,51.59 11.63,53.70 11.65,51.19 11.67,48.68 11.70,46.18 11.72,43.67 12.08,41.30 12.43,38.93 12.05,36.40 11.67,33.86 10.98,30.83 10.29,27.79 10.35,25.28 10.41,22.78 10.48,20.27 10.55,17.76 10.63,15.59 10.70,13.42 10.79,11.26 10.88,9.10 12.63,7.53 14.37,5.97 12.02,5.79 9.66,5.61 6.75,5.46 3.84,5.31 1.92,5.24 0,5.16 -0.61,5.09 -1.23,5.01 -1.81,4.79 -2.40,4.57 -2.91,4.22 -3.42,3.86 -3.84,3.40 -4.25,2.93 -4.54,2.38 -4.83,1.83 -4.98,1.22 -5.13,0.62 -5.13,-0.00 -5.13,-0.62 -4.98,-1.22 -4.83,-1.83 -4.54,-2.38 -4.25,-2.93 -3.84,-3.40 -3.42,-3.86 -2.91,-4.22 -2.40,-4.57 -1.81,-4.79 -1.23,-5.01 -0.61,-5.09 0.00,-5.16 0.00,-5.16 L 0,-5.16 Z"></path></g><g transform="translate(465.59824971788476 438.55990078626564) rotate(0 7.1033129925872345 29.666777792575886)" stroke="none"><path fill="#1e1e1e" d="M 0,-5.08 Q 0,-5.08 1.68,-5.17 3.36,-5.26 5.93,-5.48 8.51,-5.70 10.63,-5.87 12.75,-6.04 16.29,-5.68 19.84,-5.32 22.20,-2.76 24.57,-0.21 24.78,2.07 24.99,4.36 25.08,6.63 25.16,8.90 25.24,11.44 25.31,13.98 25.38,16.29 25.45,18.59 25.50,21.03 25.56,23.46 25.60,25.62 25.65,27.79 25.69,30.29 25.73,32.79 25.18,36.35 24.63,39.90 24.83,42.20 25.03,44.50 25.05,47.01 25.08,49.52 25.10,52.03 25.12,54.53 24.51,57.86 23.90,61.19 22.62,63.25 21.34,65.30 18.79,66.09 16.24,66.88 14.04,66.92 11.84,66.97 9.57,66.98 7.30,66.99 4.79,67.00 2.28,67.01 -1.47,66.39 -5.23,65.76 -7.31,64.47 -9.39,63.18 -10.18,60.60 -10.98,58.03 -10.99,55.18 -11.00,52.33 -11.00,50.11 -10.99,47.89 -10.99,45.58 -10.99,43.28 -11.00,40.75 -11.02,38.22 -11.02,35.48 -11.02,32.75 -11.02,30.13 -11.02,27.51 -11.43,25.10 -11.84,22.68 -11.86,20.42 -11.89,18.17 -11.90,15.66 -11.90,13.15 -11.91,10.64 -11.92,8.13 -11.30,4.38 -10.68,0.63 -8.52,-2.09 -6.37,-4.81 -5.27,-5.39 -4.16,-5.96 -2.94,-6.15 -1.71,-6.34 -0.49,-6.13 0.73,-5.92 1.82,-5.33 2.91,-4.74 3.76,-3.83 4.60,-2.92 5.12,-1.79 5.63,-0.66 5.75,0.56 5.88,1.80 5.60,3.01 5.33,4.22 4.68,5.28 4.03,6.34 3.08,7.13 2.12,7.93 0.97,8.38 -0.18,8.83 -1.42,8.89 -2.66,8.95 -3.86,8.60 -5.05,8.26 -6.07,7.56 -7.09,6.85 -7.84,5.86 -8.58,4.86 -8.97,3.68 -9.35,2.50 -9.34,1.26 -9.33,0.02 -8.93,-1.14 -8.52,-2.32 -7.76,-3.30 -7.00,-4.28 -5.97,-4.97 -4.94,-5.66 -3.74,-5.98 -2.54,-6.30 -1.30,-6.23 -0.06,-6.15 1.08,-5.68 2.23,-5.21 3.17,-4.40 4.11,-3.59 4.74,-2.52 5.37,-1.45 5.63,-0.23 5.89,0.97 5.74,2.20 5.60,3.44 5.07,4.56 4.54,5.68 3.67,6.58 2.81,7.47 2.81,7.47 2.82,7.47 3.19,6.97 3.56,6.46 3.56,8.97 3.55,11.48 3.54,13.98 3.54,16.49 3.22,18.82 2.90,21.15 3.56,23.19 4.22,25.22 4.28,28.00 4.34,30.77 4.33,32.90 4.33,35.03 4.33,37.46 4.32,39.89 4.31,42.03 4.30,44.17 4.31,46.76 4.31,49.36 3.77,51.94 3.23,54.52 1.50,53.08 -0.21,51.64 2.28,51.65 4.79,51.66 7.33,51.67 9.87,51.68 12.31,51.73 14.75,51.77 12.36,53.15 9.97,54.53 9.99,52.03 10.01,49.52 10.04,47.01 10.06,44.49 10.10,42.12 10.15,39.75 10.58,37.11 11.01,34.47 11.04,32.31 11.08,30.15 11.12,27.70 11.16,25.26 11.22,22.76 11.27,20.27 11.33,18.14 11.39,16.01 11.45,13.74 11.52,11.47 12.13,8.75 12.75,6.04 10.63,5.87 8.51,5.70 5.93,5.48 3.36,5.26 1.68,5.17 0,5.08 -0.60,5.00 -1.21,4.93 -1.78,4.71 -2.36,4.49 -2.86,4.15 -3.36,3.80 -3.77,3.34 -4.18,2.88 -4.46,2.34 -4.75,1.80 -4.89,1.20 -5.04,0.61 -5.04,-0.00 -5.04,-0.61 -4.89,-1.20 -4.75,-1.80 -4.46,-2.34 -4.18,-2.88 -3.77,-3.34 -3.36,-3.80 -2.86,-4.15 -2.36,-4.49 -1.78,-4.71 -1.21,-4.93 -0.60,-5.00 0.00,-5.08 0.00,-5.08 L 0,-5.08 Z"></path></g><g transform="translate(503.2040243845331 421.01053927516114) rotate(0 13.370942103696507 51.39455871108112)" stroke="none"><path fill="#1e1e1e" d="M 0,-5.19 Q 0,-5.19 1.92,-5.26 3.84,-5.33 6.41,-5.48 8.98,-5.63 11.16,-5.79 13.34,-5.94 15.55,-6.09 17.76,-6.25 20.27,-6.39 22.78,-6.53 24.93,-7.02 27.07,-7.51 30.82,-6.12 34.56,-4.72 36.14,-1.99 37.71,0.74 37.48,3.67 37.26,6.59 37.16,9.14 37.07,11.69 37.05,14.13 37.04,16.56 37.05,18.81 37.06,21.07 36.74,24.03 36.41,26.98 36.39,29.39 36.37,31.79 36.38,34.72 36.39,37.65 36.41,40.33 36.44,43.02 36.45,45.50 36.47,47.99 36.90,50.65 37.34,53.31 37.38,55.82 37.43,58.32 37.45,61.15 37.46,63.98 37.78,66.45 38.10,68.92 38.22,71.58 38.33,74.24 38.73,77.32 39.14,80.41 39.18,82.69 39.23,84.97 39.24,87.22 39.26,89.46 39.28,91.64 39.30,93.81 39.32,96.32 39.34,98.82 38.73,102.16 38.12,105.49 36.74,107.58 35.36,109.67 33.22,110.37 31.08,111.07 28.63,111.15 26.18,111.24 22.85,110.69 19.52,110.14 16.21,109.83 12.90,109.53 9.90,108.98 6.89,108.42 2.88,107.92 -1.12,107.43 -4.01,107.06 -6.89,106.69 -8.97,105.40 -11.04,104.11 -11.83,101.54 -12.62,98.98 -12.30,95.37 -11.98,91.76 -11.50,89.66 -11.01,87.55 -10.24,84.07 -9.47,80.59 -8.95,78.06 -8.42,75.53 -8.00,72.78 -7.57,70.03 -7.10,67.86 -6.63,65.69 -6.64,63.27 -6.66,60.84 -6.20,58.48 -5.75,56.11 -5.36,53.25 -4.97,50.40 -5.01,48.10 -5.05,45.79 -5.07,43.27 -5.08,40.74 -5.09,38.30 -5.10,35.86 -5.10,33.15 -5.09,30.44 -5.09,27.86 -5.10,25.29 -5.11,22.98 -5.12,20.68 -5.13,18.17 -5.15,15.66 -4.42,12.53 -3.69,9.40 -4.89,7.28 -6.08,5.15 -6.37,3.95 -6.67,2.76 -6.56,1.53 -6.46,0.30 -5.96,-0.82 -5.47,-1.95 -4.64,-2.86 -3.82,-3.78 -2.74,-4.38 -1.66,-4.98 -0.45,-5.21 0.75,-5.43 1.97,-5.26 3.19,-5.09 4.29,-4.54 5.39,-3.98 6.26,-3.11 7.13,-2.23 7.67,-1.13 8.21,-0.02 8.38,1.19 8.54,2.42 8.30,3.62 8.06,4.83 7.45,5.90 6.84,6.97 5.92,7.79 4.99,8.61 3.86,9.09 2.72,9.58 1.50,9.67 0.27,9.76 -0.92,9.46 -2.11,9.16 -3.15,8.49 -4.18,7.82 -4.95,6.86 -5.72,5.89 -6.14,4.73 -6.56,3.57 -6.59,2.34 -6.61,1.11 -6.25,-0.06 -5.88,-1.23 -5.16,-2.23 -4.43,-3.23 -3.43,-3.94 -2.42,-4.66 -1.24,-5.01 -0.06,-5.37 1.16,-5.33 2.39,-5.29 3.55,-4.86 4.70,-4.43 5.66,-3.65 6.62,-2.88 7.28,-1.84 7.93,-0.79 7.93,-0.79 7.93,-0.80 7.56,-0.91 7.18,-1.03 9.11,2.71 11.04,6.47 11.01,8.72 10.98,10.98 10.57,13.32 10.16,15.66 10.15,18.17 10.13,20.68 10.12,22.98 10.11,25.29 10.11,27.86 10.11,30.44 10.11,32.69 10.12,34.94 10.11,37.42 10.10,39.90 10.08,42.18 10.07,44.46 10.04,46.99 10.02,49.53 9.59,52.01 9.17,54.49 9.03,56.76 8.89,59.03 8.60,61.60 8.30,64.18 8.22,66.37 8.14,68.56 7.31,71.52 6.49,74.48 6.17,77.07 5.84,79.66 5.45,81.92 5.06,84.18 4.54,86.35 4.02,88.52 2.78,92.01 1.53,95.49 -1.00,94.05 -3.54,92.61 -1.07,92.67 1.40,92.73 4.01,93.12 6.62,93.50 9.07,93.96 11.52,94.43 14.24,94.81 16.95,95.20 19.57,95.29 22.18,95.39 24.68,96.22 27.19,97.04 25.67,98.77 24.15,100.50 24.17,97.99 24.19,95.48 24.21,92.94 24.23,90.40 24.25,88.26 24.26,86.12 24.39,83.75 24.52,81.38 24.00,78.61 23.47,75.83 23.58,73.52 23.68,71.20 23.19,68.42 22.69,65.63 22.70,63.21 22.71,60.79 22.73,58.44 22.75,56.08 22.76,53.90 22.76,51.72 22.40,48.22 22.04,44.71 22.06,42.12 22.08,39.54 22.10,36.58 22.12,33.63 22.19,31.04 22.25,28.45 22.67,25.88 23.09,23.31 23.11,21.16 23.13,19.01 23.15,16.46 23.17,13.91 23.24,11.23 23.31,8.55 23.73,5.51 24.15,2.46 26.23,4.03 28.30,5.59 25.54,6.06 22.78,6.53 20.27,6.39 17.76,6.25 15.55,6.09 13.34,5.94 11.16,5.79 8.98,5.63 6.41,5.48 3.84,5.33 1.92,5.26 0,5.19 -0.62,5.11 -1.24,5.03 -1.82,4.81 -2.41,4.59 -2.92,4.24 -3.44,3.88 -3.85,3.41 -4.27,2.94 -4.56,2.39 -4.85,1.84 -5.00,1.23 -5.15,0.62 -5.15,-0.00 -5.15,-0.62 -5.00,-1.23 -4.85,-1.84 -4.56,-2.39 -4.27,-2.94 -3.85,-3.41 -3.44,-3.88 -2.92,-4.24 -2.41,-4.59 -1.82,-4.81 -1.24,-5.03 -0.62,-5.11 0.00,-5.19 0.00,-5.19 L 0,-5.19 Z"></path></g><g transform="translate(554.1807411548725 436.8885330233061) rotate(0 71.45097186662679 99.86422383698118)" stroke="none"><path fill="#1e1e1e" d="M 0,-5.06 Q 0,-5.06 1.44,-5.16 2.88,-5.25 5.28,-5.47 7.68,-5.68 10.22,-5.88 12.75,-6.08 15.26,-6.24 17.76,-6.40 20.27,-6.53 22.78,-6.66 25.28,-6.76 27.79,-6.86 30.30,-6.95 32.80,-7.03 35.31,-7.10 37.82,-7.16 40.84,-6.49 43.85,-5.81 46.55,-4.65 49.25,-3.49 51.84,-2.62 54.43,-1.76 56.96,-2.51 59.48,-3.27 62.96,-2.47 66.44,-1.67 68.68,-1.09 70.92,-0.52 73.20,0.29 75.49,1.11 78.73,2.15 81.98,3.18 84.34,4.98 86.69,6.78 88.56,8.17 90.42,9.55 92.56,11.27 94.70,12.99 96.49,14.43 98.28,15.88 101.30,17.39 104.33,18.91 106.59,20.28 108.84,21.66 111.07,22.79 113.30,23.93 115.59,25.51 117.87,27.10 119.52,28.81 121.17,30.52 123.13,31.89 125.09,33.26 126.97,35.82 128.85,38.38 129.96,40.79 131.07,43.20 133.54,45.49 136.02,47.78 136.76,49.93 137.50,52.08 138.37,54.75 139.24,57.43 140.33,59.40 141.43,61.36 143.08,64.15 144.72,66.94 145.65,69.22 146.59,71.50 147.64,74.24 148.70,76.98 149.14,79.56 149.58,82.13 149.93,84.66 150.27,87.19 150.36,90.15 150.44,93.11 150.43,96.04 150.42,98.97 150.40,101.90 150.38,104.82 150.38,107.36 150.38,109.90 150.38,112.07 150.39,114.23 150.40,116.37 150.42,118.51 150.44,120.78 150.46,123.05 150.44,125.79 150.43,128.53 150.39,131.16 150.35,133.79 149.98,136.02 149.61,138.26 149.57,140.48 149.54,142.71 149.55,144.92 149.56,147.13 149.59,149.30 149.61,151.47 149.62,153.95 149.64,156.42 150.02,158.99 150.40,161.55 150.46,164.03 150.53,166.50 150.54,169.02 150.56,171.53 151.19,173.87 151.82,176.22 152.40,178.90 152.99,181.58 153.04,184.03 153.09,186.48 153.10,188.61 153.11,190.75 152.48,193.26 151.85,195.77 150.05,199.19 148.25,202.60 145.75,203.32 143.24,204.05 140.71,204.08 138.18,204.10 135.40,204.47 132.61,204.83 130.13,204.88 127.65,204.93 125.31,204.94 122.98,204.94 120.71,204.94 118.45,204.95 115.94,204.95 113.43,204.96 110.92,204.96 108.42,204.97 106.17,204.90 103.92,204.84 101.64,205.32 99.37,205.80 97.19,206.18 95.01,206.55 92.51,206.97 90.00,207.39 87.52,207.45 85.03,207.50 82.08,206.86 79.14,206.22 77.01,204.82 74.88,203.41 74.16,201.24 73.45,199.08 73.43,195.48 73.40,191.88 73.46,189.03 73.53,186.19 73.54,183.51 73.55,180.84 73.87,178.04 74.20,175.24 74.80,171.64 75.40,168.04 76.04,164.01 76.68,159.97 76.34,157.59 76.01,155.21 76.73,152.11 77.45,149.01 77.86,146.89 78.27,144.78 77.71,141.25 77.14,137.73 77.00,133.92 76.86,130.11 76.72,126.70 76.58,123.29 76.22,120.78 75.85,118.27 75.72,115.77 75.60,113.27 75.60,111.10 75.60,108.93 75.09,106.65 74.58,104.38 74.54,102.22 74.50,100.06 74.47,97.57 74.44,95.07 74.10,92.68 73.75,90.29 71.55,87.89 69.34,85.49 68.04,83.74 66.74,82.00 65.06,79.93 63.38,77.87 61.59,75.56 59.80,73.26 57.81,70.58 55.83,67.90 53.77,66.66 51.71,65.42 49.34,65.07 46.97,64.72 43.24,64.67 39.50,64.62 36.44,63.67 33.38,62.71 30.13,61.89 26.88,61.07 24.41,60.65 21.93,60.23 19.01,59.54 16.08,58.84 12.30,58.01 8.52,57.18 6.24,57.52 3.95,57.86 1.86,58.23 -0.22,58.60 -2.37,57.93 -4.52,57.26 -6.57,56.02 -8.62,54.79 -9.40,52.22 -10.18,49.65 -10.22,47.28 -10.26,44.91 -10.25,42.59 -10.25,40.27 -9.56,37.06 -8.86,33.84 -8.55,31.60 -8.23,29.35 -6.85,25.84 -5.46,22.32 -5.87,20.02 -6.27,17.71 -5.38,15.10 -4.50,12.48 -4.88,10.31 -5.26,8.13 -5.81,6.43 -6.37,4.73 -6.67,3.52 -6.98,2.30 -6.88,1.06 -6.78,-0.18 -6.28,-1.33 -5.79,-2.48 -4.96,-3.41 -4.12,-4.34 -3.04,-4.96 -1.95,-5.58 -0.72,-5.81 0.50,-6.05 1.74,-5.88 2.98,-5.72 4.10,-5.16 5.22,-4.61 6.10,-3.72 6.99,-2.84 7.55,-1.72 8.10,-0.60 8.27,0.63 8.44,1.87 8.21,3.09 7.98,4.32 7.36,5.41 6.75,6.50 5.82,7.34 4.89,8.17 3.74,8.67 2.59,9.17 1.35,9.27 0.10,9.37 -1.10,9.07 -2.32,8.77 -3.37,8.10 -4.43,7.43 -5.21,6.45 -6.00,5.48 -6.43,4.31 -6.86,3.13 -6.90,1.88 -6.93,0.63 -6.57,-0.55 -6.20,-1.75 -5.47,-2.77 -4.75,-3.78 -3.73,-4.51 -2.72,-5.24 -1.52,-5.61 -0.33,-5.98 0.91,-5.95 2.16,-5.92 3.34,-5.49 4.51,-5.06 5.49,-4.27 6.47,-3.49 7.14,-2.44 7.81,-1.39 7.81,-1.39 7.81,-1.39 8.40,1.26 9.00,3.93 9.63,7.29 10.27,10.65 10.21,13.17 10.15,15.69 9.26,18.32 8.37,20.96 8.04,23.49 7.71,26.02 7.25,28.76 6.79,31.51 6.30,34.38 5.82,37.25 5.53,39.44 5.24,41.62 4.67,43.90 4.11,46.17 1.10,44.92 -1.90,43.68 1.86,43.05 5.63,42.42 7.89,42.44 10.15,42.47 12.24,42.89 14.33,43.32 16.65,43.78 18.96,44.24 21.06,44.67 23.15,45.09 25.30,45.50 27.46,45.91 29.57,46.34 31.68,46.77 34.17,47.29 36.66,47.81 39.59,48.58 42.53,49.34 45.04,49.64 47.56,49.95 50.08,50.38 52.60,50.80 54.84,51.04 57.08,51.28 59.64,52.34 62.20,53.40 63.91,54.98 65.63,56.57 67.72,59.05 69.80,61.54 71.24,63.52 72.69,65.50 73.83,67.52 74.97,69.53 76.71,71.67 78.45,73.82 79.90,75.78 81.35,77.75 83.71,80.14 86.07,82.53 87.01,84.87 87.94,87.21 88.65,90.71 89.35,94.22 89.32,96.72 89.30,99.22 88.97,101.71 88.64,104.20 89.29,107.35 89.94,110.50 89.91,113.23 89.88,115.97 90.28,119.37 90.68,122.77 90.86,125.55 91.03,128.33 91.39,130.75 91.74,133.16 91.98,136.59 92.21,140.01 92.48,143.83 92.75,147.65 92.31,149.74 91.88,151.82 91.50,153.94 91.11,156.05 91.08,158.21 91.06,160.37 90.56,162.66 90.06,164.95 90.00,167.19 89.94,169.43 89.54,172.03 89.15,174.63 88.85,176.92 88.56,179.22 88.56,181.55 88.56,183.87 88.58,186.04 88.60,188.20 88.18,191.64 87.76,195.07 85.14,193.51 82.51,191.94 84.78,192.27 87.06,192.61 89.57,192.19 92.09,191.77 95.43,191.35 98.78,190.94 102.34,190.20 105.91,189.46 108.42,189.46 110.92,189.47 113.43,189.47 115.94,189.48 118.48,189.49 121.02,189.49 123.49,189.49 125.96,189.49 128.36,189.49 130.75,189.49 132.90,189.12 135.05,188.75 137.50,189.20 139.95,189.66 138.45,191.88 136.96,194.10 137.33,191.59 137.70,189.07 138.70,187.11 139.70,185.16 138.55,183.00 137.39,180.85 136.38,177.70 135.36,174.54 135.31,171.78 135.25,169.02 135.56,166.62 135.86,164.22 135.17,160.32 134.49,156.42 134.50,153.95 134.52,151.47 134.54,149.30 134.56,147.13 134.58,144.88 134.59,142.64 134.64,140.38 134.69,138.12 135.07,135.90 135.45,133.68 135.40,131.10 135.36,128.53 135.35,125.79 135.34,123.05 135.36,120.78 135.38,118.51 135.39,116.37 135.41,114.23 135.41,112.07 135.41,109.90 135.41,107.36 135.41,104.82 135.39,101.90 135.38,98.98 135.35,96.12 135.33,93.26 135.24,90.64 135.15,88.02 134.98,85.75 134.80,83.49 133.82,80.30 132.84,77.11 131.63,74.66 130.42,72.20 128.86,69.47 127.29,66.75 126.25,64.86 125.22,62.96 124.31,60.47 123.39,57.98 122.60,55.76 121.80,53.54 123.48,55.67 125.15,57.80 122.51,55.35 119.86,52.89 118.83,50.47 117.79,48.06 116.07,46.06 114.35,44.06 112.74,42.15 111.13,40.25 108.82,38.68 106.51,37.11 104.31,36.13 102.11,35.15 99.95,33.87 97.80,32.58 95.46,30.80 93.13,29.01 90.95,27.65 88.76,26.29 86.63,25.25 84.50,24.21 82.42,22.58 80.33,20.96 78.62,19.69 76.91,18.42 75.16,17.07 73.42,15.72 70.93,14.87 68.44,14.03 66.09,13.56 63.75,13.08 60.81,12.39 57.86,11.69 55.38,11.61 52.90,11.53 50.08,10.86 47.26,10.18 44.89,9.13 42.51,8.07 40.17,7.62 37.82,7.16 35.31,7.10 32.80,7.03 30.30,6.95 27.79,6.86 25.28,6.76 22.78,6.66 20.27,6.53 17.76,6.40 15.26,6.24 12.75,6.08 10.22,5.88 7.68,5.68 5.28,5.47 2.88,5.25 1.44,5.16 0,5.06 -0.60,4.99 -1.21,4.92 -1.78,4.70 -2.35,4.48 -2.85,4.14 -3.36,3.79 -3.76,3.33 -4.17,2.87 -4.45,2.33 -4.73,1.79 -4.88,1.20 -5.03,0.61 -5.03,-0.00 -5.03,-0.61 -4.88,-1.20 -4.73,-1.79 -4.45,-2.33 -4.17,-2.87 -3.76,-3.33 -3.36,-3.79 -2.85,-4.14 -2.35,-4.48 -1.78,-4.70 -1.21,-4.92 -0.60,-4.99 0.00,-5.06 0.00,-5.06 L 0,-5.06 Z"></path></g><g transform="translate(577.5798898363355 304.8504797493042) rotate(0 11.281732399993416 18.80288733332236)" stroke="none"><path fill="#1e1e1e" d="M 2.14,-4.81 Q 2.14,-4.81 4.31,-3.88 6.49,-2.95 9.42,-1.98 12.35,-1.02 15.43,-0.18 18.51,0.66 20.54,1.65 22.57,2.65 25.16,4.50 27.75,6.36 27.75,10.24 27.74,14.12 25.57,16.16 23.40,18.20 21.73,20.09 20.06,21.99 18.40,24.17 16.74,26.36 15.56,28.79 14.38,31.23 13.07,33.16 11.76,35.09 10.03,37.62 8.31,40.15 7.70,41.12 7.09,42.10 6.20,42.83 5.31,43.55 4.23,43.96 3.15,44.37 2.01,44.41 0.86,44.45 -0.24,44.12 -1.34,43.80 -2.28,43.13 -3.22,42.47 -3.90,41.54 -4.58,40.62 -4.93,39.52 -5.27,38.42 -5.25,37.27 -5.23,36.12 -4.85,35.04 -4.46,33.96 -3.75,33.05 -3.03,32.15 -2.07,31.52 -1.11,30.89 0.00,30.61 1.11,30.32 2.26,30.40 3.40,30.49 4.46,30.93 5.52,31.37 6.39,32.14 7.25,32.90 7.83,33.89 8.40,34.89 8.63,36.01 8.85,37.14 8.71,38.28 8.56,39.42 8.06,40.46 7.56,41.49 6.76,42.31 5.95,43.13 4.92,43.65 3.90,44.17 2.76,44.34 1.62,44.51 0.49,44.30 -0.63,44.09 -1.64,43.54 -2.64,42.98 -3.42,42.13 -4.19,41.28 -4.66,40.23 -5.12,39.18 -5.23,38.03 -5.33,36.89 -5.06,35.77 -4.79,34.65 -4.79,34.65 -4.79,34.65 -3.06,32.12 -1.32,29.60 -0.00,27.46 1.30,25.32 2.52,23.34 3.74,21.36 5.13,19.22 6.52,17.07 8.09,15.15 9.66,13.22 11.08,11.61 12.49,10.01 14.40,9.05 16.32,8.09 17.19,11.02 18.07,13.94 15.68,12.59 13.30,11.24 10.90,10.38 8.51,9.52 5.33,8.16 2.15,6.79 0.00,5.80 -2.14,4.81 -2.68,4.49 -3.23,4.16 -3.68,3.71 -4.13,3.26 -4.46,2.72 -4.79,2.18 -4.98,1.57 -5.17,0.97 -5.22,0.34 -5.26,-0.29 -5.15,-0.91 -5.03,-1.54 -4.78,-2.12 -4.52,-2.70 -4.13,-3.20 -3.74,-3.70 -3.24,-4.10 -2.74,-4.49 -2.16,-4.76 -1.59,-5.02 -0.96,-5.14 -0.34,-5.25 0.29,-5.22 0.92,-5.18 1.53,-5.00 2.14,-4.81 2.14,-4.81 L 2.14,-4.81 Z"></path></g><g transform="translate(701.2611042955323 422.6819070381207) rotate(0 -3.3427355259227625 17.13151957036098)" stroke="none"><path fill="#1e1e1e" d="M 0,5.08 Q 0,5.08 -1.44,5.17 -2.88,5.26 -5.11,5.43 -7.34,5.60 -9.07,6.97 -10.80,8.34 -11.65,10.34 -12.50,12.35 -13.12,15.11 -13.74,17.87 -13.75,20.35 -13.76,22.83 -13.10,25.50 -12.44,28.16 -9.97,27.48 -7.49,26.80 -5.18,26.80 -2.87,26.80 -0.71,26.19 1.43,25.59 3.52,23.90 5.62,22.22 6.12,19.79 6.62,17.36 6.31,14.78 6.01,12.19 4.90,9.81 3.80,7.42 1.48,7.70 -0.83,7.98 -1.74,7.84 -2.65,7.70 -3.50,7.35 -4.35,7.00 -5.09,6.46 -5.83,5.92 -6.42,5.21 -7.01,4.50 -7.42,3.68 -7.82,2.85 -8.02,1.95 -8.21,1.05 -8.18,0.13 -8.16,-0.77 -7.91,-1.66 -7.67,-2.55 -7.21,-3.35 -6.76,-4.15 -6.13,-4.82 -5.51,-5.49 -4.73,-5.99 -3.96,-6.49 -3.09,-6.79 -2.22,-7.09 -1.31,-7.18 -0.39,-7.26 -1.26,-7.19 -2.13,-7.12 -0.89,-7.16 0.33,-7.21 1.51,-6.86 2.70,-6.51 3.71,-5.80 4.72,-5.09 5.45,-4.09 6.18,-3.10 6.55,-1.92 6.93,-0.74 6.90,0.48 6.88,1.72 6.47,2.88 6.06,4.04 5.29,5.01 4.53,5.98 3.49,6.66 2.46,7.33 1.27,7.64 0.07,7.95 -1.15,7.86 -2.38,7.77 -3.52,7.30 -4.66,6.82 -5.58,6.01 -6.51,5.19 -7.13,4.12 -7.75,3.05 -7.99,1.84 -8.24,0.63 -8.08,-0.58 -7.93,-1.80 -7.39,-2.92 -6.85,-4.03 -5.99,-4.91 -5.12,-5.79 -4.02,-6.35 -2.92,-6.91 -1.70,-7.09 -0.48,-7.27 0.72,-7.04 1.94,-6.82 3.02,-6.23 4.10,-5.63 4.93,-4.72 5.76,-3.81 6.26,-2.68 6.76,-1.55 6.87,-0.32 6.99,0.90 6.70,2.10 6.41,3.30 5.76,4.35 5.11,5.39 4.15,6.17 3.20,6.96 1.18,7.47 -0.83,7.98 -1.74,7.84 -2.65,7.70 -3.50,7.35 -4.35,7.00 -5.09,6.46 -5.83,5.92 -6.42,5.21 -7.01,4.50 -7.42,3.68 -7.82,2.85 -8.02,1.95 -8.21,1.05 -8.18,0.14 -8.16,-0.77 -7.91,-1.66 -7.67,-2.55 -7.22,-3.35 -6.76,-4.15 -6.14,-4.82 -5.51,-5.49 -4.73,-5.99 -3.96,-6.49 -3.09,-6.79 -2.23,-7.09 -1.31,-7.18 -0.39,-7.26 2.18,-6.90 4.76,-6.53 7.39,-5.87 10.03,-5.20 11.82,-4.03 13.62,-2.87 15.12,-1.28 16.62,0.29 17.66,2.35 18.70,4.41 19.54,6.55 20.38,8.70 21.09,11.35 21.80,13.99 21.77,16.38 21.74,18.76 21.24,21.16 20.74,23.55 19.95,26.12 19.16,28.69 17.09,31.42 15.02,34.15 11.59,36.56 8.16,38.98 5.97,39.82 3.78,40.65 0.45,41.19 -2.87,41.72 -5.77,41.71 -8.68,41.70 -10.92,41.63 -13.17,41.56 -15.72,40.81 -18.26,40.07 -21.36,37.85 -24.45,35.62 -25.59,33.47 -26.72,31.33 -27.41,28.72 -28.09,26.12 -28.04,23.96 -27.98,21.80 -27.46,19.38 -26.94,16.96 -26.43,14.47 -25.92,11.98 -25.26,9.74 -24.59,7.50 -23.53,5.57 -22.47,3.64 -20.60,1.84 -18.72,0.04 -16.63,-1.71 -14.54,-3.46 -11.29,-4.53 -8.03,-5.60 -5.46,-5.43 -2.88,-5.26 -1.44,-5.17 0,-5.08 0.60,-5.00 1.21,-4.93 1.78,-4.71 2.36,-4.50 2.86,-4.15 3.37,-3.80 3.77,-3.34 4.18,-2.88 4.46,-2.34 4.75,-1.80 4.89,-1.20 5.04,-0.61 5.04,0.00 5.04,0.61 4.89,1.20 4.75,1.80 4.46,2.34 4.18,2.88 3.77,3.34 3.37,3.80 2.86,4.15 2.36,4.50 1.78,4.71 1.21,4.93 0.60,5.00 -0.00,5.08 -0.00,5.08 L 0,5.08 Z"></path></g><g transform="translate(612.6786128585445 651.6592905639227) rotate(0 45.544771540715374 0.41784194073989056)" stroke="none"><path fill="#1e1e1e" d="M 0,-5.36 Q 0,-5.36 1.92,-5.42 3.84,-5.48 6.99,-5.60 10.14,-5.73 12.87,-5.84 15.59,-5.95 17.80,-6.05 20.00,-6.15 23.08,-6.26 26.15,-6.38 28.98,-6.47 31.82,-6.56 34.50,-6.64 37.17,-6.72 40.08,-6.77 42.98,-6.83 45.52,-6.88 48.06,-6.94 50.32,-6.95 52.57,-6.97 55.66,-7.00 58.74,-7.03 61.33,-7.06 63.93,-7.10 66.54,-7.11 69.15,-7.12 71.55,-6.77 73.95,-6.42 76.35,-6.45 78.76,-6.48 81.27,-6.52 83.78,-6.56 87.30,-6.59 90.82,-6.61 92.01,-6.42 93.20,-6.22 94.27,-5.66 95.33,-5.09 96.16,-4.22 96.99,-3.34 97.50,-2.25 98.01,-1.15 98.14,0.04 98.27,1.23 98.01,2.41 97.75,3.59 97.13,4.62 96.50,5.66 95.58,6.44 94.67,7.22 93.54,7.67 92.42,8.11 91.22,8.18 90.02,8.24 88.85,7.92 87.69,7.60 86.69,6.92 85.69,6.24 84.96,5.28 84.23,4.32 83.85,3.18 83.46,2.04 83.46,0.83 83.47,-0.37 83.85,-1.51 84.24,-2.65 84.97,-3.61 85.70,-4.57 86.69,-5.25 87.69,-5.93 88.86,-6.25 90.02,-6.57 91.22,-6.51 92.43,-6.44 93.55,-5.99 94.67,-5.55 95.59,-4.77 96.51,-3.98 97.13,-2.95 97.75,-1.92 98.01,-0.74 98.27,0.43 98.14,1.63 98.01,2.83 97.50,3.92 96.99,5.02 96.16,5.89 95.33,6.77 94.27,7.33 93.20,7.90 92.01,8.09 90.82,8.29 90.82,8.29 90.82,8.29 86.88,8.25 82.95,8.22 80.42,8.18 77.89,8.14 75.64,8.09 73.39,8.04 71.07,7.58 68.76,7.12 66.35,7.11 63.93,7.10 61.33,7.06 58.74,7.03 55.66,7.00 52.57,6.97 50.32,6.95 48.06,6.94 45.52,6.88 42.98,6.83 40.08,6.77 37.17,6.72 34.50,6.64 31.82,6.56 28.98,6.47 26.15,6.38 23.08,6.26 20.00,6.15 17.80,6.05 15.59,5.95 12.87,5.84 10.14,5.73 6.99,5.60 3.84,5.48 1.92,5.42 0,5.36 -0.64,5.28 -1.28,5.20 -1.88,4.97 -2.49,4.74 -3.02,4.37 -3.55,4.01 -3.98,3.52 -4.41,3.04 -4.71,2.47 -5.01,1.90 -5.16,1.27 -5.32,0.64 -5.32,-0.00 -5.32,-0.64 -5.16,-1.27 -5.01,-1.90 -4.71,-2.47 -4.41,-3.04 -3.98,-3.52 -3.55,-4.01 -3.02,-4.37 -2.49,-4.74 -1.88,-4.97 -1.28,-5.20 -0.64,-5.28 0.00,-5.36 0.00,-5.36 L 0,-5.36 Z"></path></g><g transform="translate(611.007245095585 652.4949744454025) rotate(0 45.962613481455264 17.54936151110087)" stroke="none"><path fill="#1e1e1e" d="M 5.25,0 Q 5.25,0 5.30,2.16 5.35,4.32 5.50,7.14 5.64,9.95 5.80,12.45 5.97,14.95 6.13,17.80 6.29,20.65 6.40,22.93 6.52,25.20 6.63,27.74 6.73,30.28 4.69,28.43 2.64,26.58 4.92,26.48 7.21,26.38 9.67,26.38 12.12,26.38 15.26,26.36 18.40,26.34 20.58,26.33 22.77,26.32 24.91,26.32 27.04,26.31 29.33,26.65 31.62,27.00 33.90,27.03 36.19,27.06 39.16,27.05 42.14,27.05 45.07,27.04 47.99,27.03 50.68,27.02 53.36,27.00 56.77,27.60 60.18,28.20 62.60,27.94 65.02,27.69 67.21,27.67 69.41,27.65 72.21,27.63 75.00,27.60 77.22,27.59 79.44,27.58 81.61,27.56 83.78,27.54 86.29,27.52 88.80,27.50 87.11,28.92 85.42,30.33 84.86,27.85 84.30,25.36 84.31,22.90 84.33,20.44 83.97,18.18 83.62,15.92 82.90,13.79 82.17,11.66 83.19,11.88 84.21,12.11 83.35,11.23 82.48,10.34 81.95,9.23 81.41,8.12 81.25,6.89 81.10,5.67 81.35,4.46 81.59,3.25 82.21,2.18 82.83,1.11 83.76,0.30 84.69,-0.51 85.83,-0.99 86.97,-1.46 88.20,-1.55 89.43,-1.63 90.63,-1.32 91.82,-1.01 92.86,-0.34 93.89,0.33 94.65,1.30 95.41,2.27 95.83,3.44 96.24,4.60 96.26,5.83 96.28,7.07 95.91,8.25 95.53,9.42 94.80,10.42 94.07,11.41 93.06,12.12 92.05,12.83 90.86,13.18 89.68,13.53 88.44,13.48 87.21,13.44 86.05,13.00 84.90,12.56 83.95,11.78 82.99,10.99 82.34,9.94 81.68,8.90 81.40,7.69 81.11,6.49 81.23,5.26 81.34,4.03 81.84,2.90 82.34,1.77 83.18,0.86 84.01,-0.04 85.09,-0.63 86.18,-1.23 87.39,-1.45 88.61,-1.67 89.83,-1.49 91.05,-1.31 92.15,-0.74 93.25,-0.18 93.25,-0.18 93.25,-0.19 94.81,3.33 96.38,6.86 97.53,10.73 98.68,14.60 99.09,16.87 99.50,19.14 99.51,21.44 99.53,23.75 99.53,25.99 99.54,28.22 99.51,31.01 99.48,33.79 98.69,36.34 97.90,38.89 95.84,40.17 93.79,41.46 90.46,42.07 87.12,42.68 84.61,42.66 82.10,42.64 79.56,42.62 77.02,42.60 74.78,42.58 72.55,42.57 69.77,42.55 67.00,42.52 64.86,42.50 62.72,42.48 60.34,42.40 57.96,42.32 55.02,41.91 52.08,41.49 49.15,41.49 46.23,41.48 43.28,41.46 40.34,41.45 38.21,41.44 36.07,41.43 33.19,41.33 30.30,41.22 26.53,40.87 22.77,40.52 20.58,40.51 18.40,40.51 15.26,40.48 12.12,40.46 8.87,40.45 5.62,40.43 3.49,40.35 1.36,40.27 -1.00,39.53 -3.37,38.78 -4.54,36.91 -5.71,35.03 -6.22,32.66 -6.73,30.28 -6.63,27.74 -6.52,25.20 -6.40,22.93 -6.29,20.65 -6.13,17.80 -5.97,14.95 -5.80,12.45 -5.64,9.95 -5.50,7.14 -5.35,4.32 -5.30,2.16 -5.25,0 -5.17,-0.62 -5.10,-1.25 -4.87,-1.85 -4.65,-2.44 -4.29,-2.96 -3.93,-3.48 -3.45,-3.90 -2.98,-4.32 -2.42,-4.61 -1.86,-4.91 -1.24,-5.06 -0.63,-5.21 0.00,-5.21 0.63,-5.21 1.24,-5.06 1.86,-4.91 2.42,-4.61 2.98,-4.32 3.45,-3.90 3.93,-3.48 4.29,-2.96 4.65,-2.44 4.87,-1.84 5.10,-1.25 5.17,-0.62 5.25,0.00 5.25,0.00 L 5.25,0 Z"></path></g><g transform="translate(633.5707098955681 706.8144267416683) rotate(0 30.502461674057486 5.849787170369382)" stroke="none"><path fill="#1e1e1e" d="M 0,-5.34 Q 0,-5.34 2.40,-5.36 4.80,-5.38 8.24,-5.51 11.69,-5.64 14.46,-5.76 17.24,-5.88 19.80,-5.98 22.36,-6.08 24.92,-6.20 27.48,-6.32 29.72,-6.44 31.96,-6.56 34.30,-6.66 36.63,-6.76 38.95,-7.22 41.28,-7.69 43.41,-7.76 45.53,-7.83 47.66,-8.31 49.79,-8.79 52.16,-8.86 54.52,-8.92 57.03,-8.97 59.55,-9.01 62.42,-8.43 65.30,-7.85 67.31,-6.60 69.32,-5.35 70.09,-2.85 70.87,-0.35 70.45,2.26 70.03,4.88 69.37,7.31 68.71,9.74 67.04,13.34 65.37,16.93 62.02,18.87 58.66,20.81 55.90,20.82 53.13,20.84 50.59,20.84 48.04,20.85 45.14,20.84 42.24,20.83 39.86,20.84 37.47,20.86 34.93,20.87 32.38,20.89 29.87,20.92 27.35,20.94 24.85,20.96 22.34,20.98 19.91,20.99 17.48,21.00 15.31,21.01 13.15,21.02 9.19,20.29 5.22,19.57 2.92,19.27 0.61,18.96 -2.47,17.04 -5.56,15.12 -6.33,12.91 -7.10,10.71 -8.18,8.68 -9.25,6.64 -8.53,2.59 -7.81,-1.45 -7.10,-2.46 -6.39,-3.48 -5.39,-4.21 -4.39,-4.95 -3.20,-5.33 -2.02,-5.70 -0.78,-5.68 0.45,-5.66 1.62,-5.25 2.79,-4.83 3.77,-4.06 4.74,-3.30 5.42,-2.26 6.10,-1.22 6.41,-0.02 6.73,1.17 6.64,2.41 6.55,3.65 6.07,4.80 5.59,5.94 4.78,6.87 3.96,7.81 2.88,8.43 1.81,9.05 0.59,9.30 -0.61,9.54 -1.85,9.39 -3.08,9.24 -4.20,8.70 -5.31,8.16 -6.20,7.29 -7.09,6.42 -7.65,5.31 -8.21,4.21 -8.39,2.98 -8.58,1.75 -8.35,0.53 -8.13,-0.68 -7.53,-1.77 -6.93,-2.86 -6.02,-3.70 -5.10,-4.53 -3.97,-5.04 -2.83,-5.54 -1.60,-5.65 -0.36,-5.77 0.84,-5.48 2.04,-5.19 3.10,-4.53 4.15,-3.88 4.94,-2.92 5.73,-1.96 6.17,-0.80 6.61,0.35 6.65,1.59 6.70,2.83 6.35,4.02 6.00,5.21 6.00,5.21 6.00,5.21 6.03,4.85 6.06,4.48 4.70,2.77 3.34,1.06 5.72,3.01 8.09,4.96 10.62,5.33 13.15,5.71 15.31,5.72 17.48,5.74 19.91,5.75 22.34,5.76 24.85,5.77 27.35,5.79 29.87,5.82 32.38,5.84 34.93,5.86 37.47,5.88 39.86,5.89 42.24,5.91 45.13,5.89 48.02,5.88 50.51,5.87 53.00,5.86 55.22,5.79 57.44,5.73 55.31,7.67 53.18,9.61 53.95,7.35 54.71,5.08 55.43,3.08 56.15,1.08 57.85,3.37 59.55,5.67 57.04,5.62 54.53,5.58 52.17,5.35 49.81,5.12 46.72,5.34 43.64,5.55 40.13,6.15 36.63,6.76 34.30,6.66 31.96,6.56 29.72,6.44 27.48,6.32 24.92,6.20 22.36,6.08 19.80,5.98 17.24,5.88 14.46,5.76 11.69,5.64 8.24,5.51 4.80,5.38 2.40,5.36 0,5.34 -0.63,5.26 -1.27,5.18 -1.88,4.95 -2.48,4.73 -3.01,4.36 -3.54,3.99 -3.96,3.51 -4.39,3.03 -4.69,2.46 -4.99,1.89 -5.14,1.26 -5.30,0.64 -5.30,-0.00 -5.30,-0.64 -5.14,-1.26 -4.99,-1.89 -4.69,-2.46 -4.39,-3.03 -3.96,-3.51 -3.54,-3.99 -3.01,-4.36 -2.48,-4.73 -1.88,-4.95 -1.27,-5.18 -0.63,-5.26 0.00,-5.34 0.00,-5.34 L 0,-5.34 Z"></path></g><g transform="translate(389.55101650310826 548.034489260277) rotate(0 5.014103288885963 9.192522696292144)" stroke="none"><path fill="#1e1e1e" d="M 1.87,4.69 Q 1.87,4.69 0.75,5.23 -0.37,5.78 -0.70,9.09 -1.04,12.41 0.96,13.95 2.97,15.49 5.34,15.07 7.70,14.65 8.51,12.64 9.33,10.63 9.31,8.22 9.30,5.80 8.54,3.80 7.78,1.81 9.28,3.36 10.79,4.91 8.61,4.57 6.43,4.24 6.83,3.55 7.22,2.86 6.37,3.74 5.53,4.63 4.44,5.20 3.35,5.77 2.14,5.96 0.93,6.15 -0.27,5.95 -1.48,5.74 -2.56,5.17 -3.64,4.59 -4.48,3.69 -5.31,2.80 -5.82,1.68 -6.33,0.57 -6.46,-0.64 -6.59,-1.86 -6.32,-3.06 -6.05,-4.25 -5.41,-5.30 -4.77,-6.35 -3.84,-7.14 -2.90,-7.93 -1.76,-8.38 -0.62,-8.82 0.60,-8.89 1.82,-8.95 3.00,-8.61 4.18,-8.28 5.19,-7.59 6.21,-6.89 6.94,-5.91 7.68,-4.93 8.07,-3.77 8.45,-2.61 8.45,-1.38 8.44,-0.15 8.04,1.00 7.65,2.16 6.90,3.13 6.15,4.10 5.13,4.78 4.12,5.47 2.93,5.79 1.75,6.11 0.53,6.04 -0.69,5.97 -1.82,5.51 -2.96,5.05 -3.89,4.25 -4.82,3.45 -5.45,2.40 -6.08,1.34 -6.33,0.15 -6.59,-1.04 -6.45,-2.26 -6.31,-3.48 -5.79,-4.59 -5.27,-5.70 -5.27,-5.70 -5.27,-5.70 -0.23,-8.32 4.80,-10.94 7.07,-10.90 9.34,-10.86 11.51,-10.31 13.68,-9.75 16.02,-8.40 18.36,-7.05 20.11,-4.26 21.85,-1.47 22.99,2.01 24.12,5.50 24.11,8.08 24.09,10.65 23.99,13.16 23.90,15.68 23.05,18.39 22.20,21.11 20.32,23.36 18.44,25.62 16.02,26.83 13.59,28.04 10.64,28.42 7.68,28.80 5.27,28.73 2.86,28.66 0.12,28.07 -2.61,27.49 -4.62,26.72 -6.63,25.95 -8.59,23.95 -10.54,21.96 -11.86,19.02 -13.17,16.09 -13.04,13.86 -12.90,11.63 -12.33,9.53 -11.76,7.43 -11.07,5.29 -10.38,3.15 -9.28,0.99 -8.18,-1.16 -6.31,-2.51 -4.43,-3.85 -3.15,-4.27 -1.87,-4.69 -1.28,-4.85 -0.70,-5.00 -0.09,-5.02 0.51,-5.03 1.11,-4.89 1.70,-4.76 2.25,-4.48 2.79,-4.21 3.26,-3.81 3.72,-3.42 4.08,-2.92 4.43,-2.43 4.66,-1.86 4.88,-1.29 4.97,-0.69 5.05,-0.09 4.99,0.51 4.93,1.12 4.72,1.69 4.52,2.26 4.18,2.77 3.84,3.28 3.39,3.69 2.94,4.11 2.41,4.40 1.87,4.69 1.87,4.69 L 1.87,4.69 Z"></path></g><g transform="translate(707.9465753473778 738.5704142379436) rotate(0 17.54936151110087 0.41784194073989056)" stroke="none"><path fill="#1e1e1e" d="M 0,-5.28 Q 0,-5.28 2.64,-5.28 5.28,-5.28 9.21,-5.40 13.14,-5.51 15.61,-5.51 18.08,-5.52 20.98,-5.65 23.88,-5.78 26.89,-5.57 29.90,-5.36 32.39,-5.36 34.87,-5.36 35.86,-5.19 36.85,-5.02 37.73,-4.55 38.61,-4.07 39.30,-3.34 39.98,-2.60 40.39,-1.69 40.81,-0.77 40.91,0.21 41.01,1.21 40.79,2.19 40.56,3.17 40.04,4.02 39.52,4.88 38.75,5.52 37.98,6.17 37.04,6.53 36.11,6.89 35.10,6.94 34.10,6.99 33.14,6.71 32.17,6.44 31.35,5.87 30.52,5.30 29.92,4.49 29.32,3.69 29.01,2.74 28.69,1.78 28.70,0.78 28.71,-0.21 29.04,-1.16 29.37,-2.11 29.98,-2.90 30.59,-3.70 31.43,-4.25 32.26,-4.81 33.23,-5.07 34.20,-5.33 35.20,-5.27 36.20,-5.21 37.13,-4.83 38.06,-4.45 38.82,-3.79 39.58,-3.14 40.09,-2.27 40.60,-1.41 40.81,-0.43 41.02,0.54 40.90,1.54 40.78,2.53 40.35,3.44 39.93,4.35 39.23,5.07 38.53,5.79 37.64,6.26 36.75,6.72 35.76,6.87 34.77,7.03 34.77,7.03 34.77,7.03 32.25,6.88 29.72,6.74 26.80,6.26 23.88,5.78 20.98,5.65 18.08,5.52 15.61,5.51 13.14,5.51 9.21,5.40 5.28,5.28 2.64,5.28 0,5.28 -0.63,5.20 -1.26,5.13 -1.85,4.90 -2.45,4.67 -2.97,4.31 -3.50,3.95 -3.92,3.47 -4.34,3.00 -4.64,2.43 -4.94,1.87 -5.09,1.25 -5.24,0.63 -5.24,-0.00 -5.24,-0.63 -5.09,-1.25 -4.94,-1.87 -4.64,-2.43 -4.34,-3.00 -3.92,-3.47 -3.50,-3.95 -2.97,-4.31 -2.45,-4.67 -1.85,-4.90 -1.26,-5.13 -0.63,-5.20 0.00,-5.28 0.00,-5.28 L 0,-5.28 Z"></path></g><g transform="translate(662.8196457474041 761.9695629194212) rotate(0 38.02361660738461 0)" stroke="none"><path fill="#1e1e1e" d="M 0,-5.23 Q 0,-5.23 2.40,-5.26 4.80,-5.29 8.59,-5.42 12.37,-5.54 16.38,-5.62 20.38,-5.70 22.69,-5.70 25.00,-5.70 27.18,-5.72 29.36,-5.74 31.49,-5.76 33.62,-5.77 37.24,-5.85 40.86,-5.92 44.25,-5.99 47.64,-6.06 50.75,-6.12 53.87,-6.19 56.24,-6.26 58.62,-6.34 60.76,-6.40 62.90,-6.47 65.50,-6.55 68.11,-6.64 71.94,-6.73 75.78,-6.81 76.87,-6.63 77.96,-6.46 78.93,-5.94 79.91,-5.42 80.66,-4.62 81.42,-3.82 81.89,-2.82 82.35,-1.82 82.47,-0.72 82.59,0.36 82.35,1.44 82.11,2.52 81.54,3.46 80.98,4.41 80.14,5.12 79.29,5.84 78.27,6.25 77.24,6.65 76.14,6.71 75.04,6.77 73.98,6.48 72.92,6.18 72.00,5.56 71.09,4.94 70.42,4.07 69.75,3.19 69.40,2.14 69.05,1.10 69.05,-0.00 69.05,-1.10 69.40,-2.14 69.76,-3.19 70.42,-4.07 71.09,-4.95 72.00,-5.56 72.92,-6.18 73.98,-6.48 75.04,-6.77 76.15,-6.71 77.25,-6.65 78.27,-6.25 79.30,-5.84 80.14,-5.12 80.98,-4.41 81.55,-3.46 82.11,-2.52 82.35,-1.44 82.59,-0.36 82.47,0.72 82.35,1.82 81.89,2.82 81.42,3.82 80.66,4.62 79.90,5.42 78.93,5.94 77.95,6.46 76.87,6.64 75.78,6.81 75.78,6.81 75.78,6.81 71.94,6.73 68.11,6.64 65.50,6.55 62.90,6.47 60.76,6.40 58.62,6.34 56.24,6.26 53.87,6.19 50.75,6.12 47.64,6.06 44.25,5.99 40.86,5.92 37.24,5.85 33.62,5.77 31.49,5.76 29.36,5.74 27.18,5.72 25.00,5.70 22.69,5.70 20.38,5.70 16.38,5.62 12.37,5.54 8.59,5.42 4.80,5.29 2.40,5.26 0,5.23 -0.62,5.15 -1.25,5.08 -1.84,4.85 -2.43,4.63 -2.95,4.27 -3.47,3.91 -3.88,3.44 -4.30,2.97 -4.60,2.41 -4.89,1.85 -5.04,1.24 -5.19,0.63 -5.19,-0.00 -5.19,-0.63 -5.04,-1.24 -4.89,-1.85 -4.60,-2.41 -4.30,-2.97 -3.88,-3.44 -3.47,-3.91 -2.95,-4.27 -2.43,-4.63 -1.84,-4.85 -1.25,-5.08 -0.62,-5.15 0.00,-5.23 0.00,-5.23 L 0,-5.23 Z"></path></g><g stroke-linecap="round"><g transform="translate(179.61441769898738 792.0184678771329) rotate(319.17529832396315 136.101940542776 -64.1634166171898)" fill-rule="evenodd"><path d="M-26.05 13.13 C-26.05 13.13, -26.05 13.13, -26.05 13.13 M-26.05 13.13 C-26.05 13.13, -26.05 13.13, -26.05 13.13 M-29.66 42.19 C-24.03 33.94, -15.02 25.04, 4.5 2.84 M-28.31 39.42 C-19.38 29.43, -11.15 18.98, 4.08 2.46 M-12.26 47.78 C5.91 24.18, 27.47 1.68, 41.2 -12.33 M-12.73 46.49 C6.44 25.43, 26.49 2.79, 39.79 -14.69 M22.75 30.17 C37.06 16.38, 49.99 -0.9, 59.1 -12.41 M20.81 32.3 C31.92 19.66, 44.71 7.03, 61.43 -12.79 M59.81 10.22 C77.04 -8.81, 93.42 -27.16, 108.66 -43.48 M60.36 10.89 C72.68 -1.76, 84.09 -16.14, 108.6 -44.8 M92.44 2.6 C106.97 -17.39, 124.52 -35.79, 150.83 -67.78 M90.91 1.17 C107.42 -18.87, 124.33 -38.24, 149.95 -67.3 M227.44 -156.74 C230.33 -157.61, 231.75 -161.58, 236.02 -167.72 M226.51 -155.4 C230.54 -159.52, 234.83 -165.21, 237.36 -168.06 M128.87 -21.28 C179.56 -77.25, 230.03 -131.53, 258.16 -169.88 M128.73 -19.59 C178.2 -75.34, 226.37 -130.19, 259.42 -170.06 M169.64 -41.72 C193.19 -68.19, 218.02 -96.89, 254.2 -138.94 M168.14 -41.1 C199.8 -77.16, 230.93 -113.45, 255.09 -138.25 M258.22 -145.94 C264.25 -148.7, 269.33 -156.09, 274.06 -161.54 M258.34 -144.85 C262.94 -149.81, 267.73 -153.75, 274.72 -163.85 M213.64 -64.77 C228.2 -83.38, 241.83 -100.17, 260.5 -119.45 M211.79 -65.98 C223.33 -78.21, 234.48 -89.84, 259.77 -118.67 M285.11 -149.44 C287.1 -153.71, 289.69 -155.89, 294.06 -158.78 M284.91 -150.17 C286.4 -152.07, 288.34 -153.3, 292.73 -158.42 M235.86 -69.36 C247.08 -83.85, 256.71 -93.55, 267.63 -104.74 M236.87 -69.43 C245.16 -78.36, 253.2 -87.66, 264.69 -103.68 M254.94 -67.96 C260.61 -71.94, 263.2 -75.54, 268.15 -82.02 M256.35 -66.79 C259.38 -72.23, 264.6 -76.79, 267.78 -82.5 M268.8 -83.42 C277.72 -93.63, 289.79 -104.41, 292.56 -108.99 M267.66 -81.2 C277.18 -92.05, 284.72 -100.16, 293.61 -109.79" stroke="#ffc9c9" stroke-width="2" fill="none"></path><path d="M-0.04 -1.8 C14.52 -8.16, 31.56 -17.05, 48.38 -22.09 M-0.89 0.2 C19.08 -9.96, 37.2 -17.57, 48.71 -23.68 M46.94 -23.15 C67.85 -33.42, 86.37 -39.73, 102.29 -48.6 M49.22 -24.41 C68.83 -32.17, 87.5 -43.4, 102.39 -50.61 M100.85 -50.03 C116.42 -56.57, 129.22 -60.71, 146.68 -69.44 M103.68 -50.15 C118.78 -57, 134.78 -64.65, 146.93 -69.7 M146.72 -68.13 C154.79 -75.59, 162.88 -78.33, 180.37 -86.84 M146.27 -69.36 C152.75 -73.44, 159.19 -75.66, 179.19 -85.57 M177.19 -85.92 C182.52 -88.66, 184.27 -89.64, 193.58 -93.05 M179.49 -85.77 C182.96 -87.19, 187.44 -90.66, 192.06 -93.88 M193.05 -92.52 C198.12 -99.2, 201.91 -106.32, 205.69 -113.08 M193.34 -93.87 C195.62 -97.08, 197.93 -101.26, 206.15 -110.7 M207.51 -111.31 C207.08 -117.33, 210.29 -124.57, 210.61 -132.83 M206.08 -112.46 C206.45 -115.99, 207.67 -120.05, 212.14 -134.28 M210.26 -132.27 C214.66 -141.78, 219.64 -149.55, 223.05 -157.69 M211.02 -134.24 C213.08 -138.91, 215.75 -143.4, 223.36 -159.24 M221.46 -159.28 C223.16 -160.11, 227.67 -162.36, 234.45 -170.45 M223.19 -159.03 C225.16 -161.66, 228.8 -165.79, 233.24 -170.99 M232.3 -171.35 C235.46 -171.09, 238 -171.74, 241.89 -173.45 M233.21 -170.81 C236.63 -171.4, 239.19 -172.58, 243 -172.91 M242.24 -174.42 C246.92 -172.23, 252.06 -173.55, 256.79 -172.18 M242.37 -173.52 C246.42 -173.49, 249.31 -173.01, 255.29 -173.08 M255.59 -173.18 C257.47 -172.55, 261.13 -172.85, 265.13 -171.95 M256 -173.02 C257.47 -172.76, 259.23 -172.7, 265.45 -172.79 M266.34 -172.14 C270.9 -169.34, 276.85 -168.29, 280.81 -169.93 M264.57 -172.67 C271.6 -170.91, 277.22 -170.42, 281.06 -168.14 M279.94 -169.05 C286.69 -167.13, 287.06 -161.41, 295.78 -156 M281.57 -168.34 C286.61 -165.42, 290.03 -160.66, 294.48 -155.53 M295.7 -154.84 C283.45 -154.6, 275.51 -152.46, 255.03 -147.85 M294.61 -156.89 C286.76 -155.32, 278.28 -152.12, 255.13 -147.71 M254.7 -148.37 C254.47 -146.92, 253.31 -144.82, 252.24 -140.42 M255.14 -148.43 C254 -146.21, 253.8 -144.59, 252.07 -140.92 M250.95 -139.56 C254.26 -131.3, 256.16 -122.22, 260.55 -109.73 M252.55 -140.26 C254.31 -132.08, 256.4 -126.18, 259.99 -108.55 M258.89 -109.21 C268.89 -109.31, 281.23 -112.41, 305.1 -121.57 M258.96 -107.79 C270.02 -112.22, 279.1 -114.17, 304.78 -121.39 M304.72 -120.48 C304.66 -118.96, 304.24 -118.31, 303.06 -115.59 M304.93 -120.49 C304.69 -119.44, 304.06 -117.98, 303.37 -115.5 M302.7 -116.22 C302.56 -113.55, 301.59 -112.16, 299.24 -109.82 M303.52 -115.53 C302.22 -114.07, 301.71 -113.18, 299.11 -109.55 M300.26 -109.59 C296.58 -106.1, 295.71 -104.78, 293.99 -101.54 M299.35 -109.1 C297.87 -107.28, 296.43 -105.33, 293.47 -101.94 M293.34 -101.41 C292 -100.61, 291.33 -99.12, 289.29 -96.31 M293.95 -102.25 C292.47 -100.82, 291.54 -99.38, 288.8 -96.11 M288.08 -96.76 C287.16 -94.25, 283.82 -90.39, 281.39 -89.11 M288.67 -96.77 C286.05 -93.82, 283.88 -91.47, 281.61 -89.4 M280.86 -89.06 C279.59 -88.26, 277.1 -87.82, 274.75 -86.42 M281.34 -88.89 C280.08 -88.39, 278.58 -87.93, 274.22 -86.32 M274.51 -86.05 C272.21 -85.14, 270.05 -85.48, 266.25 -82.83 M274.02 -86.59 C272.36 -85.85, 269.73 -84.99, 267.24 -82.96 M267.97 -84.36 C266.61 -80.92, 268.31 -76.07, 269.98 -68.77 M266.83 -83.35 C267.15 -79.88, 267.92 -75.58, 268.42 -69.46 M270.28 -69.79 C261.99 -70.69, 256.43 -71.61, 249.99 -71.06 M268.42 -70.38 C263.38 -70.27, 259.49 -70.44, 250.15 -72.35 M250.22 -73.95 C245.87 -73.9, 243.3 -73.11, 234.9 -71.25 M249.38 -73.29 C246.1 -72.19, 241.56 -72.05, 235.69 -71.03 M236.93 -70.55 C228.4 -68.2, 225.01 -67.82, 210.1 -67.91 M235.49 -71.58 C229.84 -70.21, 222.96 -69.1, 211.29 -66.35 M211.14 -65.31 C201.82 -62.93, 193.82 -59.21, 186.25 -57.88 M210.3 -66.05 C204.96 -64.31, 198.96 -60.94, 188.32 -55.78 M188.38 -58.12 C150.97 -35.88, 110.54 -17.33, 83.97 -2.96 M187 -57.49 C160.68 -42.68, 135.1 -29.32, 85.8 -2.83 M84.94 -3.2 C64.94 8.37, 47.78 17.84, 19.94 31.68 M85.3 -3.73 C60.82 9.64, 35.53 24.08, 20.71 32.48 M22.94 31.87 C12.62 33.87, 6.86 38.46, -2.09 44.69 M21.94 31.9 C13.9 35.59, 7.42 39.48, -1.17 43.17 M-1.96 44.8 C-4.61 44.41, -12.25 44.23, -13.82 44.51 M-0.58 44.02 C-5.91 44.75, -9.94 44.93, -13.98 45.37 M-13.78 46.1 C-19.56 43.93, -22.08 44.69, -26.47 43.72 M-14.3 45.66 C-16.58 45.57, -19.53 44.87, -25.42 44.38 M-26.08 44.58 C-27.21 42.57, -27.76 41.4, -30.16 38.18 M-26.01 44.34 C-27.61 42.51, -28.77 40.73, -30.06 39.12 M-29.37 39.7 C-30.26 36.69, -29.59 35.13, -32.08 26.42 M-30.1 38.95 C-30.09 35.24, -30.14 32.87, -31.73 27.13 M-32.9 25.81 C-29.57 22.62, -29.86 21.3, -24.63 14.06 M-31.63 26.56 C-30.15 23.52, -28.52 19.19, -26.07 13.26 M-25.87 13.3 C-22.8 10.77, -21.78 8.74, -12.25 5.41 M-25.43 13.02 C-22.26 12.12, -20.42 10.7, -12.52 6.8 M-13.1 6.92 C-7.75 3.56, -3 1.76, 1.23 0.71 M-13.25 5.94 C-10.05 4.85, -7.39 2.94, -0.68 0.71 M0 0 C0 0, 0 0, 0 0 M0 0 C0 0, 0 0, 0 0" stroke="#f08c00" stroke-width="4" fill="none"></path></g></g><mask></mask><g stroke-linecap="round" transform="translate(248.46259456996268 877.8161032994867) rotate(319.17529832396315 14.564272700114088 14.564272700114088)"><path d="M2.61 6.24 C2.61 6.24, 2.61 6.24, 2.61 6.24 M2.61 6.24 C2.61 6.24, 2.61 6.24, 2.61 6.24 M4.37 29.01 C12.35 21.27, 18.29 14.88, 22.56 5.21 M5.95 27.18 C12.55 20.65, 17.25 12.78, 25.08 4.99 M3.35 25.11 C3.35 25.11, 3.35 25.11, 3.35 25.11 M3.35 25.11 C3.35 25.11, 3.35 25.11, 3.35 25.11 M26.46 23.51 C18.02 17.1, 10.11 9.82, 5.57 3.66 M25.68 23.8 C16.74 16.57, 9.67 9.26, 3.44 3.91" stroke="#000" stroke-width="2" fill="none"></path><path d="M10.9 0.02 C13.74 -0.76, 17.52 0.65, 20.36 2.09 C23.2 3.53, 26.66 5.9, 27.95 8.64 C29.24 11.37, 29.2 15.47, 28.11 18.49 C27.02 21.52, 24.05 24.95, 21.43 26.77 C18.8 28.58, 15.33 29.64, 12.34 29.38 C9.34 29.12, 5.67 27.62, 3.46 25.2 C1.24 22.78, -0.83 18.04, -0.96 14.87 C-1.09 11.69, 0.18 8.62, 2.69 6.15 C5.2 3.67, 11.94 0.87, 14.09 0.02 C16.25 -0.82, 15.54 0.92, 15.6 1.1 M13.84 -0.3 C16.94 -0.58, 20.66 0.83, 22.87 2.84 C25.09 4.84, 26.26 8.86, 27.14 11.72 C28.03 14.57, 29.02 17.54, 28.18 19.95 C27.34 22.36, 24.8 24.56, 22.13 26.18 C19.45 27.79, 15.58 30.3, 12.15 29.66 C8.71 29.02, 3.37 25.2, 1.5 22.33 C-0.36 19.46, 0.62 15.36, 0.95 12.44 C1.27 9.52, 1.25 6.69, 3.46 4.82 C5.66 2.95, 12.72 1.74, 14.19 1.22 C15.66 0.7, 12.44 1.67, 12.25 1.7" stroke="#f08c00" stroke-width="4" fill="none"></path></g><g stroke-linecap="round" transform="translate(350.55592968636483 623.6800203718667) rotate(306.47571383436906 16.182525222347977 14.968835830672106)"><path d="M0 0 C0 0, 0 0, 0 0 M0 0 C0 0, 0 0, 0 0 M0.3 23.05 C8.77 13.82, 16.53 8.59, 22.93 1.42 M-0.34 23.51 C7.76 15.09, 15.17 6.26, 20.83 -0.17 M9.31 37.16 C20.01 26.95, 31.02 15.45, 36.69 4.65 M8.82 39.2 C17.86 29.04, 25.25 20.45, 38.91 5.67 M0.27 30.17 C0.27 30.17, 0.27 30.17, 0.27 30.17 M0.27 30.17 C0.27 30.17, 0.27 30.17, 0.27 30.17 M24.63 29.81 C17.41 23.46, 11.77 17.89, -0.63 9.7 M24 29.48 C17.58 24.82, 11.68 20.51, 0.36 8.18 M40.99 19.79 C30.7 13.62, 22.19 6.98, 6.76 -7.51 M39.95 22.24 C31.64 15.24, 26.15 8.97, 7.07 -7.32" stroke="#000" stroke-width="2" fill="none"></path><path d="M1.12 -0.85 C9.82 -0.06, 22.33 -0.79, 30.86 -1.89 M-0.72 -0.14 C12.42 -0.66, 25.67 0.39, 31.4 -0.09 M31.82 -1.35 C32.78 8.8, 33.44 15.38, 33 29.74 M33.13 -0.42 C32.81 9.09, 31.95 18.53, 33.29 29.22 M31.18 28.76 C22.56 29.97, 11.67 31.06, -1.12 29.18 M32.04 29.31 C25.47 29.27, 17.18 30.51, -0.13 30.32 M1.39 30.15 C-1.55 21.85, -0.38 11.95, -0.65 0.68 M-0.91 30.33 C0.19 22.95, -0.45 17.2, -0.09 0.56" stroke="#f08c00" stroke-width="4" fill="none"></path></g><g stroke-linecap="round" transform="translate(227.6634361950164 74.99983014251848) rotate(0 21.56239025805189 57.826410237503296)"><path d="M0 0 C0 0, 0 0, 0 0 M0 0 C0 0, 0 0, 0 0 M-1.72 24.35 C6.55 18.42, 10.91 13.71, 19.3 -1 M1.19 24.04 C7.93 15.55, 15.02 5.73, 21.04 -0.92 M-0.88 47.74 C10.49 38.04, 19.77 28.82, 42.24 -0.78 M-0.22 48.41 C13.31 32.64, 29.21 16.15, 41.59 -1 M-1.45 72.48 C20.55 49.42, 41.3 25.59, 53.24 9.44 M-0.15 72.87 C10.48 59.72, 22.12 46.97, 53.94 10.02 M0.66 96.22 C21.64 74.7, 42.01 49.36, 56.29 34.02 M-0.56 98.73 C15.28 81.18, 29.69 66.2, 54.26 35.29 M2.24 118.44 C19.33 101.5, 31.72 85.28, 53.68 60.27 M2.64 117.63 C19.67 99.86, 35.52 79.82, 53.79 60.15 M23.76 116.88 C31.11 108.75, 37.78 103.34, 54.16 81.94 M25.05 117.66 C31.87 110.62, 40.09 102.14, 55.36 83.13 M0.09 115.73 C0.09 115.73, 0.09 115.73, 0.09 115.73 M0.09 115.73 C0.09 115.73, 0.09 115.73, 0.09 115.73 M24.56 117.24 C13.66 107.87, 5.97 102.09, 0.7 94.87 M24.92 115.84 C15.93 108.48, 9.1 102.26, -0.61 93.55 M46.33 112.51 C31.16 103.73, 22.59 92.93, -0.37 74.11 M45.35 113.46 C32.57 101.46, 20 90.6, 0.04 73.08 M45.03 90.59 C33.15 79.86, 17.99 68.39, 0.4 50.61 M45.65 92.25 C31.6 79.59, 17.26 66.66, -1.1 52.05 M47.85 70.13 C31.38 56.76, 19.24 46.59, 0.04 30.89 M46.62 70.39 C31.87 59.74, 17.17 47.47, 0.52 30.04 M44.16 47.76 C32.79 38.1, 19.59 25.88, -1.63 10.06 M45.27 49.93 C32.55 36.7, 18 24.65, -0.43 9.81 M47.32 30.02 C30.47 13.22, 13.77 -0.93, 3.76 -6.64 M45.02 28.39 C30.61 14.04, 14.62 0.94, 5.11 -5.64 M47.22 6.34 C37.78 2.42, 33.43 -2.23, 28.89 -7.64 M46.57 7.3 C40.55 2.67, 34.45 -3.57, 30.62 -7.19" stroke="#000" stroke-width="2" fill="none"></path><path d="M1.04 0.52 C9.83 -1.43, 21.85 1.5, 43.67 -0.4 M0.35 -0.41 C15.82 -1.02, 30.58 -0.03, 42.81 0.47 M42.35 -0.79 C44.44 35.28, 42.12 68.32, 42.69 115.65 M42.91 -0.77 C43.31 43.49, 41.78 86.7, 42.28 116.54 M41.76 115.18 C32.73 116.26, 19.32 114.85, -0.7 114.97 M42.77 115.84 C30.84 115.85, 21.19 115.45, 0.79 115.3 M-0.94 114.04 C-0.75 81.18, -1.21 44.17, 0.02 0.36 M0.25 116.34 C0.48 73.63, 1.03 30.43, 0.74 0.96" stroke="#f08c00" stroke-width="4" fill="none"></path></g><g stroke-linecap="round" transform="translate(635.3886338018201 786.5587086582418) rotate(0 21.56239025805189 57.826410237503296)"><path d="M0 0 C0 0, 0 0, 0 0 M0 0 C0 0, 0 0, 0 0 M0.3 25.66 C4.04 18.82, 10.18 14.87, 20.32 -1.68 M0.53 24.09 C6.28 17.95, 11.26 9.99, 21.51 0.62 M1.26 50.4 C11.93 37.51, 18.66 24.9, 42.85 -0.12 M-0.77 48.79 C8.55 37.78, 18.88 28.28, 42.01 0.6 M1.07 72.72 C17.58 51.13, 34.4 30.36, 52.61 10.62 M0.78 72.02 C18.62 51.88, 38.77 30.03, 55.52 10.31 M-0.44 97.4 C14.01 77.74, 32.04 59.28, 54.11 33.26 M0.14 97.7 C20.03 74.3, 41.08 50.83, 54.76 33.93 M4.01 116.29 C12.93 105.93, 26.92 89.97, 52.88 58.75 M2.97 117.47 C18.74 98.96, 35.26 80.72, 54.18 59.15 M24.14 116.77 C30.3 112.95, 35.76 104.62, 55.65 81.74 M25.07 118.79 C33.09 107.42, 41.37 96.89, 54.43 84.26 M0.09 115.73 C0.09 115.73, 0.09 115.73, 0.09 115.73 M0.09 115.73 C0.09 115.73, 0.09 115.73, 0.09 115.73 M24.09 114.1 C18.09 107.08, 7 100.63, -0.77 93.27 M24.39 115.18 C16.92 108.95, 10.67 103.69, 0.51 94.06 M46.63 113.83 C30.87 103.11, 18.25 87.84, -1.36 73.82 M46.08 113.33 C27.11 97.55, 9.79 81.75, -0.69 73.23 M46.29 92.76 C33.1 82.46, 22.34 70.19, 0.27 53.72 M46.71 92.31 C36.91 83.77, 27.77 75.72, 0.63 52.33 M45.29 69.43 C33.83 60.91, 26.69 52.79, 0.91 30.63 M46.41 70.55 C36.46 62.57, 27.37 53.6, -0.07 31.58 M46.7 49.61 C29.9 36.36, 14.93 24.7, -1.14 8.05 M46.11 49.71 C27.95 34.69, 10.53 19.53, -0.53 9.71 M44.39 26.23 C36.04 19.29, 27.78 9.09, 7.72 -7.16 M45.8 28.31 C34.82 18.72, 24 9.84, 6.48 -6.9 M47.5 8.33 C38.84 2.03, 35.75 -1.77, 28.17 -8.54 M45.39 6.25 C40.76 2.48, 34.84 -2.19, 29.29 -6.36" stroke="#000" stroke-width="2" fill="none"></path><path d="M-0.16 0.23 C8.44 0.18, 19.12 0.33, 41.88 -0.2 M0.26 -0.98 C16.22 0.67, 33.37 0.43, 43.52 0.87 M43.87 -1.6 C42.55 44.21, 44.37 84.02, 43.67 117.35 M42.4 0.01 C43.89 35.44, 43.48 68.95, 43.54 116.57 M44.79 117.18 C29.66 114.55, 13.62 115.43, 1.04 116.18 M43.86 115.93 C31.94 116.33, 20.5 116.25, 0.35 115.24 M0.39 115.02 C1.86 77.21, 2.18 37.91, -0.78 -0.79 M0.79 115.43 C-1.1 78.26, -1.76 40.31, -0.21 -0.77" stroke="#f08c00" stroke-width="4" fill="none"></path></g><g stroke-linecap="round" transform="translate(10 10) rotate(0 463.1194046512137 485.82133625176357)"><path d="M32 0 M32 0 C236.64 2.62, 439.95 2.42, 894.24 0 M32 0 C211.24 -5.44, 389.97 -5.47, 894.24 0 M894.24 0 C919.2 -3.47, 926.68 14.2, 926.24 32 M894.24 0 C917.26 1.38, 928.41 12.76, 926.24 32 M926.24 32 C925.5 313.03, 924.57 589.77, 926.24 939.64 M926.24 32 C925.65 371.43, 924.86 710.51, 926.24 939.64 M926.24 939.64 C922.67 960.48, 914.45 972.75, 894.24 971.64 M926.24 939.64 C923.8 960.83, 912.2 968.59, 894.24 971.64 M894.24 971.64 C721.71 970.23, 547.89 971.09, 32 971.64 M894.24 971.64 C651.26 976.01, 408.22 975.98, 32 971.64 M32 971.64 C12.89 975.64, 3.06 959.7, 0 939.64 M32 971.64 C12.51 975.69, -0.59 965.24, 0 939.64 M0 939.64 C5.52 604.37, 3.41 266.63, 0 32 M0 939.64 C-0.53 641.61, -0.07 344.68, 0 32 M0 32 C-1.65 10.08, 8.61 1.92, 32 0 M0 32 C1.99 7.61, 9.31 -3.17, 32 0" stroke="#1e1e1e" stroke-width="4" fill="none"></path></g></svg>