<svg version="1.1" xmlns="http://www.w3.org/2000/svg" viewBox="0 0 946.2388093024274 991.6426725035271" width="1892.4776186048548" height="1983.2853450070543">
  <!-- svg-source:excalidraw -->
  
  <defs>
    <style class="style-fonts">
      @font-face {
        font-family: "Virgil";
        src: url("https://excalidraw.com/Virgil.woff2");
      }
      @font-face {
        font-family: "Cascadia";
        src: url("https://excalidraw.com/Cascadia.woff2");
      }
    </style>
    
  </defs>
  <g transform="translate(232.27749065286116 311.32617635769566) rotate(0 66.01902663700093 96.93933025179649)" stroke="none"><path fill="#1e1e1e" d="M 0,-5.22 Q 0,-5.22 2.16,-5.28 4.32,-5.33 6.69,-5.48 9.07,-5.63 11.20,-5.78 13.34,-5.94 15.49,-6.05 17.63,-6.17 19.76,-5.89 21.89,-5.61 24.39,-5.71 26.89,-5.81 30.33,-4.49 33.76,-3.18 35.86,-3.87 37.95,-4.56 40.88,-3.89 43.81,-3.22 46.77,-2.86 49.73,-2.50 53.66,-0.98 57.59,0.52 58.36,3.01 59.13,5.50 58.77,8.29 58.40,11.08 58.00,13.28 57.59,15.48 57.12,18.13 56.66,20.79 56.74,23.04 56.82,25.29 56.85,27.79 56.87,30.30 56.89,32.80 56.91,35.31 56.92,37.82 56.94,40.33 57.36,42.76 57.79,45.20 57.80,47.32 57.81,49.45 57.82,51.99 57.83,54.53 57.41,58.31 56.99,62.09 56.57,64.24 56.15,66.39 56.16,68.82 56.16,71.25 56.17,73.75 56.18,76.26 56.19,78.77 56.19,81.27 56.56,83.37 56.92,85.47 57.35,88.40 57.78,91.34 57.76,93.57 57.75,95.79 58.21,98.07 58.66,100.34 59.69,102.27 60.73,104.19 61.68,106.28 62.64,108.36 64.11,110.56 65.59,112.76 67.25,114.82 68.91,116.89 70.79,118.80 72.68,120.72 70.89,119.14 69.10,117.56 71.33,118.35 73.56,119.13 75.90,120.91 78.24,122.70 80.53,122.70 82.82,122.71 86.08,123.82 89.35,124.94 91.92,125.81 94.49,126.67 96.33,127.93 98.17,129.19 100.58,128.82 102.99,128.45 105.36,128.47 107.74,128.49 109.93,128.49 112.12,128.49 114.25,128.49 116.37,128.48 118.88,128.48 121.39,128.47 123.89,128.47 126.40,128.46 128.91,128.46 131.42,128.45 133.52,129.09 135.62,129.73 137.71,131.03 139.80,132.33 140.60,134.92 141.40,137.51 141.42,140.06 141.44,142.61 141.44,144.87 141.43,147.13 141.44,149.30 141.44,151.47 141.81,153.58 142.18,155.69 142.60,158.61 143.03,161.53 143.08,164.02 143.14,166.50 143.14,169.02 143.15,171.53 143.15,174.04 143.15,176.54 143.15,179.05 143.16,181.56 143.16,184.06 143.16,186.57 143.16,189.08 143.16,191.58 142.52,193.69 141.88,195.80 140.58,197.89 139.27,199.99 136.68,200.79 134.08,201.59 131.70,201.63 129.32,201.67 126.98,201.67 124.65,201.66 122.14,201.66 119.64,201.65 117.37,201.65 115.11,201.65 112.60,201.66 110.09,201.66 107.58,201.66 105.07,201.66 102.57,201.66 100.06,201.66 97.55,201.67 95.04,201.67 92.72,201.66 90.39,201.66 88.12,201.66 85.86,201.66 83.35,201.66 80.84,201.66 78.33,201.66 75.82,201.67 73.32,201.67 70.81,201.67 68.30,201.67 65.80,201.67 62.22,200.93 58.65,200.18 56.71,199.21 54.77,198.24 52.24,196.64 49.71,195.03 47.51,193.64 45.30,192.24 43.54,190.37 41.78,188.49 39.00,187.28 36.22,186.06 34.49,184.65 32.75,183.23 31.42,181.25 30.09,179.27 28.26,177.42 26.42,175.56 24.57,173.87 22.72,172.17 21.26,170.61 19.79,169.04 17.79,166.85 15.78,164.66 14.26,162.74 12.74,160.83 11.32,158.70 9.91,156.58 8.93,154.68 7.96,152.79 6.68,151.01 5.41,149.24 4.13,146.70 2.86,144.17 1.62,141.69 0.38,139.22 -0.54,136.93 -1.47,134.63 -2.20,132.51 -2.93,130.39 -3.94,128.44 -4.96,126.49 -5.87,124.20 -6.78,121.91 -7.25,119.52 -7.72,117.13 -7.74,114.86 -7.76,112.60 -7.76,110.27 -7.76,107.94 -7.99,105.72 -8.23,103.51 -8.77,100.95 -9.31,98.38 -9.78,96.04 -10.24,93.71 -10.66,91.62 -11.08,89.53 -11.10,87.27 -11.12,85.02 -11.11,82.62 -11.10,80.22 -11.08,77.79 -11.06,75.37 -10.33,71.22 -9.60,67.07 -9.92,64.76 -10.25,62.45 -10.24,59.88 -10.24,57.31 -10.20,55.16 -10.17,53.01 -10.16,50.86 -10.15,48.71 -10.16,46.43 -10.16,44.15 -10.16,41.37 -10.16,38.59 -10.17,36.32 -10.18,34.05 -10.19,31.54 -10.20,29.03 -10.17,26.08 -10.14,23.13 -10.14,20.65 -10.15,18.17 -10.17,15.66 -10.18,13.15 -10.19,10.64 -10.20,8.13 -9.57,6.04 -8.94,3.95 -8.42,1.66 -7.91,-0.61 -7.30,-1.69 -6.69,-2.77 -5.77,-3.59 -4.85,-4.42 -3.72,-4.91 -2.58,-5.40 -1.35,-5.50 -0.12,-5.60 1.07,-5.30 2.27,-5.00 3.32,-4.34 4.36,-3.67 5.13,-2.71 5.91,-1.75 6.33,-0.59 6.76,0.56 6.79,1.80 6.83,3.03 6.47,4.22 6.10,5.40 5.38,6.40 4.66,7.41 3.66,8.13 2.66,8.85 1.47,9.21 0.29,9.58 -0.93,9.54 -2.17,9.51 -3.33,9.08 -4.49,8.66 -5.45,7.88 -6.42,7.11 -7.08,6.07 -7.75,5.03 -8.05,3.83 -8.35,2.63 -8.25,1.40 -8.15,0.16 -7.66,-0.96 -7.17,-2.10 -6.35,-3.02 -5.52,-3.94 -4.45,-4.55 -3.37,-5.16 -2.16,-5.39 -0.94,-5.62 0.27,-5.46 1.50,-5.29 2.61,-4.74 3.71,-4.19 4.59,-3.32 5.46,-2.44 6.01,-1.34 6.56,-0.23 6.73,0.99 6.90,2.21 6.66,3.43 6.43,4.64 6.43,4.64 6.43,4.64 5.81,6.39 5.18,8.13 5.17,10.64 5.16,13.15 5.15,15.66 5.14,18.17 5.13,20.65 5.12,23.13 5.15,26.08 5.19,29.03 5.18,31.54 5.17,34.05 5.16,36.32 5.15,38.59 5.15,41.37 5.14,44.15 5.14,46.43 5.14,48.71 5.15,50.86 5.15,53.01 5.19,55.16 5.22,57.31 5.23,60.30 5.23,63.29 5.22,65.45 5.21,67.61 4.73,69.89 4.25,72.16 4.31,74.44 4.38,76.72 4.40,79.03 4.42,81.34 3.27,83.57 2.12,85.80 2.54,87.89 2.95,89.98 4.18,92.67 5.40,95.36 6.53,99.26 7.65,103.17 7.70,105.55 7.76,107.94 7.76,110.68 7.76,113.42 7.72,115.86 7.68,118.31 8.76,120.54 9.85,122.78 11.09,124.82 12.33,126.86 12.57,129.26 12.81,131.65 14.41,134.17 16.00,136.69 17.23,139.16 18.46,141.64 19.28,143.66 20.09,145.69 22.14,148.13 24.18,150.58 25.58,152.29 26.97,154.00 28.70,156.08 30.44,158.16 32.04,160.00 33.64,161.85 35.67,163.80 37.70,165.75 39.16,167.71 40.62,169.67 42.58,171.36 44.53,173.06 46.37,174.44 48.21,175.82 50.66,177.75 53.10,179.67 55.22,181.09 57.34,182.50 59.79,183.73 62.23,184.95 64.85,185.51 67.47,186.08 69.97,186.08 72.48,186.08 74.99,186.08 77.50,186.08 80.00,186.08 82.51,186.09 85.03,186.09 87.55,186.09 90.04,186.08 92.54,186.08 95.04,186.08 97.55,186.08 100.06,186.08 102.57,186.08 105.07,186.09 107.58,186.09 110.09,186.09 112.59,186.09 115.13,186.09 117.67,186.10 120.18,186.09 122.69,186.09 125.16,186.08 127.64,186.08 130.09,186.11 132.54,186.15 130.07,187.61 127.59,189.08 127.59,186.57 127.59,184.06 127.60,181.56 127.60,179.05 127.60,176.54 127.60,174.04 127.61,171.53 127.61,169.02 127.94,166.74 128.27,164.46 127.85,161.53 127.44,158.59 126.70,154.61 125.97,150.63 125.97,148.35 125.97,146.07 126.53,143.56 127.08,141.05 129.25,142.51 131.42,143.97 128.91,143.97 126.40,143.96 123.89,143.96 121.39,143.95 118.88,143.95 116.37,143.94 114.25,143.93 112.12,143.93 109.93,143.93 107.73,143.93 105.35,143.95 102.96,143.97 100.00,143.92 97.03,143.87 94.97,143.03 92.91,142.20 90.68,141.31 88.45,140.42 85.64,139.64 82.84,138.85 79.95,138.02 77.05,137.20 74.70,136.58 72.35,135.97 69.61,134.47 66.87,132.98 64.54,131.66 62.22,130.34 60.37,128.60 58.52,126.87 56.83,124.76 55.14,122.66 53.44,120.92 51.73,119.18 50.89,116.70 50.05,114.22 48.30,111.93 46.55,109.64 45.60,107.44 44.64,105.23 44.25,103.09 43.86,100.94 43.12,97.82 42.38,94.71 42.90,92.42 43.42,90.13 42.48,88.21 41.54,86.30 41.14,82.95 40.74,79.60 40.75,77.10 40.76,74.59 40.77,72.08 40.77,69.57 40.80,67.28 40.83,64.99 41.36,62.69 41.88,60.39 42.17,58.12 42.45,55.85 42.45,53.09 42.46,50.33 42.79,48.03 43.12,45.73 42.40,41.77 41.68,37.82 41.69,35.31 41.71,32.80 41.73,30.30 41.75,27.79 41.78,25.25 41.81,22.71 41.97,20.27 42.14,17.83 42.59,15.28 43.04,12.72 43.76,9.82 44.48,6.92 45.79,9.14 47.09,11.37 44.80,10.93 42.51,10.50 40.10,10.03 37.69,9.56 35.22,9.06 32.75,8.57 30.26,8.04 27.76,7.52 25.59,7.42 23.43,7.32 21.17,7.11 18.92,6.91 16.13,6.42 13.34,5.94 11.20,5.78 9.07,5.63 6.69,5.48 4.32,5.33 2.16,5.28 0,5.22 -0.62,5.15 -1.25,5.07 -1.84,4.85 -2.42,4.62 -2.94,4.27 -3.46,3.91 -3.88,3.44 -4.30,2.97 -4.59,2.41 -4.88,1.85 -5.03,1.24 -5.19,0.62 -5.19,-0.00 -5.19,-0.63 -5.03,-1.24 -4.88,-1.85 -4.59,-2.41 -4.30,-2.97 -3.88,-3.44 -3.46,-3.91 -2.94,-4.27 -2.42,-4.62 -1.84,-4.85 -1.25,-5.07 -0.62,-5.15 0.00,-5.22 0.00,-5.22 L 0,-5.22 Z"></path></g><g transform="translate(208.87834197139819 260.349459587349) rotate(0 46.798297362936864 0.41784194074170955)" stroke="none"><path fill="#1e1e1e" d="M 0,-5.23 Q 0,-5.23 2.16,-5.28 4.32,-5.33 7.48,-5.47 10.64,-5.61 13.11,-5.77 15.57,-5.94 18.12,-6.09 20.67,-6.25 22.97,-6.38 25.28,-6.51 27.79,-6.62 30.30,-6.74 32.63,-6.82 34.96,-6.91 37.22,-6.98 39.49,-7.05 41.99,-7.11 44.50,-7.18 47.24,-7.22 49.97,-7.27 52.37,-7.28 54.77,-7.30 58.06,-6.90 61.34,-6.49 63.79,-6.54 66.24,-6.58 68.55,-6.60 70.86,-6.62 73.35,-6.63 75.83,-6.65 78.33,-6.66 80.84,-6.67 83.14,-6.69 85.45,-6.71 89.39,-6.73 93.33,-6.75 94.54,-6.55 95.75,-6.35 96.84,-5.78 97.92,-5.20 98.77,-4.31 99.61,-3.42 100.13,-2.30 100.64,-1.19 100.78,0.02 100.91,1.24 100.64,2.44 100.38,3.64 99.75,4.69 99.11,5.74 98.18,6.54 97.24,7.33 96.10,7.79 94.96,8.24 93.73,8.31 92.51,8.38 91.32,8.05 90.14,7.72 89.13,7.03 88.11,6.34 87.37,5.36 86.62,4.38 86.23,3.22 85.84,2.06 85.84,0.83 85.84,-0.39 86.23,-1.55 86.62,-2.72 87.37,-3.69 88.11,-4.67 89.13,-5.36 90.14,-6.05 91.33,-6.38 92.51,-6.70 93.74,-6.64 94.96,-6.57 96.10,-6.12 97.24,-5.66 98.18,-4.87 99.11,-4.07 99.75,-3.02 100.38,-1.97 100.64,-0.77 100.91,0.42 100.77,1.64 100.64,2.86 100.13,3.98 99.61,5.09 98.77,5.98 97.92,6.87 96.84,7.45 95.75,8.02 94.54,8.22 93.33,8.42 93.33,8.42 93.33,8.42 91.06,8.41 88.80,8.41 86.27,8.39 83.75,8.36 81.58,8.35 79.42,8.34 76.91,8.33 74.41,8.31 71.96,8.30 69.51,8.29 67.00,8.26 64.49,8.23 62.11,8.10 59.73,7.97 57.25,7.63 54.77,7.30 52.37,7.28 49.97,7.27 47.24,7.22 44.50,7.18 41.99,7.11 39.49,7.05 37.22,6.98 34.96,6.91 32.63,6.82 30.30,6.74 27.79,6.62 25.28,6.51 22.97,6.38 20.67,6.25 18.12,6.09 15.57,5.94 13.11,5.77 10.64,5.61 7.48,5.47 4.32,5.33 2.16,5.28 0,5.23 -0.62,5.15 -1.25,5.08 -1.84,4.85 -2.43,4.63 -2.95,4.27 -3.47,3.91 -3.88,3.44 -4.30,2.97 -4.60,2.41 -4.89,1.85 -5.04,1.24 -5.19,0.63 -5.19,-0.00 -5.19,-0.63 -5.04,-1.24 -4.89,-1.85 -4.59,-2.41 -4.30,-2.97 -3.88,-3.44 -3.46,-3.91 -2.95,-4.27 -2.43,-4.63 -1.84,-4.85 -1.25,-5.08 -0.62,-5.15 0.00,-5.23 0.00,-5.23 L 0,-5.23 Z"></path></g><g transform="translate(206.37129032695157 262.8565112317956) rotate(0 0.41784194073989056 16.71367762962109)" stroke="none"><path fill="#1e1e1e" d="M 5.15,0 Q 5.15,0 5.22,1.92 5.30,3.84 5.49,6.36 5.69,8.88 5.86,11.15 6.03,13.42 6.17,15.79 6.31,18.17 6.43,20.47 6.56,22.77 6.67,25.28 6.78,27.79 7.24,30.32 7.71,32.85 7.58,33.96 7.45,35.07 6.97,36.08 6.50,37.09 5.72,37.89 4.95,38.69 3.96,39.21 2.97,39.72 1.87,39.90 0.76,40.07 -0.33,39.88 -1.43,39.69 -2.41,39.16 -3.39,38.63 -4.15,37.81 -4.91,37.00 -5.37,35.98 -5.83,34.96 -5.94,33.85 -6.05,32.74 -5.81,31.65 -5.56,30.57 -4.97,29.62 -4.39,28.66 -3.53,27.95 -2.68,27.23 -1.64,26.83 -0.60,26.42 0.51,26.37 1.62,26.32 2.69,26.63 3.77,26.94 4.68,27.57 5.60,28.20 6.27,29.10 6.94,29.99 7.29,31.05 7.63,32.11 7.62,33.23 7.62,34.34 7.25,35.40 6.89,36.45 6.20,37.33 5.52,38.22 4.59,38.84 3.66,39.45 2.59,39.74 1.51,40.03 0.39,39.96 -0.71,39.89 -1.74,39.47 -2.78,39.05 -3.62,38.32 -4.46,37.59 -5.03,36.63 -5.60,35.67 -5.83,34.58 -6.06,33.49 -6.06,33.49 -6.06,33.49 -5.90,33.02 -5.74,32.54 -6.26,30.17 -6.78,27.79 -6.67,25.28 -6.56,22.77 -6.43,20.47 -6.31,18.17 -6.17,15.79 -6.03,13.42 -5.86,11.15 -5.69,8.88 -5.49,6.36 -5.30,3.84 -5.22,1.92 -5.15,0 -5.08,-0.61 -5.00,-1.23 -4.78,-1.81 -4.56,-2.39 -4.21,-2.90 -3.85,-3.41 -3.39,-3.83 -2.92,-4.24 -2.37,-4.53 -1.82,-4.82 -1.22,-4.96 -0.62,-5.11 0.00,-5.11 0.62,-5.11 1.22,-4.96 1.82,-4.82 2.37,-4.53 2.92,-4.24 3.39,-3.83 3.85,-3.41 4.21,-2.90 4.56,-2.39 4.78,-1.81 5.00,-1.23 5.08,-0.61 5.15,0.00 5.15,0.00 L 5.15,0 Z"></path></g><g transform="translate(207.20697420843135 296.2838664910305) rotate(0 48.469665125898246 -13.788784044438216)" stroke="none"><path fill="#1e1e1e" d="M 0,-5.29 Q 0,-5.29 1.92,-5.35 3.84,-5.42 6.65,-5.56 9.46,-5.70 12.09,-5.85 14.71,-6.01 17.18,-6.14 19.66,-6.27 21.82,-6.37 23.98,-6.47 26.61,-6.57 29.23,-6.68 32.00,-6.76 34.77,-6.84 37.05,-6.91 39.32,-6.98 41.84,-7.04 44.35,-7.10 47.40,-6.45 50.46,-5.79 52.91,-6.15 55.37,-6.50 57.88,-6.54 60.38,-6.58 62.64,-6.55 64.90,-6.51 67.24,-7.38 69.58,-8.26 71.70,-8.67 73.83,-9.09 76.73,-9.97 79.63,-10.85 82.56,-11.28 85.50,-11.72 87.98,-11.78 90.46,-11.85 92.97,-11.86 95.48,-11.87 92.92,-10.42 90.36,-8.98 89.80,-11.59 89.24,-14.19 89.30,-16.55 89.36,-18.90 88.89,-21.18 88.41,-23.47 88.40,-25.81 88.40,-28.14 88.60,-29.37 88.80,-30.60 89.38,-31.71 89.96,-32.81 90.87,-33.66 91.77,-34.52 92.91,-35.04 94.04,-35.57 95.28,-35.70 96.51,-35.84 97.73,-35.57 98.95,-35.30 100.02,-34.66 101.08,-34.02 101.89,-33.07 102.70,-32.12 103.16,-30.96 103.62,-29.80 103.69,-28.56 103.76,-27.31 103.42,-26.11 103.09,-24.91 102.39,-23.88 101.69,-22.85 100.70,-22.09 99.71,-21.34 98.53,-20.94 97.35,-20.54 96.10,-20.54 94.85,-20.54 93.67,-20.94 92.49,-21.34 91.50,-22.09 90.51,-22.85 89.81,-23.88 89.11,-24.91 88.77,-26.11 88.44,-27.31 88.51,-28.56 88.58,-29.80 89.04,-30.96 89.50,-32.12 90.30,-33.07 91.11,-34.02 92.18,-34.66 93.25,-35.30 94.46,-35.57 95.68,-35.84 96.92,-35.70 98.16,-35.57 99.29,-35.05 100.42,-34.52 101.33,-33.66 102.23,-32.81 102.82,-31.71 103.40,-30.61 103.60,-29.38 103.80,-28.15 103.80,-28.15 103.80,-28.15 103.52,-25.98 103.24,-23.81 103.93,-19.72 104.62,-15.64 104.63,-12.86 104.64,-10.08 104.61,-7.77 104.57,-5.47 103.77,-2.90 102.98,-0.33 100.90,0.95 98.83,2.25 95.90,2.87 92.97,3.50 90.67,3.16 88.36,2.83 86.33,3.49 84.31,4.16 81.76,4.28 79.22,4.41 76.86,4.42 74.50,4.43 72.20,5.66 69.89,6.88 66.81,7.59 63.72,8.30 61.22,8.26 58.71,8.23 56.20,8.19 53.69,8.14 51.45,8.09 49.20,8.03 46.78,7.57 44.35,7.10 41.84,7.04 39.32,6.98 37.05,6.91 34.77,6.84 32.00,6.76 29.23,6.68 26.61,6.57 23.98,6.47 21.82,6.37 19.66,6.27 17.18,6.14 14.71,6.01 12.09,5.85 9.46,5.70 6.65,5.56 3.84,5.42 1.92,5.35 0,5.29 -0.63,5.21 -1.26,5.13 -1.86,4.91 -2.45,4.68 -2.98,4.32 -3.50,3.96 -3.93,3.48 -4.35,3.00 -4.65,2.44 -4.94,1.87 -5.10,1.25 -5.25,0.63 -5.25,-0.00 -5.25,-0.63 -5.10,-1.25 -4.94,-1.87 -4.65,-2.44 -4.35,-3.00 -3.93,-3.48 -3.50,-3.96 -2.98,-4.32 -2.45,-4.68 -1.86,-4.91 -1.26,-5.13 -0.63,-5.21 0.00,-5.29 0.00,-5.29 L 0,-5.29 Z"></path></g><g transform="translate(225.59201960101564 225.25073656514724) rotate(0 30.920303614797376 0)" stroke="none"><path fill="#1e1e1e" d="M 0,-5.34 Q 0,-5.34 2.16,-5.38 4.32,-5.43 6.68,-5.45 9.04,-5.47 12.46,-5.59 15.88,-5.71 18.99,-5.81 22.11,-5.91 24.97,-6.00 27.82,-6.09 30.50,-6.17 33.17,-6.24 35.65,-6.35 38.13,-6.45 40.60,-6.54 43.06,-6.63 45.45,-6.72 47.84,-6.82 50.35,-6.91 52.86,-6.99 55.37,-7.06 57.88,-7.13 59.72,-7.14 61.57,-7.15 62.71,-6.96 63.86,-6.77 64.88,-6.23 65.90,-5.69 66.70,-4.85 67.49,-4.01 67.98,-2.96 68.46,-1.91 68.59,-0.76 68.71,0.38 68.46,1.51 68.22,2.64 67.62,3.63 67.02,4.62 66.14,5.37 65.26,6.12 64.18,6.55 63.11,6.98 61.95,7.04 60.80,7.10 59.68,6.79 58.57,6.48 57.61,5.83 56.66,5.19 55.96,4.26 55.26,3.34 54.89,2.25 54.52,1.15 54.52,-0.00 54.52,-1.15 54.89,-2.25 55.26,-3.35 55.96,-4.27 56.66,-5.19 57.61,-5.84 58.57,-6.48 59.69,-6.79 60.80,-7.10 61.96,-7.04 63.11,-6.98 64.19,-6.55 65.26,-6.12 66.14,-5.37 67.02,-4.62 67.62,-3.63 68.22,-2.64 68.46,-1.51 68.71,-0.38 68.59,0.76 68.46,1.91 67.98,2.96 67.49,4.01 66.69,4.85 65.90,5.69 64.88,6.23 63.85,6.77 62.71,6.96 61.57,7.15 61.57,7.15 61.57,7.15 59.72,7.14 57.88,7.13 55.37,7.06 52.86,6.99 50.35,6.91 47.84,6.82 45.45,6.72 43.06,6.63 40.60,6.54 38.13,6.45 35.65,6.35 33.17,6.24 30.50,6.17 27.82,6.09 24.97,6.00 22.11,5.91 18.99,5.81 15.88,5.71 12.46,5.59 9.04,5.47 6.68,5.45 4.32,5.43 2.16,5.38 0,5.34 -0.63,5.26 -1.27,5.18 -1.88,4.95 -2.48,4.73 -3.01,4.36 -3.54,3.99 -3.96,3.51 -4.39,3.03 -4.69,2.46 -4.99,1.89 -5.14,1.26 -5.30,0.64 -5.30,-0.00 -5.30,-0.64 -5.14,-1.26 -4.99,-1.89 -4.69,-2.46 -4.39,-3.03 -3.96,-3.51 -3.54,-3.99 -3.01,-4.36 -2.48,-4.73 -1.88,-4.95 -1.27,-5.18 -0.63,-5.26 0.00,-5.34 0.00,-5.34 L 0,-5.34 Z"></path></g><g transform="translate(224.75633571952858 230.2648398540332) rotate(0 0 6.267629111107453)" stroke="none"><path fill="#1e1e1e" d="M 5.06,0 Q 5.06,0 5.16,1.44 5.25,2.88 5.47,5.28 5.68,7.68 5.73,9.98 5.79,12.27 5.64,13.19 5.49,14.12 5.05,14.95 4.61,15.77 3.93,16.42 3.25,17.06 2.40,17.46 1.54,17.85 0.61,17.95 -0.31,18.05 -1.22,17.85 -2.14,17.65 -2.94,17.17 -3.75,16.68 -4.35,15.97 -4.96,15.25 -5.31,14.38 -5.65,13.51 -5.70,12.58 -5.76,11.64 -5.50,10.74 -5.25,9.83 -4.73,9.06 -4.20,8.28 -3.45,7.71 -2.71,7.15 -1.82,6.85 -0.93,6.55 0.00,6.55 0.93,6.55 1.82,6.85 2.71,7.15 3.46,7.72 4.20,8.28 4.73,9.06 5.25,9.84 5.51,10.74 5.76,11.64 5.70,12.58 5.65,13.51 5.31,14.39 4.96,15.26 4.35,15.97 3.75,16.68 2.94,17.17 2.14,17.65 1.22,17.85 0.31,18.05 -0.61,17.95 -1.55,17.85 -2.40,17.46 -3.25,17.06 -3.93,16.42 -4.61,15.77 -5.05,14.94 -5.49,14.12 -5.64,13.19 -5.79,12.27 -5.79,12.27 -5.79,12.27 -5.73,9.98 -5.68,7.68 -5.47,5.28 -5.25,2.88 -5.16,1.44 -5.06,0 -4.99,-0.60 -4.92,-1.21 -4.70,-1.78 -4.48,-2.35 -4.14,-2.85 -3.79,-3.36 -3.33,-3.76 -2.87,-4.17 -2.33,-4.45 -1.79,-4.73 -1.20,-4.88 -0.61,-5.03 0.00,-5.03 0.61,-5.03 1.20,-4.88 1.79,-4.73 2.33,-4.45 2.87,-4.17 3.33,-3.76 3.79,-3.36 4.14,-2.85 4.48,-2.35 4.70,-1.78 4.92,-1.21 4.99,-0.60 5.06,0.00 5.06,0.00 L 5.06,0 Z"></path></g><g transform="translate(224.75633571952858 242.80009807625174) rotate(0 31.338145555539086 -4.596261348146072)" stroke="none"><path fill="#1e1e1e" d="M 0,-5.17 Q 0,-5.17 1.92,-5.24 3.84,-5.32 6.75,-5.52 9.65,-5.72 11.95,-5.89 14.25,-6.06 16.42,-6.20 18.60,-6.34 21.01,-6.45 23.43,-6.57 25.94,-6.66 28.44,-6.75 31.71,-6.20 34.97,-5.65 37.70,-5.23 40.43,-4.81 42.56,-4.43 44.69,-4.06 47.10,-4.44 49.52,-4.82 52.03,-4.86 54.53,-4.90 57.04,-4.93 59.55,-4.96 57.48,-3.94 55.41,-2.92 55.25,-5.34 55.09,-7.77 55.09,-9.60 55.09,-11.43 55.29,-12.64 55.48,-13.86 56.06,-14.94 56.63,-16.02 57.53,-16.87 58.42,-17.71 59.53,-18.23 60.64,-18.74 61.86,-18.87 63.08,-19.01 64.28,-18.74 65.48,-18.48 66.53,-17.84 67.58,-17.21 68.38,-16.28 69.17,-15.34 69.63,-14.20 70.08,-13.06 70.15,-11.83 70.21,-10.61 69.88,-9.43 69.55,-8.24 68.86,-7.23 68.18,-6.21 67.20,-5.47 66.22,-4.73 65.06,-4.34 63.90,-3.95 62.67,-3.95 61.44,-3.95 60.28,-4.34 59.12,-4.73 58.14,-5.48 57.16,-6.22 56.47,-7.23 55.79,-8.25 55.46,-9.43 55.13,-10.62 55.20,-11.84 55.26,-13.07 55.72,-14.21 56.17,-15.35 56.97,-16.28 57.76,-17.21 58.82,-17.85 59.87,-18.48 61.07,-18.74 62.26,-19.01 63.48,-18.87 64.70,-18.74 65.82,-18.22 66.93,-17.71 67.82,-16.86 68.71,-16.02 69.29,-14.93 69.86,-13.85 70.06,-12.64 70.26,-11.43 70.26,-11.43 70.26,-11.43 70.20,-7.90 70.15,-4.37 69.73,-2.08 69.31,0.20 68.88,2.29 68.45,4.38 65.64,6.57 62.82,8.76 59.93,9.35 57.04,9.95 54.53,9.91 52.03,9.87 49.51,9.83 47.00,9.78 44.54,9.69 42.08,9.59 40.00,9.12 37.92,8.65 35.42,8.16 32.93,7.66 30.68,7.21 28.44,6.75 25.94,6.66 23.43,6.57 21.01,6.45 18.60,6.34 16.42,6.20 14.25,6.06 11.95,5.89 9.65,5.72 6.75,5.52 3.84,5.32 1.92,5.24 0,5.17 -0.61,5.09 -1.23,5.02 -1.82,4.80 -2.40,4.58 -2.91,4.22 -3.43,3.87 -3.84,3.40 -4.25,2.93 -4.54,2.38 -4.83,1.83 -4.98,1.22 -5.13,0.62 -5.13,-0.00 -5.13,-0.62 -4.98,-1.22 -4.83,-1.83 -4.54,-2.38 -4.25,-2.93 -3.84,-3.40 -3.43,-3.87 -2.91,-4.22 -2.40,-4.58 -1.82,-4.80 -1.23,-5.02 -0.61,-5.09 0.00,-5.17 0.00,-5.17 L 0,-5.17 Z"></path></g><g transform="translate(395.2358475416586 192.65906518739212) rotate(0 0.8356838814816001 11.699574340733307)" stroke="none"><path fill="#1e1e1e" d="M 5.11,0 Q 5.11,0 5.20,1.68 5.29,3.36 5.48,5.71 5.67,8.07 5.85,10.41 6.04,12.74 6.20,15.25 6.37,17.76 5.78,17.83 5.20,17.90 5.96,18.63 6.72,19.36 7.21,20.30 7.70,21.23 7.87,22.28 8.03,23.32 7.85,24.36 7.68,25.40 7.18,26.33 6.68,27.26 5.91,27.98 5.13,28.71 4.17,29.14 3.21,29.58 2.16,29.69 1.11,29.80 0.08,29.56 -0.94,29.33 -1.84,28.78 -2.74,28.23 -3.42,27.42 -4.10,26.61 -4.48,25.63 -4.87,24.65 -4.92,23.59 -4.97,22.54 -4.68,21.52 -4.39,20.51 -3.80,19.64 -3.20,18.77 -2.35,18.13 -1.51,17.50 -0.51,17.17 0.49,16.84 1.54,16.84 2.60,16.85 3.60,17.19 4.60,17.53 5.43,18.18 6.27,18.82 6.86,19.70 7.44,20.58 7.72,21.60 8.00,22.62 7.93,23.67 7.87,24.72 7.47,25.70 7.08,26.68 6.39,27.48 5.70,28.28 4.79,28.82 3.88,29.36 2.85,29.58 1.82,29.80 0.77,29.68 -0.27,29.56 -1.23,29.11 -2.18,28.66 -2.18,28.66 -2.18,28.66 -4.27,23.21 -6.37,17.76 -6.20,15.25 -6.04,12.74 -5.85,10.41 -5.67,8.07 -5.48,5.71 -5.29,3.36 -5.20,1.68 -5.11,0 -5.04,-0.61 -4.96,-1.22 -4.74,-1.80 -4.53,-2.37 -4.17,-2.88 -3.82,-3.39 -3.36,-3.80 -2.90,-4.21 -2.36,-4.49 -1.81,-4.78 -1.21,-4.93 -0.61,-5.07 0.00,-5.07 0.61,-5.07 1.21,-4.93 1.81,-4.78 2.36,-4.49 2.90,-4.21 3.36,-3.80 3.82,-3.39 4.18,-2.88 4.53,-2.37 4.74,-1.80 4.96,-1.22 5.04,-0.61 5.11,0.00 5.11,0.00 L 5.11,0 Z"></path></g><g transform="translate(396.9072153046254 216.0582138688551) rotate(0 -10.028206577771925 5.014103288885963)" stroke="none"><path fill="#1e1e1e" d="M 0.84,5.06 Q 0.84,5.06 -0.58,5.39 -2.00,5.72 -5.01,7.61 -8.01,9.49 -10.04,10.88 -12.07,12.27 -14.71,14.09 -17.36,15.91 -18.38,16.16 -19.40,16.40 -20.44,16.30 -21.48,16.21 -22.44,15.79 -23.40,15.37 -24.17,14.66 -24.95,13.95 -25.45,13.04 -25.96,12.12 -26.15,11.09 -26.33,10.06 -26.18,9.02 -26.03,7.99 -25.56,7.05 -25.09,6.12 -24.34,5.39 -23.59,4.65 -22.65,4.20 -21.71,3.74 -20.67,3.61 -19.63,3.48 -18.60,3.68 -17.58,3.89 -16.67,4.42 -15.76,4.94 -15.07,5.72 -14.38,6.51 -13.98,7.48 -13.57,8.44 -13.50,9.49 -13.42,10.53 -13.68,11.54 -13.94,12.56 -14.52,13.43 -15.09,14.31 -15.91,14.96 -16.73,15.61 -17.72,15.96 -18.70,16.31 -19.75,16.33 -20.80,16.35 -21.80,16.03 -22.79,15.71 -23.64,15.10 -24.48,14.48 -25.09,13.62 -25.69,12.77 -25.99,11.76 -26.28,10.76 -26.25,9.71 -26.21,8.67 -25.84,7.69 -25.47,6.71 -24.80,5.90 -24.14,5.09 -23.25,4.53 -22.37,3.98 -22.37,3.98 -22.37,3.98 -21.46,3.29 -20.56,2.60 -18.37,1.44 -16.19,0.29 -14.25,-0.68 -12.31,-1.66 -10.23,-2.73 -8.14,-3.79 -5.95,-4.28 -3.75,-4.76 -2.30,-4.91 -0.84,-5.06 -0.22,-5.09 0.39,-5.12 0.99,-5.00 1.60,-4.87 2.16,-4.61 2.72,-4.35 3.20,-3.96 3.69,-3.57 4.06,-3.07 4.43,-2.58 4.68,-2.01 4.92,-1.44 5.03,-0.83 5.13,-0.22 5.08,0.39 5.03,1.00 4.84,1.59 4.64,2.18 4.32,2.70 3.99,3.23 3.54,3.66 3.10,4.09 2.56,4.40 2.03,4.71 1.43,4.89 0.84,5.06 0.84,5.06 L 0.84,5.06 Z"></path></g><g transform="translate(402.7570024749839 218.56526551329443) rotate(0 6.267629111107453 0)" stroke="none"><path fill="#1e1e1e" d="M 0,-5.00 Q 0,-5.00 1.92,-5.08 3.84,-5.17 6.27,-5.33 8.70,-5.48 10.47,-5.50 12.24,-5.53 13.13,-5.38 14.01,-5.24 14.80,-4.82 15.59,-4.40 16.21,-3.75 16.82,-3.10 17.20,-2.29 17.57,-1.47 17.67,-0.58 17.77,0.29 17.57,1.17 17.38,2.04 16.92,2.81 16.46,3.58 15.78,4.15 15.10,4.73 14.26,5.06 13.43,5.40 12.54,5.44 11.65,5.49 10.78,5.25 9.92,5.01 9.18,4.51 8.44,4.01 7.90,3.30 7.36,2.58 7.07,1.74 6.79,0.89 6.79,-0.00 6.79,-0.89 7.07,-1.74 7.36,-2.59 7.90,-3.30 8.44,-4.01 9.18,-4.51 9.92,-5.01 10.79,-5.25 11.65,-5.49 12.54,-5.44 13.43,-5.40 14.27,-5.06 15.10,-4.73 15.78,-4.15 16.46,-3.57 16.92,-2.81 17.38,-2.04 17.57,-1.17 17.77,-0.29 17.67,0.59 17.57,1.48 17.20,2.29 16.82,3.10 16.21,3.75 15.59,4.40 14.80,4.82 14.01,5.24 13.13,5.38 12.24,5.53 12.24,5.53 12.24,5.53 10.47,5.50 8.70,5.48 6.27,5.33 3.84,5.17 1.92,5.08 0,5.00 -0.59,4.92 -1.19,4.85 -1.76,4.64 -2.32,4.42 -2.82,4.08 -3.31,3.74 -3.71,3.29 -4.11,2.84 -4.39,2.30 -4.67,1.77 -4.82,1.18 -4.96,0.60 -4.96,-0.00 -4.96,-0.60 -4.82,-1.18 -4.67,-1.77 -4.39,-2.30 -4.11,-2.84 -3.71,-3.29 -3.31,-3.74 -2.81,-4.08 -2.32,-4.42 -1.76,-4.64 -1.19,-4.85 -0.59,-4.92 0.00,-5.00 0.00,-5.00 L 0,-5.00 Z"></path></g><g transform="translate(399.41426694906477 222.7436849207079) rotate(0 -7.1033129925890535 12.117416281475016)" stroke="none"><path fill="#1e1e1e" d="M 4.53,2.83 Q 4.53,2.83 3.36,4.77 2.19,6.71 1.15,8.73 0.12,10.76 -1.45,13.57 -3.02,16.37 -3.83,18.38 -4.64,20.39 -6.16,22.53 -7.69,24.67 -8.13,25.91 -8.58,27.14 -9.24,27.92 -9.90,28.70 -10.78,29.23 -11.66,29.75 -12.66,29.97 -13.65,30.19 -14.67,30.08 -15.69,29.97 -16.62,29.54 -17.54,29.11 -18.28,28.40 -19.03,27.70 -19.50,26.79 -19.98,25.89 -20.15,24.88 -20.31,23.87 -20.14,22.86 -19.98,21.85 -19.50,20.95 -19.02,20.05 -18.27,19.35 -17.53,18.64 -16.60,18.22 -15.67,17.79 -14.66,17.68 -13.64,17.57 -12.64,17.79 -11.64,18.01 -10.77,18.54 -9.89,19.07 -9.23,19.85 -8.57,20.63 -8.19,21.58 -7.82,22.53 -7.76,23.55 -7.71,24.57 -7.98,25.56 -8.26,26.54 -8.83,27.39 -9.41,28.23 -10.22,28.85 -11.04,29.47 -12.01,29.79 -12.98,30.12 -14.00,30.12 -15.02,30.11 -15.99,29.79 -16.96,29.46 -17.77,28.84 -18.58,28.22 -19.16,27.37 -19.73,26.53 -20.00,25.54 -20.27,24.55 -20.22,23.53 -20.16,22.51 -19.78,21.56 -19.40,20.61 -19.40,20.61 -19.40,20.62 -17.52,17.84 -15.65,15.06 -14.34,12.55 -13.03,10.04 -11.60,7.94 -10.16,5.83 -8.58,3.40 -6.99,0.97 -5.76,-0.92 -4.53,-2.83 -4.12,-3.33 -3.72,-3.83 -3.20,-4.22 -2.69,-4.61 -2.10,-4.87 -1.51,-5.12 -0.87,-5.23 -0.24,-5.33 0.39,-5.29 1.04,-5.24 1.65,-5.04 2.26,-4.84 2.81,-4.49 3.35,-4.15 3.80,-3.69 4.25,-3.23 4.58,-2.67 4.90,-2.12 5.08,-1.50 5.27,-0.88 5.30,-0.24 5.32,0.40 5.20,1.03 5.07,1.66 4.80,2.24 4.53,2.83 4.53,2.83 L 4.53,2.83 Z"></path></g><g transform="translate(405.2640541194305 233.6075753799596) rotate(0 2.924893585184691 5.014103288887782)" stroke="none"><path fill="#1e1e1e" d="M 4.70,-1.88 Q 4.70,-1.88 5.24,-0.75 5.78,0.36 7.13,2.31 8.49,4.25 9.79,5.94 11.10,7.62 11.31,8.53 11.52,9.44 11.43,10.37 11.34,11.30 10.96,12.15 10.58,13.01 9.94,13.69 9.31,14.38 8.49,14.82 7.67,15.27 6.75,15.43 5.83,15.60 4.91,15.46 3.99,15.32 3.16,14.89 2.33,14.46 1.68,13.79 1.03,13.12 0.62,12.28 0.22,11.44 0.11,10.51 0.00,9.58 0.19,8.67 0.38,7.75 0.85,6.95 1.32,6.14 2.02,5.53 2.73,4.92 3.59,4.56 4.46,4.20 5.39,4.14 6.32,4.08 7.22,4.32 8.12,4.56 8.90,5.07 9.68,5.59 10.26,6.32 10.83,7.06 11.14,7.94 11.45,8.82 11.46,9.76 11.47,10.69 11.18,11.58 10.89,12.47 10.34,13.22 9.78,13.97 9.01,14.50 8.25,15.03 7.35,15.29 6.45,15.55 5.52,15.52 4.59,15.48 3.72,15.14 2.85,14.80 2.13,14.21 1.41,13.61 0.92,12.82 0.43,12.02 0.43,12.02 0.43,12.03 -0.61,10.23 -1.66,8.43 -2.76,6.43 -3.86,4.43 -4.28,3.15 -4.70,1.88 -4.85,1.29 -5.01,0.70 -5.02,0.09 -5.03,-0.51 -4.90,-1.11 -4.76,-1.71 -4.49,-2.25 -4.21,-2.80 -3.82,-3.26 -3.42,-3.72 -2.92,-4.08 -2.43,-4.44 -1.86,-4.66 -1.29,-4.89 -0.69,-4.97 -0.09,-5.06 0.51,-5.00 1.12,-4.93 1.69,-4.73 2.27,-4.52 2.78,-4.18 3.28,-3.84 3.70,-3.40 4.11,-2.95 4.40,-2.41 4.70,-1.88 4.70,-1.88 L 4.70,-1.88 Z"></path></g><g transform="translate(380.1935376750007 428.32191976503236) rotate(0 15.460151807399598 0)" stroke="none"><path fill="#1e1e1e" d="M 0,-5.15 Q 0,-5.15 2.88,-5.13 5.76,-5.11 8.67,-5.28 11.58,-5.44 13.96,-5.62 16.33,-5.80 18.71,-5.98 21.10,-6.15 23.61,-6.30 26.12,-6.46 28.39,-6.49 30.65,-6.52 31.69,-6.35 32.74,-6.18 33.67,-5.69 34.60,-5.19 35.33,-4.42 36.06,-3.66 36.50,-2.70 36.94,-1.74 37.06,-0.69 37.17,0.35 36.94,1.38 36.72,2.41 36.17,3.32 35.63,4.22 34.82,4.90 34.02,5.59 33.04,5.98 32.06,6.37 31.00,6.43 29.95,6.48 28.93,6.20 27.91,5.92 27.04,5.33 26.16,4.73 25.52,3.89 24.89,3.05 24.55,2.05 24.21,1.05 24.21,-0.00 24.21,-1.05 24.55,-2.05 24.89,-3.05 25.53,-3.89 26.16,-4.73 27.04,-5.33 27.91,-5.92 28.93,-6.20 29.95,-6.48 31.00,-6.43 32.06,-6.37 33.04,-5.98 34.02,-5.59 34.82,-4.90 35.63,-4.22 36.17,-3.31 36.72,-2.41 36.94,-1.38 37.17,-0.35 37.06,0.69 36.94,1.74 36.50,2.70 36.05,3.66 35.33,4.43 34.60,5.19 33.67,5.69 32.74,6.18 31.69,6.35 30.65,6.52 30.65,6.52 30.65,6.52 28.39,6.49 26.12,6.46 23.61,6.30 21.10,6.15 18.71,5.98 16.33,5.80 13.96,5.62 11.58,5.44 8.67,5.28 5.76,5.11 2.88,5.13 0,5.15 -0.61,5.08 -1.23,5.00 -1.81,4.78 -2.39,4.56 -2.90,4.21 -3.41,3.85 -3.83,3.39 -4.24,2.92 -4.53,2.37 -4.82,1.82 -4.97,1.22 -5.11,0.62 -5.11,-0.00 -5.11,-0.62 -4.97,-1.22 -4.82,-1.82 -4.53,-2.37 -4.24,-2.92 -3.83,-3.39 -3.41,-3.86 -2.90,-4.21 -2.39,-4.56 -1.81,-4.78 -1.23,-5.00 -0.61,-5.08 0.00,-5.15 0.00,-5.15 L 0,-5.15 Z"></path></g><g transform="translate(381.0292215564805 433.3360230539183) rotate(0 17.13151957036098 47.633981244418464)" stroke="none"><path fill="#1e1e1e" d="M 5.20,0 Q 5.20,0 5.27,1.92 5.34,3.84 5.54,6.75 5.74,9.65 5.89,11.91 6.03,14.16 6.19,16.62 6.34,19.07 6.45,21.26 6.56,23.45 6.64,25.59 6.73,27.72 6.81,29.84 6.90,31.97 6.98,34.48 7.05,36.98 7.11,39.72 7.17,42.47 7.21,44.70 7.25,46.94 7.28,49.29 7.31,51.64 7.35,54.26 7.38,56.88 7.40,59.26 7.42,61.63 7.44,64.13 7.45,66.63 7.47,69.28 7.50,71.92 7.89,74.12 8.28,76.32 8.71,78.40 9.14,80.48 9.58,82.98 10.01,85.47 10.48,87.80 10.95,90.12 8.86,88.83 6.78,87.54 9.43,87.60 12.08,87.65 14.22,87.66 16.37,87.67 18.73,87.65 21.10,87.64 23.44,87.70 25.79,87.75 27.82,88.42 29.85,89.08 27.11,90.19 24.38,91.29 23.82,89.03 23.26,86.77 23.25,84.64 23.24,82.51 23.23,80.00 23.22,77.50 23.95,73.52 24.68,69.55 24.35,67.26 24.02,64.96 24.01,62.45 24.01,59.95 24.00,57.44 24.00,54.93 24.00,52.46 24.00,49.98 24.01,47.53 24.02,45.08 24.02,42.92 24.02,40.76 24.02,38.27 24.02,35.78 24.02,33.31 24.02,30.85 24.60,27.60 25.19,24.35 25.77,21.86 26.34,19.38 27.57,16.25 28.79,13.12 27.64,11.05 26.49,8.97 26.09,6.63 25.69,4.30 25.47,3.03 25.26,1.75 25.07,0.51 24.88,-0.72 25.10,-1.96 25.31,-3.20 25.92,-4.31 26.52,-5.41 27.44,-6.26 28.37,-7.12 29.51,-7.63 30.66,-8.15 31.91,-8.27 33.16,-8.39 34.39,-8.10 35.61,-7.82 36.68,-7.16 37.75,-6.50 38.56,-5.53 39.36,-4.56 39.81,-3.39 40.26,-2.21 40.32,-0.96 40.37,0.29 40.02,1.50 39.67,2.71 38.95,3.74 38.23,4.77 37.22,5.52 36.21,6.27 35.01,6.66 33.82,7.04 32.56,7.03 31.30,7.01 30.11,6.60 28.93,6.18 27.94,5.41 26.94,4.64 26.25,3.59 25.56,2.54 25.23,1.32 24.91,0.10 25.00,-1.14 25.08,-2.40 25.56,-3.56 26.04,-4.72 26.86,-5.67 27.69,-6.62 28.78,-7.25 29.86,-7.89 31.09,-8.14 32.32,-8.40 33.57,-8.25 34.82,-8.10 35.96,-7.55 37.09,-7.01 37.99,-6.14 38.90,-5.26 39.47,-4.14 40.05,-3.02 40.05,-3.03 40.05,-3.03 40.29,-0.17 40.54,2.67 41.21,4.73 41.89,6.78 41.95,9.13 42.02,11.48 42.01,13.64 42.00,15.79 41.74,18.09 41.48,20.38 40.24,22.27 39.01,24.16 40.08,22.07 41.15,19.98 40.66,22.31 40.17,24.63 39.80,26.75 39.42,28.86 39.45,31.03 39.49,33.21 39.48,35.47 39.48,37.74 39.48,40.16 39.48,42.58 39.49,45.08 39.50,47.57 39.50,49.76 39.50,51.94 39.50,54.27 39.50,56.60 39.50,59.11 39.49,61.62 39.49,64.13 39.48,66.64 39.46,68.89 39.43,71.15 39.03,73.49 38.62,75.82 38.61,78.33 38.60,80.84 38.59,83.36 38.58,85.89 38.57,88.08 38.57,90.27 38.55,92.54 38.52,94.80 37.73,97.37 36.93,99.94 33.12,101.85 29.32,103.75 26.88,103.33 24.45,102.90 21.92,102.89 19.39,102.87 17.07,102.87 14.76,102.86 12.44,102.86 10.12,102.86 7.48,102.81 4.84,102.76 2.75,102.12 0.66,101.47 -1.09,99.10 -2.84,96.73 -2.86,93.56 -2.87,90.39 -4.06,86.86 -5.26,83.34 -5.67,81.21 -6.09,79.08 -6.79,75.50 -7.50,71.92 -7.47,69.28 -7.45,66.63 -7.44,64.13 -7.42,61.63 -7.40,59.26 -7.38,56.88 -7.35,54.26 -7.31,51.64 -7.28,49.29 -7.25,46.94 -7.21,44.70 -7.17,42.47 -7.11,39.72 -7.05,36.98 -6.98,34.48 -6.90,31.97 -6.81,29.84 -6.73,27.72 -6.64,25.59 -6.56,23.45 -6.45,21.26 -6.34,19.07 -6.19,16.62 -6.03,14.16 -5.89,11.91 -5.74,9.65 -5.54,6.75 -5.34,3.84 -5.27,1.92 -5.20,0 -5.12,-0.62 -5.05,-1.24 -4.82,-1.83 -4.60,-2.41 -4.25,-2.93 -3.89,-3.45 -3.42,-3.86 -2.95,-4.28 -2.40,-4.57 -1.84,-4.86 -1.23,-5.01 -0.62,-5.16 0.00,-5.16 0.62,-5.16 1.23,-5.01 1.84,-4.86 2.40,-4.57 2.95,-4.28 3.42,-3.86 3.89,-3.45 4.25,-2.93 4.60,-2.41 4.83,-1.83 5.05,-1.24 5.12,-0.62 5.20,0.00 5.20,0.00 L 5.20,0 Z"></path></g><g transform="translate(426.9918350379412 453.3924362094622) rotate(0 9.610364637032035 28.413251970354395)" stroke="none"><path fill="#1e1e1e" d="M 0,-5.16 Q 0,-5.16 1.92,-5.24 3.84,-5.31 6.75,-5.46 9.66,-5.61 12.02,-5.79 14.37,-5.97 17.08,-5.58 19.78,-5.19 22.10,-2.68 24.42,-0.17 24.63,2.03 24.84,4.25 24.46,6.50 24.08,8.75 24.24,11.09 24.39,13.44 24.46,15.60 24.54,17.76 24.61,20.27 24.68,22.78 24.74,25.28 24.79,27.79 25.24,30.14 25.69,32.48 26.15,34.99 26.60,37.49 26.65,39.74 26.69,41.99 26.72,44.50 26.75,47.01 26.77,49.52 26.79,52.03 26.18,54.94 25.57,57.85 24.29,59.90 23.01,61.95 20.69,62.49 18.37,63.03 15.97,63.73 13.57,64.42 11.28,64.44 8.98,64.47 5.85,63.75 2.72,63.02 -0.00,61.39 -2.74,59.76 -3.50,57.22 -4.27,54.69 -4.31,52.31 -4.36,49.93 -3.96,47.14 -3.57,44.35 -3.11,40.50 -2.66,36.65 -2.63,33.89 -2.60,31.13 -2.16,28.67 -1.72,26.21 -1.75,23.86 -1.79,21.50 -1.80,19.03 -1.81,16.55 -1.82,14.02 -1.83,11.48 -1.84,8.37 -1.84,5.27 -1.64,4.04 -1.44,2.81 -0.86,1.71 -0.27,0.61 0.62,-0.23 1.53,-1.09 2.66,-1.61 3.79,-2.14 5.02,-2.27 6.26,-2.40 7.48,-2.14 8.69,-1.87 9.76,-1.23 10.83,-0.58 11.63,0.35 12.44,1.30 12.90,2.46 13.36,3.62 13.43,4.86 13.50,6.10 13.16,7.30 12.83,8.50 12.13,9.54 11.43,10.57 10.44,11.32 9.45,12.07 8.27,12.47 7.09,12.87 5.84,12.87 4.60,12.87 3.42,12.47 2.24,12.07 1.25,11.32 0.26,10.56 -0.43,9.53 -1.13,8.50 -1.46,7.30 -1.80,6.10 -1.73,4.86 -1.66,3.62 -1.20,2.46 -0.74,1.30 0.06,0.35 0.86,-0.59 1.93,-1.23 3.00,-1.87 4.21,-2.14 5.43,-2.40 6.67,-2.27 7.91,-2.13 9.04,-1.61 10.17,-1.09 11.07,-0.23 11.97,0.62 12.56,1.72 13.14,2.82 13.34,4.04 13.54,5.27 13.54,5.27 13.54,5.27 13.54,8.37 13.53,11.48 13.52,14.02 13.51,16.55 13.50,19.03 13.49,21.51 13.46,23.77 13.43,26.04 13.02,28.62 12.61,31.20 12.58,33.54 12.55,35.89 12.18,38.25 11.80,40.60 11.71,43.11 11.63,45.62 10.79,48.45 9.95,51.28 7.77,49.85 5.58,48.42 7.69,48.80 9.80,49.17 12.13,49.33 14.46,49.49 13.05,51.59 11.63,53.70 11.65,51.19 11.67,48.68 11.70,46.18 11.72,43.67 12.08,41.30 12.43,38.93 12.05,36.40 11.67,33.86 10.98,30.83 10.29,27.79 10.35,25.28 10.41,22.78 10.48,20.27 10.55,17.76 10.63,15.59 10.70,13.42 10.79,11.26 10.88,9.10 12.63,7.53 14.37,5.97 12.02,5.79 9.66,5.61 6.75,5.46 3.84,5.31 1.92,5.24 0,5.16 -0.61,5.09 -1.23,5.01 -1.81,4.79 -2.40,4.57 -2.91,4.22 -3.42,3.86 -3.84,3.40 -4.25,2.93 -4.54,2.38 -4.83,1.83 -4.98,1.22 -5.13,0.62 -5.13,-0.00 -5.13,-0.62 -4.98,-1.22 -4.83,-1.83 -4.54,-2.38 -4.25,-2.93 -3.84,-3.40 -3.42,-3.86 -2.91,-4.22 -2.40,-4.57 -1.81,-4.79 -1.23,-5.01 -0.61,-5.09 0.00,-5.16 0.00,-5.16 L 0,-5.16 Z"></path></g><g transform="translate(468.77602911198846 451.7210684465026) rotate(0 7.1033129925872345 29.666777792575886)" stroke="none"><path fill="#1e1e1e" d="M 0,-5.08 Q 0,-5.08 1.68,-5.17 3.36,-5.26 5.93,-5.48 8.51,-5.70 10.63,-5.87 12.75,-6.04 16.29,-5.68 19.84,-5.32 22.20,-2.76 24.57,-0.21 24.78,2.07 24.99,4.36 25.08,6.63 25.16,8.90 25.24,11.44 25.31,13.98 25.38,16.29 25.45,18.59 25.50,21.03 25.56,23.46 25.60,25.62 25.65,27.79 25.69,30.29 25.73,32.79 25.18,36.35 24.63,39.90 24.83,42.20 25.03,44.50 25.05,47.01 25.08,49.52 25.10,52.03 25.12,54.53 24.51,57.86 23.90,61.19 22.62,63.25 21.34,65.30 18.79,66.09 16.24,66.88 14.04,66.92 11.84,66.97 9.57,66.98 7.30,66.99 4.79,67.00 2.28,67.01 -1.47,66.39 -5.23,65.76 -7.31,64.47 -9.39,63.18 -10.18,60.60 -10.98,58.03 -10.99,55.18 -11.00,52.33 -11.00,50.11 -10.99,47.89 -10.99,45.58 -10.99,43.28 -11.00,40.75 -11.02,38.22 -11.02,35.48 -11.02,32.75 -11.02,30.13 -11.02,27.51 -11.43,25.10 -11.84,22.68 -11.86,20.42 -11.89,18.17 -11.90,15.66 -11.90,13.15 -11.91,10.64 -11.92,8.13 -11.30,4.38 -10.68,0.63 -8.52,-2.09 -6.37,-4.81 -5.27,-5.39 -4.16,-5.96 -2.94,-6.15 -1.71,-6.34 -0.49,-6.13 0.73,-5.92 1.82,-5.33 2.91,-4.74 3.76,-3.83 4.60,-2.92 5.12,-1.79 5.63,-0.66 5.75,0.56 5.88,1.80 5.60,3.01 5.33,4.22 4.68,5.28 4.03,6.34 3.08,7.13 2.12,7.93 0.97,8.38 -0.18,8.83 -1.42,8.89 -2.66,8.95 -3.86,8.60 -5.05,8.26 -6.07,7.56 -7.09,6.85 -7.84,5.86 -8.58,4.86 -8.97,3.68 -9.35,2.50 -9.34,1.26 -9.33,0.02 -8.93,-1.14 -8.52,-2.32 -7.76,-3.30 -7.00,-4.28 -5.97,-4.97 -4.94,-5.66 -3.74,-5.98 -2.54,-6.30 -1.30,-6.23 -0.06,-6.15 1.08,-5.68 2.23,-5.21 3.17,-4.40 4.11,-3.59 4.74,-2.52 5.37,-1.45 5.63,-0.23 5.89,0.97 5.74,2.20 5.60,3.44 5.07,4.56 4.54,5.68 3.67,6.58 2.81,7.47 2.81,7.47 2.82,7.47 3.19,6.97 3.56,6.46 3.56,8.97 3.55,11.48 3.54,13.98 3.54,16.49 3.22,18.82 2.90,21.15 3.56,23.19 4.22,25.22 4.28,28.00 4.34,30.77 4.33,32.90 4.33,35.03 4.33,37.46 4.32,39.89 4.31,42.03 4.30,44.17 4.31,46.76 4.31,49.36 3.77,51.94 3.23,54.52 1.50,53.08 -0.21,51.64 2.28,51.65 4.79,51.66 7.33,51.67 9.87,51.68 12.31,51.73 14.75,51.77 12.36,53.15 9.97,54.53 9.99,52.03 10.01,49.52 10.04,47.01 10.06,44.49 10.10,42.12 10.15,39.75 10.58,37.11 11.01,34.47 11.04,32.31 11.08,30.15 11.12,27.70 11.16,25.26 11.22,22.76 11.27,20.27 11.33,18.14 11.39,16.01 11.45,13.74 11.52,11.47 12.13,8.75 12.75,6.04 10.63,5.87 8.51,5.70 5.93,5.48 3.36,5.26 1.68,5.17 0,5.08 -0.60,5.00 -1.21,4.93 -1.78,4.71 -2.36,4.49 -2.86,4.15 -3.36,3.80 -3.77,3.34 -4.18,2.88 -4.46,2.34 -4.75,1.80 -4.89,1.20 -5.04,0.61 -5.04,-0.00 -5.04,-0.61 -4.89,-1.20 -4.75,-1.80 -4.46,-2.34 -4.18,-2.88 -3.77,-3.34 -3.36,-3.80 -2.86,-4.15 -2.36,-4.49 -1.78,-4.71 -1.21,-4.93 -0.60,-5.00 0.00,-5.08 0.00,-5.08 L 0,-5.08 Z"></path></g><g transform="translate(506.3818037786368 434.1717069353981) rotate(0 13.370942103696507 51.39455871108112)" stroke="none"><path fill="#1e1e1e" d="M 0,-5.19 Q 0,-5.19 1.92,-5.26 3.84,-5.33 6.41,-5.48 8.98,-5.63 11.16,-5.79 13.34,-5.94 15.55,-6.09 17.76,-6.25 20.27,-6.39 22.78,-6.53 24.93,-7.02 27.07,-7.51 30.82,-6.12 34.56,-4.72 36.14,-1.99 37.71,0.74 37.48,3.67 37.26,6.59 37.16,9.14 37.07,11.69 37.05,14.13 37.04,16.56 37.05,18.81 37.06,21.07 36.74,24.03 36.41,26.98 36.39,29.39 36.37,31.79 36.38,34.72 36.39,37.65 36.41,40.33 36.44,43.02 36.45,45.50 36.47,47.99 36.90,50.65 37.34,53.31 37.38,55.82 37.43,58.32 37.45,61.15 37.46,63.98 37.78,66.45 38.10,68.92 38.22,71.58 38.33,74.24 38.73,77.32 39.14,80.41 39.18,82.69 39.23,84.97 39.24,87.22 39.26,89.46 39.28,91.64 39.30,93.81 39.32,96.32 39.34,98.82 38.73,102.16 38.12,105.49 36.74,107.58 35.36,109.67 33.22,110.37 31.08,111.07 28.63,111.15 26.18,111.24 22.85,110.69 19.52,110.14 16.21,109.83 12.90,109.53 9.90,108.98 6.89,108.42 2.88,107.92 -1.12,107.43 -4.01,107.06 -6.89,106.69 -8.97,105.40 -11.04,104.11 -11.83,101.54 -12.62,98.98 -12.30,95.37 -11.98,91.76 -11.50,89.66 -11.01,87.55 -10.24,84.07 -9.47,80.59 -8.95,78.06 -8.42,75.53 -8.00,72.78 -7.57,70.03 -7.10,67.86 -6.63,65.69 -6.64,63.27 -6.66,60.84 -6.20,58.48 -5.75,56.11 -5.36,53.25 -4.97,50.40 -5.01,48.10 -5.05,45.79 -5.07,43.27 -5.08,40.74 -5.09,38.30 -5.10,35.86 -5.10,33.15 -5.09,30.44 -5.09,27.86 -5.10,25.29 -5.11,22.98 -5.12,20.68 -5.13,18.17 -5.15,15.66 -4.42,12.53 -3.69,9.40 -4.89,7.28 -6.08,5.15 -6.37,3.95 -6.67,2.76 -6.56,1.53 -6.46,0.30 -5.96,-0.82 -5.47,-1.95 -4.64,-2.86 -3.82,-3.78 -2.74,-4.38 -1.66,-4.98 -0.45,-5.21 0.75,-5.43 1.97,-5.26 3.19,-5.09 4.29,-4.54 5.39,-3.98 6.26,-3.11 7.13,-2.23 7.67,-1.13 8.21,-0.02 8.38,1.19 8.54,2.42 8.30,3.62 8.06,4.83 7.45,5.90 6.84,6.97 5.92,7.79 4.99,8.61 3.86,9.09 2.72,9.58 1.50,9.67 0.27,9.76 -0.92,9.46 -2.11,9.16 -3.15,8.49 -4.18,7.82 -4.95,6.86 -5.72,5.89 -6.14,4.73 -6.56,3.57 -6.59,2.34 -6.61,1.11 -6.25,-0.06 -5.88,-1.23 -5.16,-2.23 -4.43,-3.23 -3.43,-3.94 -2.42,-4.66 -1.24,-5.01 -0.06,-5.37 1.16,-5.33 2.39,-5.29 3.55,-4.86 4.70,-4.43 5.66,-3.65 6.62,-2.88 7.28,-1.84 7.93,-0.79 7.93,-0.79 7.93,-0.80 7.56,-0.91 7.18,-1.03 9.11,2.71 11.04,6.47 11.01,8.72 10.98,10.98 10.57,13.32 10.16,15.66 10.15,18.17 10.13,20.68 10.12,22.98 10.11,25.29 10.11,27.86 10.11,30.44 10.11,32.69 10.12,34.94 10.11,37.42 10.10,39.90 10.08,42.18 10.07,44.46 10.04,46.99 10.02,49.53 9.59,52.01 9.17,54.49 9.03,56.76 8.89,59.03 8.60,61.60 8.30,64.18 8.22,66.37 8.14,68.56 7.31,71.52 6.49,74.48 6.17,77.07 5.84,79.66 5.45,81.92 5.06,84.18 4.54,86.35 4.02,88.52 2.78,92.01 1.53,95.49 -1.00,94.05 -3.54,92.61 -1.07,92.67 1.40,92.73 4.01,93.12 6.62,93.50 9.07,93.96 11.52,94.43 14.24,94.81 16.95,95.20 19.57,95.29 22.18,95.39 24.68,96.22 27.19,97.04 25.67,98.77 24.15,100.50 24.17,97.99 24.19,95.48 24.21,92.94 24.23,90.40 24.25,88.26 24.26,86.12 24.39,83.75 24.52,81.38 24.00,78.61 23.47,75.83 23.58,73.52 23.68,71.20 23.19,68.42 22.69,65.63 22.70,63.21 22.71,60.79 22.73,58.44 22.75,56.08 22.76,53.90 22.76,51.72 22.40,48.22 22.04,44.71 22.06,42.12 22.08,39.54 22.10,36.58 22.12,33.63 22.19,31.04 22.25,28.45 22.67,25.88 23.09,23.31 23.11,21.16 23.13,19.01 23.15,16.46 23.17,13.91 23.24,11.23 23.31,8.55 23.73,5.51 24.15,2.46 26.23,4.03 28.30,5.59 25.54,6.06 22.78,6.53 20.27,6.39 17.76,6.25 15.55,6.09 13.34,5.94 11.16,5.79 8.98,5.63 6.41,5.48 3.84,5.33 1.92,5.26 0,5.19 -0.62,5.11 -1.24,5.03 -1.82,4.81 -2.41,4.59 -2.92,4.24 -3.44,3.88 -3.85,3.41 -4.27,2.94 -4.56,2.39 -4.85,1.84 -5.00,1.23 -5.15,0.62 -5.15,-0.00 -5.15,-0.62 -5.00,-1.23 -4.85,-1.84 -4.56,-2.39 -4.27,-2.94 -3.85,-3.41 -3.44,-3.88 -2.92,-4.24 -2.41,-4.59 -1.82,-4.81 -1.24,-5.03 -0.62,-5.11 0.00,-5.19 0.00,-5.19 L 0,-5.19 Z"></path></g><g transform="translate(557.3585205489762 450.04970068354305) rotate(0 71.45097186662679 99.86422383698118)" stroke="none"><path fill="#1e1e1e" d="M 0,-5.06 Q 0,-5.06 1.44,-5.16 2.88,-5.25 5.28,-5.47 7.68,-5.68 10.22,-5.88 12.75,-6.08 15.26,-6.24 17.76,-6.40 20.27,-6.53 22.78,-6.66 25.28,-6.76 27.79,-6.86 30.30,-6.95 32.80,-7.03 35.31,-7.10 37.82,-7.16 40.84,-6.49 43.85,-5.81 46.55,-4.65 49.25,-3.49 51.84,-2.62 54.43,-1.76 56.96,-2.51 59.48,-3.27 62.96,-2.47 66.44,-1.67 68.68,-1.09 70.92,-0.52 73.20,0.29 75.49,1.11 78.73,2.15 81.98,3.18 84.34,4.98 86.69,6.78 88.56,8.17 90.42,9.55 92.56,11.27 94.70,12.99 96.49,14.43 98.28,15.88 101.30,17.39 104.33,18.91 106.59,20.28 108.84,21.66 111.07,22.79 113.30,23.93 115.59,25.51 117.87,27.10 119.52,28.81 121.17,30.52 123.13,31.89 125.09,33.26 126.97,35.82 128.85,38.38 129.96,40.79 131.07,43.20 133.54,45.49 136.02,47.78 136.76,49.93 137.50,52.08 138.37,54.75 139.24,57.43 140.33,59.40 141.43,61.36 143.08,64.15 144.72,66.94 145.65,69.22 146.59,71.50 147.64,74.24 148.70,76.98 149.14,79.56 149.58,82.13 149.93,84.66 150.27,87.19 150.36,90.15 150.44,93.11 150.43,96.04 150.42,98.97 150.40,101.90 150.38,104.82 150.38,107.36 150.38,109.90 150.38,112.07 150.39,114.23 150.40,116.37 150.42,118.51 150.44,120.78 150.46,123.05 150.44,125.79 150.43,128.53 150.39,131.16 150.35,133.79 149.98,136.02 149.61,138.26 149.57,140.48 149.54,142.71 149.55,144.92 149.56,147.13 149.59,149.30 149.61,151.47 149.62,153.95 149.64,156.42 150.02,158.99 150.40,161.55 150.46,164.03 150.53,166.50 150.54,169.02 150.56,171.53 151.19,173.87 151.82,176.22 152.40,178.90 152.99,181.58 153.04,184.03 153.09,186.48 153.10,188.61 153.11,190.75 152.48,193.26 151.85,195.77 150.05,199.19 148.25,202.60 145.75,203.32 143.24,204.05 140.71,204.08 138.18,204.10 135.40,204.47 132.61,204.83 130.13,204.88 127.65,204.93 125.31,204.94 122.98,204.94 120.71,204.94 118.45,204.95 115.94,204.95 113.43,204.96 110.92,204.96 108.42,204.97 106.17,204.90 103.92,204.84 101.64,205.32 99.37,205.80 97.19,206.18 95.01,206.55 92.51,206.97 90.00,207.39 87.52,207.45 85.03,207.50 82.08,206.86 79.14,206.22 77.01,204.82 74.88,203.41 74.16,201.24 73.45,199.08 73.43,195.48 73.40,191.88 73.46,189.03 73.53,186.19 73.54,183.51 73.55,180.84 73.87,178.04 74.20,175.24 74.80,171.64 75.40,168.04 76.04,164.01 76.68,159.97 76.34,157.59 76.01,155.21 76.73,152.11 77.45,149.01 77.86,146.89 78.27,144.78 77.71,141.25 77.14,137.73 77.00,133.92 76.86,130.11 76.72,126.70 76.58,123.29 76.22,120.78 75.85,118.27 75.72,115.77 75.60,113.27 75.60,111.10 75.60,108.93 75.09,106.65 74.58,104.38 74.54,102.22 74.50,100.06 74.47,97.57 74.44,95.07 74.10,92.68 73.75,90.29 71.55,87.89 69.34,85.49 68.04,83.74 66.74,82.00 65.06,79.93 63.38,77.87 61.59,75.56 59.80,73.26 57.81,70.58 55.83,67.90 53.77,66.66 51.71,65.42 49.34,65.07 46.97,64.72 43.24,64.67 39.50,64.62 36.44,63.67 33.38,62.71 30.13,61.89 26.88,61.07 24.41,60.65 21.93,60.23 19.01,59.54 16.08,58.84 12.30,58.01 8.52,57.18 6.24,57.52 3.95,57.86 1.86,58.23 -0.22,58.60 -2.37,57.93 -4.52,57.26 -6.57,56.02 -8.62,54.79 -9.40,52.22 -10.18,49.65 -10.22,47.28 -10.26,44.91 -10.25,42.59 -10.25,40.27 -9.56,37.06 -8.86,33.84 -8.55,31.60 -8.23,29.35 -6.85,25.84 -5.46,22.32 -5.87,20.02 -6.27,17.71 -5.38,15.10 -4.50,12.48 -4.88,10.31 -5.26,8.13 -5.81,6.43 -6.37,4.73 -6.67,3.52 -6.98,2.30 -6.88,1.06 -6.78,-0.18 -6.28,-1.33 -5.79,-2.48 -4.96,-3.41 -4.12,-4.34 -3.04,-4.96 -1.95,-5.58 -0.72,-5.81 0.50,-6.05 1.74,-5.88 2.98,-5.72 4.10,-5.16 5.22,-4.61 6.10,-3.72 6.99,-2.84 7.55,-1.72 8.10,-0.60 8.27,0.63 8.44,1.87 8.21,3.09 7.98,4.32 7.36,5.41 6.75,6.50 5.82,7.34 4.89,8.17 3.74,8.67 2.59,9.17 1.35,9.27 0.10,9.37 -1.10,9.07 -2.32,8.77 -3.37,8.10 -4.43,7.43 -5.21,6.45 -6.00,5.48 -6.43,4.31 -6.86,3.13 -6.90,1.88 -6.93,0.63 -6.57,-0.55 -6.20,-1.75 -5.47,-2.77 -4.75,-3.78 -3.73,-4.51 -2.72,-5.24 -1.52,-5.61 -0.33,-5.98 0.91,-5.95 2.16,-5.92 3.34,-5.49 4.51,-5.06 5.49,-4.27 6.47,-3.49 7.14,-2.44 7.81,-1.39 7.81,-1.39 7.81,-1.39 8.40,1.26 9.00,3.93 9.63,7.29 10.27,10.65 10.21,13.17 10.15,15.69 9.26,18.32 8.37,20.96 8.04,23.49 7.71,26.02 7.25,28.76 6.79,31.51 6.30,34.38 5.82,37.25 5.53,39.44 5.24,41.62 4.67,43.90 4.11,46.17 1.10,44.92 -1.90,43.68 1.86,43.05 5.63,42.42 7.89,42.44 10.15,42.47 12.24,42.89 14.33,43.32 16.65,43.78 18.96,44.24 21.06,44.67 23.15,45.09 25.30,45.50 27.46,45.91 29.57,46.34 31.68,46.77 34.17,47.29 36.66,47.81 39.59,48.58 42.53,49.34 45.04,49.64 47.56,49.95 50.08,50.38 52.60,50.80 54.84,51.04 57.08,51.28 59.64,52.34 62.20,53.40 63.91,54.98 65.63,56.57 67.72,59.05 69.80,61.54 71.24,63.52 72.69,65.50 73.83,67.52 74.97,69.53 76.71,71.67 78.45,73.82 79.90,75.78 81.35,77.75 83.71,80.14 86.07,82.53 87.01,84.87 87.94,87.21 88.65,90.71 89.35,94.22 89.32,96.72 89.30,99.22 88.97,101.71 88.64,104.20 89.29,107.35 89.94,110.50 89.91,113.23 89.88,115.97 90.28,119.37 90.68,122.77 90.86,125.55 91.03,128.33 91.39,130.75 91.74,133.16 91.98,136.59 92.21,140.01 92.48,143.83 92.75,147.65 92.31,149.74 91.88,151.82 91.50,153.94 91.11,156.05 91.08,158.21 91.06,160.37 90.56,162.66 90.06,164.95 90.00,167.19 89.94,169.43 89.54,172.03 89.15,174.63 88.85,176.92 88.56,179.22 88.56,181.55 88.56,183.87 88.58,186.04 88.60,188.20 88.18,191.64 87.76,195.07 85.14,193.51 82.51,191.94 84.78,192.27 87.06,192.61 89.57,192.19 92.09,191.77 95.43,191.35 98.78,190.94 102.34,190.20 105.91,189.46 108.42,189.46 110.92,189.47 113.43,189.47 115.94,189.48 118.48,189.49 121.02,189.49 123.49,189.49 125.96,189.49 128.36,189.49 130.75,189.49 132.90,189.12 135.05,188.75 137.50,189.20 139.95,189.66 138.45,191.88 136.96,194.10 137.33,191.59 137.70,189.07 138.70,187.11 139.70,185.16 138.55,183.00 137.39,180.85 136.38,177.70 135.36,174.54 135.31,171.78 135.25,169.02 135.56,166.62 135.86,164.22 135.17,160.32 134.49,156.42 134.50,153.95 134.52,151.47 134.54,149.30 134.56,147.13 134.58,144.88 134.59,142.64 134.64,140.38 134.69,138.12 135.07,135.90 135.45,133.68 135.40,131.10 135.36,128.53 135.35,125.79 135.34,123.05 135.36,120.78 135.38,118.51 135.39,116.37 135.41,114.23 135.41,112.07 135.41,109.90 135.41,107.36 135.41,104.82 135.39,101.90 135.38,98.98 135.35,96.12 135.33,93.26 135.24,90.64 135.15,88.02 134.98,85.75 134.80,83.49 133.82,80.30 132.84,77.11 131.63,74.66 130.42,72.20 128.86,69.47 127.29,66.75 126.25,64.86 125.22,62.96 124.31,60.47 123.39,57.98 122.60,55.76 121.80,53.54 123.48,55.67 125.15,57.80 122.51,55.35 119.86,52.89 118.83,50.47 117.79,48.06 116.07,46.06 114.35,44.06 112.74,42.15 111.13,40.25 108.82,38.68 106.51,37.11 104.31,36.13 102.11,35.15 99.95,33.87 97.80,32.58 95.46,30.80 93.13,29.01 90.95,27.65 88.76,26.29 86.63,25.25 84.50,24.21 82.42,22.58 80.33,20.96 78.62,19.69 76.91,18.42 75.16,17.07 73.42,15.72 70.93,14.87 68.44,14.03 66.09,13.56 63.75,13.08 60.81,12.39 57.86,11.69 55.38,11.61 52.90,11.53 50.08,10.86 47.26,10.18 44.89,9.13 42.51,8.07 40.17,7.62 37.82,7.16 35.31,7.10 32.80,7.03 30.30,6.95 27.79,6.86 25.28,6.76 22.78,6.66 20.27,6.53 17.76,6.40 15.26,6.24 12.75,6.08 10.22,5.88 7.68,5.68 5.28,5.47 2.88,5.25 1.44,5.16 0,5.06 -0.60,4.99 -1.21,4.92 -1.78,4.70 -2.35,4.48 -2.85,4.14 -3.36,3.79 -3.76,3.33 -4.17,2.87 -4.45,2.33 -4.73,1.79 -4.88,1.20 -5.03,0.61 -5.03,-0.00 -5.03,-0.61 -4.88,-1.20 -4.73,-1.79 -4.45,-2.33 -4.17,-2.87 -3.76,-3.33 -3.36,-3.79 -2.85,-4.14 -2.35,-4.48 -1.78,-4.70 -1.21,-4.92 -0.60,-4.99 0.00,-5.06 0.00,-5.06 L 0,-5.06 Z"></path></g><g transform="translate(580.7576692304392 318.0116474095412) rotate(0 11.281732399993416 18.80288733332236)" stroke="none"><path fill="#1e1e1e" d="M 2.14,-4.81 Q 2.14,-4.81 4.31,-3.88 6.49,-2.95 9.42,-1.98 12.35,-1.02 15.43,-0.18 18.51,0.66 20.54,1.65 22.57,2.65 25.16,4.50 27.75,6.36 27.75,10.24 27.74,14.12 25.57,16.16 23.40,18.20 21.73,20.09 20.06,21.99 18.40,24.17 16.74,26.36 15.56,28.79 14.38,31.23 13.07,33.16 11.76,35.09 10.03,37.62 8.31,40.15 7.70,41.12 7.09,42.10 6.20,42.83 5.31,43.55 4.23,43.96 3.15,44.37 2.01,44.41 0.86,44.45 -0.24,44.12 -1.34,43.80 -2.28,43.13 -3.22,42.47 -3.90,41.54 -4.58,40.62 -4.93,39.52 -5.27,38.42 -5.25,37.27 -5.23,36.12 -4.85,35.04 -4.46,33.96 -3.75,33.05 -3.03,32.15 -2.07,31.52 -1.11,30.89 0.00,30.61 1.11,30.32 2.26,30.40 3.40,30.49 4.46,30.93 5.52,31.37 6.39,32.14 7.25,32.90 7.83,33.89 8.40,34.89 8.63,36.01 8.85,37.14 8.71,38.28 8.56,39.42 8.06,40.46 7.56,41.49 6.76,42.31 5.95,43.13 4.92,43.65 3.90,44.17 2.76,44.34 1.62,44.51 0.49,44.30 -0.63,44.09 -1.64,43.54 -2.64,42.98 -3.42,42.13 -4.19,41.28 -4.66,40.23 -5.12,39.18 -5.23,38.03 -5.33,36.89 -5.06,35.77 -4.79,34.65 -4.79,34.65 -4.79,34.65 -3.06,32.12 -1.32,29.60 -0.00,27.46 1.30,25.32 2.52,23.34 3.74,21.36 5.13,19.22 6.52,17.07 8.09,15.15 9.66,13.22 11.08,11.61 12.49,10.01 14.40,9.05 16.32,8.09 17.19,11.02 18.07,13.94 15.68,12.59 13.30,11.24 10.90,10.38 8.51,9.52 5.33,8.16 2.15,6.79 0.00,5.80 -2.14,4.81 -2.68,4.49 -3.23,4.16 -3.68,3.71 -4.13,3.26 -4.46,2.72 -4.79,2.18 -4.98,1.57 -5.17,0.97 -5.22,0.34 -5.26,-0.29 -5.15,-0.91 -5.03,-1.54 -4.78,-2.12 -4.52,-2.70 -4.13,-3.20 -3.74,-3.70 -3.24,-4.10 -2.74,-4.49 -2.16,-4.76 -1.59,-5.02 -0.96,-5.14 -0.34,-5.25 0.29,-5.22 0.92,-5.18 1.53,-5.00 2.14,-4.81 2.14,-4.81 L 2.14,-4.81 Z"></path></g><g transform="translate(704.438883689636 435.84307469835767) rotate(0 -3.3427355259227625 17.13151957036098)" stroke="none"><path fill="#1e1e1e" d="M 0,5.08 Q 0,5.08 -1.44,5.17 -2.88,5.26 -5.11,5.43 -7.34,5.60 -9.07,6.97 -10.80,8.34 -11.65,10.34 -12.50,12.35 -13.12,15.11 -13.74,17.87 -13.75,20.35 -13.76,22.83 -13.10,25.50 -12.44,28.16 -9.97,27.48 -7.49,26.80 -5.18,26.80 -2.87,26.80 -0.71,26.19 1.43,25.59 3.52,23.90 5.62,22.22 6.12,19.79 6.62,17.36 6.31,14.78 6.01,12.19 4.90,9.81 3.80,7.42 1.48,7.70 -0.83,7.98 -1.74,7.84 -2.65,7.70 -3.50,7.35 -4.35,7.00 -5.09,6.46 -5.83,5.92 -6.42,5.21 -7.01,4.50 -7.42,3.68 -7.82,2.85 -8.02,1.95 -8.21,1.05 -8.18,0.13 -8.16,-0.77 -7.91,-1.66 -7.67,-2.55 -7.21,-3.35 -6.76,-4.15 -6.13,-4.82 -5.51,-5.49 -4.73,-5.99 -3.96,-6.49 -3.09,-6.79 -2.22,-7.09 -1.31,-7.18 -0.39,-7.26 -1.26,-7.19 -2.13,-7.12 -0.89,-7.16 0.33,-7.21 1.51,-6.86 2.70,-6.51 3.71,-5.80 4.72,-5.09 5.45,-4.09 6.18,-3.10 6.55,-1.92 6.93,-0.74 6.90,0.48 6.88,1.72 6.47,2.88 6.06,4.04 5.29,5.01 4.53,5.98 3.49,6.66 2.46,7.33 1.27,7.64 0.07,7.95 -1.15,7.86 -2.38,7.77 -3.52,7.30 -4.66,6.82 -5.58,6.01 -6.51,5.19 -7.13,4.12 -7.75,3.05 -7.99,1.84 -8.24,0.63 -8.08,-0.58 -7.93,-1.80 -7.39,-2.92 -6.85,-4.03 -5.99,-4.91 -5.12,-5.79 -4.02,-6.35 -2.92,-6.91 -1.70,-7.09 -0.48,-7.27 0.72,-7.04 1.94,-6.82 3.02,-6.23 4.10,-5.63 4.93,-4.72 5.76,-3.81 6.26,-2.68 6.76,-1.55 6.87,-0.32 6.99,0.90 6.70,2.10 6.41,3.30 5.76,4.35 5.11,5.39 4.15,6.17 3.20,6.96 1.18,7.47 -0.83,7.98 -1.74,7.84 -2.65,7.70 -3.50,7.35 -4.35,7.00 -5.09,6.46 -5.83,5.92 -6.42,5.21 -7.01,4.50 -7.42,3.68 -7.82,2.85 -8.02,1.95 -8.21,1.05 -8.18,0.14 -8.16,-0.77 -7.91,-1.66 -7.67,-2.55 -7.22,-3.35 -6.76,-4.15 -6.14,-4.82 -5.51,-5.49 -4.73,-5.99 -3.96,-6.49 -3.09,-6.79 -2.23,-7.09 -1.31,-7.18 -0.39,-7.26 2.18,-6.90 4.76,-6.53 7.39,-5.87 10.03,-5.20 11.82,-4.03 13.62,-2.87 15.12,-1.28 16.62,0.29 17.66,2.35 18.70,4.41 19.54,6.55 20.38,8.70 21.09,11.35 21.80,13.99 21.77,16.38 21.74,18.76 21.24,21.16 20.74,23.55 19.95,26.12 19.16,28.69 17.09,31.42 15.02,34.15 11.59,36.56 8.16,38.98 5.97,39.82 3.78,40.65 0.45,41.19 -2.87,41.72 -5.77,41.71 -8.68,41.70 -10.92,41.63 -13.17,41.56 -15.72,40.81 -18.26,40.07 -21.36,37.85 -24.45,35.62 -25.59,33.47 -26.72,31.33 -27.41,28.72 -28.09,26.12 -28.04,23.96 -27.98,21.80 -27.46,19.38 -26.94,16.96 -26.43,14.47 -25.92,11.98 -25.26,9.74 -24.59,7.50 -23.53,5.57 -22.47,3.64 -20.60,1.84 -18.72,0.04 -16.63,-1.71 -14.54,-3.46 -11.29,-4.53 -8.03,-5.60 -5.46,-5.43 -2.88,-5.26 -1.44,-5.17 0,-5.08 0.60,-5.00 1.21,-4.93 1.78,-4.71 2.36,-4.50 2.86,-4.15 3.37,-3.80 3.77,-3.34 4.18,-2.88 4.46,-2.34 4.75,-1.80 4.89,-1.20 5.04,-0.61 5.04,0.00 5.04,0.61 4.89,1.20 4.75,1.80 4.46,2.34 4.18,2.88 3.77,3.34 3.37,3.80 2.86,4.15 2.36,4.50 1.78,4.71 1.21,4.93 0.60,5.00 -0.00,5.08 -0.00,5.08 L 0,5.08 Z"></path></g><g transform="translate(615.8563922526482 664.8204582241597) rotate(0 45.544771540715374 0.41784194073989056)" stroke="none"><path fill="#1e1e1e" d="M 0,-5.36 Q 0,-5.36 1.92,-5.42 3.84,-5.48 6.99,-5.60 10.14,-5.73 12.87,-5.84 15.59,-5.95 17.80,-6.05 20.00,-6.15 23.08,-6.26 26.15,-6.38 28.98,-6.47 31.82,-6.56 34.50,-6.64 37.17,-6.72 40.08,-6.77 42.98,-6.83 45.52,-6.88 48.06,-6.94 50.32,-6.95 52.57,-6.97 55.66,-7.00 58.74,-7.03 61.33,-7.06 63.93,-7.10 66.54,-7.11 69.15,-7.12 71.55,-6.77 73.95,-6.42 76.35,-6.45 78.76,-6.48 81.27,-6.52 83.78,-6.56 87.30,-6.59 90.82,-6.61 92.01,-6.42 93.20,-6.22 94.27,-5.66 95.33,-5.09 96.16,-4.22 96.99,-3.34 97.50,-2.25 98.01,-1.15 98.14,0.04 98.27,1.23 98.01,2.41 97.75,3.59 97.13,4.62 96.50,5.66 95.58,6.44 94.67,7.22 93.54,7.67 92.42,8.11 91.22,8.18 90.02,8.24 88.85,7.92 87.69,7.60 86.69,6.92 85.69,6.24 84.96,5.28 84.23,4.32 83.85,3.18 83.46,2.04 83.46,0.83 83.47,-0.37 83.85,-1.51 84.24,-2.65 84.97,-3.61 85.70,-4.57 86.69,-5.25 87.69,-5.93 88.86,-6.25 90.02,-6.57 91.22,-6.51 92.43,-6.44 93.55,-5.99 94.67,-5.55 95.59,-4.77 96.51,-3.98 97.13,-2.95 97.75,-1.92 98.01,-0.74 98.27,0.43 98.14,1.63 98.01,2.83 97.50,3.92 96.99,5.02 96.16,5.89 95.33,6.77 94.27,7.33 93.20,7.90 92.01,8.09 90.82,8.29 90.82,8.29 90.82,8.29 86.88,8.25 82.95,8.22 80.42,8.18 77.89,8.14 75.64,8.09 73.39,8.04 71.07,7.58 68.76,7.12 66.35,7.11 63.93,7.10 61.33,7.06 58.74,7.03 55.66,7.00 52.57,6.97 50.32,6.95 48.06,6.94 45.52,6.88 42.98,6.83 40.08,6.77 37.17,6.72 34.50,6.64 31.82,6.56 28.98,6.47 26.15,6.38 23.08,6.26 20.00,6.15 17.80,6.05 15.59,5.95 12.87,5.84 10.14,5.73 6.99,5.60 3.84,5.48 1.92,5.42 0,5.36 -0.64,5.28 -1.28,5.20 -1.88,4.97 -2.49,4.74 -3.02,4.37 -3.55,4.01 -3.98,3.52 -4.41,3.04 -4.71,2.47 -5.01,1.90 -5.16,1.27 -5.32,0.64 -5.32,-0.00 -5.32,-0.64 -5.16,-1.27 -5.01,-1.90 -4.71,-2.47 -4.41,-3.04 -3.98,-3.52 -3.55,-4.01 -3.02,-4.37 -2.49,-4.74 -1.88,-4.97 -1.28,-5.20 -0.64,-5.28 0.00,-5.36 0.00,-5.36 L 0,-5.36 Z"></path></g><g transform="translate(614.1850244896887 665.6561421056394) rotate(0 45.962613481455264 17.54936151110087)" stroke="none"><path fill="#1e1e1e" d="M 5.25,0 Q 5.25,0 5.30,2.16 5.35,4.32 5.50,7.14 5.64,9.95 5.80,12.45 5.97,14.95 6.13,17.80 6.29,20.65 6.40,22.93 6.52,25.20 6.63,27.74 6.73,30.28 4.69,28.43 2.64,26.58 4.92,26.48 7.21,26.38 9.67,26.38 12.12,26.38 15.26,26.36 18.40,26.34 20.58,26.33 22.77,26.32 24.91,26.32 27.04,26.31 29.33,26.65 31.62,27.00 33.90,27.03 36.19,27.06 39.16,27.05 42.14,27.05 45.07,27.04 47.99,27.03 50.68,27.02 53.36,27.00 56.77,27.60 60.18,28.20 62.60,27.94 65.02,27.69 67.21,27.67 69.41,27.65 72.21,27.63 75.00,27.60 77.22,27.59 79.44,27.58 81.61,27.56 83.78,27.54 86.29,27.52 88.80,27.50 87.11,28.92 85.42,30.33 84.86,27.85 84.30,25.36 84.31,22.90 84.33,20.44 83.97,18.18 83.62,15.92 82.90,13.79 82.17,11.66 83.19,11.88 84.21,12.11 83.35,11.23 82.48,10.34 81.95,9.23 81.41,8.12 81.25,6.89 81.10,5.67 81.35,4.46 81.59,3.25 82.21,2.18 82.83,1.11 83.76,0.30 84.69,-0.51 85.83,-0.99 86.97,-1.46 88.20,-1.55 89.43,-1.63 90.63,-1.32 91.82,-1.01 92.86,-0.34 93.89,0.33 94.65,1.30 95.41,2.27 95.83,3.44 96.24,4.60 96.26,5.83 96.28,7.07 95.91,8.25 95.53,9.42 94.80,10.42 94.07,11.41 93.06,12.12 92.05,12.83 90.86,13.18 89.68,13.53 88.44,13.48 87.21,13.44 86.05,13.00 84.90,12.56 83.95,11.78 82.99,10.99 82.34,9.94 81.68,8.90 81.40,7.69 81.11,6.49 81.23,5.26 81.34,4.03 81.84,2.90 82.34,1.77 83.18,0.86 84.01,-0.04 85.09,-0.63 86.18,-1.23 87.39,-1.45 88.61,-1.67 89.83,-1.49 91.05,-1.31 92.15,-0.74 93.25,-0.18 93.25,-0.18 93.25,-0.19 94.81,3.33 96.38,6.86 97.53,10.73 98.68,14.60 99.09,16.87 99.50,19.14 99.51,21.44 99.53,23.75 99.53,25.99 99.54,28.22 99.51,31.01 99.48,33.79 98.69,36.34 97.90,38.89 95.84,40.17 93.79,41.46 90.46,42.07 87.12,42.68 84.61,42.66 82.10,42.64 79.56,42.62 77.02,42.60 74.78,42.58 72.55,42.57 69.77,42.55 67.00,42.52 64.86,42.50 62.72,42.48 60.34,42.40 57.96,42.32 55.02,41.91 52.08,41.49 49.15,41.49 46.23,41.48 43.28,41.46 40.34,41.45 38.21,41.44 36.07,41.43 33.19,41.33 30.30,41.22 26.53,40.87 22.77,40.52 20.58,40.51 18.40,40.51 15.26,40.48 12.12,40.46 8.87,40.45 5.62,40.43 3.49,40.35 1.36,40.27 -1.00,39.53 -3.37,38.78 -4.54,36.91 -5.71,35.03 -6.22,32.66 -6.73,30.28 -6.63,27.74 -6.52,25.20 -6.40,22.93 -6.29,20.65 -6.13,17.80 -5.97,14.95 -5.80,12.45 -5.64,9.95 -5.50,7.14 -5.35,4.32 -5.30,2.16 -5.25,0 -5.17,-0.62 -5.10,-1.25 -4.87,-1.85 -4.65,-2.44 -4.29,-2.96 -3.93,-3.48 -3.45,-3.90 -2.98,-4.32 -2.42,-4.61 -1.86,-4.91 -1.24,-5.06 -0.63,-5.21 0.00,-5.21 0.63,-5.21 1.24,-5.06 1.86,-4.91 2.42,-4.61 2.98,-4.32 3.45,-3.90 3.93,-3.48 4.29,-2.96 4.65,-2.44 4.87,-1.84 5.10,-1.25 5.17,-0.62 5.25,0.00 5.25,0.00 L 5.25,0 Z"></path></g><g transform="translate(636.7484892896719 719.9755944019053) rotate(0 30.502461674057486 5.849787170369382)" stroke="none"><path fill="#1e1e1e" d="M 0,-5.34 Q 0,-5.34 2.40,-5.36 4.80,-5.38 8.24,-5.51 11.69,-5.64 14.46,-5.76 17.24,-5.88 19.80,-5.98 22.36,-6.08 24.92,-6.20 27.48,-6.32 29.72,-6.44 31.96,-6.56 34.30,-6.66 36.63,-6.76 38.95,-7.22 41.28,-7.69 43.41,-7.76 45.53,-7.83 47.66,-8.31 49.79,-8.79 52.16,-8.86 54.52,-8.92 57.03,-8.97 59.55,-9.01 62.42,-8.43 65.30,-7.85 67.31,-6.60 69.32,-5.35 70.09,-2.85 70.87,-0.35 70.45,2.26 70.03,4.88 69.37,7.31 68.71,9.74 67.04,13.34 65.37,16.93 62.02,18.87 58.66,20.81 55.90,20.82 53.13,20.84 50.59,20.84 48.04,20.85 45.14,20.84 42.24,20.83 39.86,20.84 37.47,20.86 34.93,20.87 32.38,20.89 29.87,20.92 27.35,20.94 24.85,20.96 22.34,20.98 19.91,20.99 17.48,21.00 15.31,21.01 13.15,21.02 9.19,20.29 5.22,19.57 2.92,19.27 0.61,18.96 -2.47,17.04 -5.56,15.12 -6.33,12.91 -7.10,10.71 -8.18,8.68 -9.25,6.64 -8.53,2.59 -7.81,-1.45 -7.10,-2.46 -6.39,-3.48 -5.39,-4.21 -4.39,-4.95 -3.20,-5.33 -2.02,-5.70 -0.78,-5.68 0.45,-5.66 1.62,-5.25 2.79,-4.83 3.77,-4.06 4.74,-3.30 5.42,-2.26 6.10,-1.22 6.41,-0.02 6.73,1.17 6.64,2.41 6.55,3.65 6.07,4.80 5.59,5.94 4.78,6.87 3.96,7.81 2.88,8.43 1.81,9.05 0.59,9.30 -0.61,9.54 -1.85,9.39 -3.08,9.24 -4.20,8.70 -5.31,8.16 -6.20,7.29 -7.09,6.42 -7.65,5.31 -8.21,4.21 -8.39,2.98 -8.58,1.75 -8.35,0.53 -8.13,-0.68 -7.53,-1.77 -6.93,-2.86 -6.02,-3.70 -5.10,-4.53 -3.97,-5.04 -2.83,-5.54 -1.60,-5.65 -0.36,-5.77 0.84,-5.48 2.04,-5.19 3.10,-4.53 4.15,-3.88 4.94,-2.92 5.73,-1.96 6.17,-0.80 6.61,0.35 6.65,1.59 6.70,2.83 6.35,4.02 6.00,5.21 6.00,5.21 6.00,5.21 6.03,4.85 6.06,4.48 4.70,2.77 3.34,1.06 5.72,3.01 8.09,4.96 10.62,5.33 13.15,5.71 15.31,5.72 17.48,5.74 19.91,5.75 22.34,5.76 24.85,5.77 27.35,5.79 29.87,5.82 32.38,5.84 34.93,5.86 37.47,5.88 39.86,5.89 42.24,5.91 45.13,5.89 48.02,5.88 50.51,5.87 53.00,5.86 55.22,5.79 57.44,5.73 55.31,7.67 53.18,9.61 53.95,7.35 54.71,5.08 55.43,3.08 56.15,1.08 57.85,3.37 59.55,5.67 57.04,5.62 54.53,5.58 52.17,5.35 49.81,5.12 46.72,5.34 43.64,5.55 40.13,6.15 36.63,6.76 34.30,6.66 31.96,6.56 29.72,6.44 27.48,6.32 24.92,6.20 22.36,6.08 19.80,5.98 17.24,5.88 14.46,5.76 11.69,5.64 8.24,5.51 4.80,5.38 2.40,5.36 0,5.34 -0.63,5.26 -1.27,5.18 -1.88,4.95 -2.48,4.73 -3.01,4.36 -3.54,3.99 -3.96,3.51 -4.39,3.03 -4.69,2.46 -4.99,1.89 -5.14,1.26 -5.30,0.64 -5.30,-0.00 -5.30,-0.64 -5.14,-1.26 -4.99,-1.89 -4.69,-2.46 -4.39,-3.03 -3.96,-3.51 -3.54,-3.99 -3.01,-4.36 -2.48,-4.73 -1.88,-4.95 -1.27,-5.18 -0.63,-5.26 0.00,-5.34 0.00,-5.34 L 0,-5.34 Z"></path></g><g transform="translate(392.72879589721197 561.195656920514) rotate(0 5.014103288885963 9.192522696292144)" stroke="none"><path fill="#1e1e1e" d="M 1.87,4.69 Q 1.87,4.69 0.75,5.23 -0.37,5.78 -0.70,9.09 -1.04,12.41 0.96,13.95 2.97,15.49 5.34,15.07 7.70,14.65 8.51,12.64 9.33,10.63 9.31,8.22 9.30,5.80 8.54,3.80 7.78,1.81 9.28,3.36 10.79,4.91 8.61,4.57 6.43,4.24 6.83,3.55 7.22,2.86 6.37,3.74 5.53,4.63 4.44,5.20 3.35,5.77 2.14,5.96 0.93,6.15 -0.27,5.95 -1.48,5.74 -2.56,5.17 -3.64,4.59 -4.48,3.69 -5.31,2.80 -5.82,1.68 -6.33,0.57 -6.46,-0.64 -6.59,-1.86 -6.32,-3.06 -6.05,-4.25 -5.41,-5.30 -4.77,-6.35 -3.84,-7.14 -2.90,-7.93 -1.76,-8.38 -0.62,-8.82 0.60,-8.89 1.82,-8.95 3.00,-8.61 4.18,-8.28 5.19,-7.59 6.21,-6.89 6.94,-5.91 7.68,-4.93 8.07,-3.77 8.45,-2.61 8.45,-1.38 8.44,-0.15 8.04,1.00 7.65,2.16 6.90,3.13 6.15,4.10 5.13,4.78 4.12,5.47 2.93,5.79 1.75,6.11 0.53,6.04 -0.69,5.97 -1.82,5.51 -2.96,5.05 -3.89,4.25 -4.82,3.45 -5.45,2.40 -6.08,1.34 -6.33,0.15 -6.59,-1.04 -6.45,-2.26 -6.31,-3.48 -5.79,-4.59 -5.27,-5.70 -5.27,-5.70 -5.27,-5.70 -0.23,-8.32 4.80,-10.94 7.07,-10.90 9.34,-10.86 11.51,-10.31 13.68,-9.75 16.02,-8.40 18.36,-7.05 20.11,-4.26 21.85,-1.47 22.99,2.01 24.12,5.50 24.11,8.08 24.09,10.65 23.99,13.16 23.90,15.68 23.05,18.39 22.20,21.11 20.32,23.36 18.44,25.62 16.02,26.83 13.59,28.04 10.64,28.42 7.68,28.80 5.27,28.73 2.86,28.66 0.12,28.07 -2.61,27.49 -4.62,26.72 -6.63,25.95 -8.59,23.95 -10.54,21.96 -11.86,19.02 -13.17,16.09 -13.04,13.86 -12.90,11.63 -12.33,9.53 -11.76,7.43 -11.07,5.29 -10.38,3.15 -9.28,0.99 -8.18,-1.16 -6.31,-2.51 -4.43,-3.85 -3.15,-4.27 -1.87,-4.69 -1.28,-4.85 -0.70,-5.00 -0.09,-5.02 0.51,-5.03 1.11,-4.89 1.70,-4.76 2.25,-4.48 2.79,-4.21 3.26,-3.81 3.72,-3.42 4.08,-2.92 4.43,-2.43 4.66,-1.86 4.88,-1.29 4.97,-0.69 5.05,-0.09 4.99,0.51 4.93,1.12 4.72,1.69 4.52,2.26 4.18,2.77 3.84,3.28 3.39,3.69 2.94,4.11 2.41,4.40 1.87,4.69 1.87,4.69 L 1.87,4.69 Z"></path></g><g transform="translate(711.1243547414815 751.7315818981806) rotate(0 17.54936151110087 0.41784194073989056)" stroke="none"><path fill="#1e1e1e" d="M 0,-5.28 Q 0,-5.28 2.64,-5.28 5.28,-5.28 9.21,-5.40 13.14,-5.51 15.61,-5.51 18.08,-5.52 20.98,-5.65 23.88,-5.78 26.89,-5.57 29.90,-5.36 32.39,-5.36 34.87,-5.36 35.86,-5.19 36.85,-5.02 37.73,-4.55 38.61,-4.07 39.30,-3.34 39.98,-2.60 40.39,-1.69 40.81,-0.77 40.91,0.21 41.01,1.21 40.79,2.19 40.56,3.17 40.04,4.02 39.52,4.88 38.75,5.52 37.98,6.17 37.04,6.53 36.11,6.89 35.10,6.94 34.10,6.99 33.14,6.71 32.17,6.44 31.35,5.87 30.52,5.30 29.92,4.49 29.32,3.69 29.01,2.74 28.69,1.78 28.70,0.78 28.71,-0.21 29.04,-1.16 29.37,-2.11 29.98,-2.90 30.59,-3.70 31.43,-4.25 32.26,-4.81 33.23,-5.07 34.20,-5.33 35.20,-5.27 36.20,-5.21 37.13,-4.83 38.06,-4.45 38.82,-3.79 39.58,-3.14 40.09,-2.27 40.60,-1.41 40.81,-0.43 41.02,0.54 40.90,1.54 40.78,2.53 40.35,3.44 39.93,4.35 39.23,5.07 38.53,5.79 37.64,6.26 36.75,6.72 35.76,6.87 34.77,7.03 34.77,7.03 34.77,7.03 32.25,6.88 29.72,6.74 26.80,6.26 23.88,5.78 20.98,5.65 18.08,5.52 15.61,5.51 13.14,5.51 9.21,5.40 5.28,5.28 2.64,5.28 0,5.28 -0.63,5.20 -1.26,5.13 -1.85,4.90 -2.45,4.67 -2.97,4.31 -3.50,3.95 -3.92,3.47 -4.34,3.00 -4.64,2.43 -4.94,1.87 -5.09,1.25 -5.24,0.63 -5.24,-0.00 -5.24,-0.63 -5.09,-1.25 -4.94,-1.87 -4.64,-2.43 -4.34,-3.00 -3.92,-3.47 -3.50,-3.95 -2.97,-4.31 -2.45,-4.67 -1.85,-4.90 -1.26,-5.13 -0.63,-5.20 0.00,-5.28 0.00,-5.28 L 0,-5.28 Z"></path></g><g transform="translate(665.9974251415078 775.1307305796581) rotate(0 38.02361660738461 0)" stroke="none"><path fill="#1e1e1e" d="M 0,-5.23 Q 0,-5.23 2.40,-5.26 4.80,-5.29 8.59,-5.42 12.37,-5.54 16.38,-5.62 20.38,-5.70 22.69,-5.70 25.00,-5.70 27.18,-5.72 29.36,-5.74 31.49,-5.76 33.62,-5.77 37.24,-5.85 40.86,-5.92 44.25,-5.99 47.64,-6.06 50.75,-6.12 53.87,-6.19 56.24,-6.26 58.62,-6.34 60.76,-6.40 62.90,-6.47 65.50,-6.55 68.11,-6.64 71.94,-6.73 75.78,-6.81 76.87,-6.63 77.96,-6.46 78.93,-5.94 79.91,-5.42 80.66,-4.62 81.42,-3.82 81.89,-2.82 82.35,-1.82 82.47,-0.72 82.59,0.36 82.35,1.44 82.11,2.52 81.54,3.46 80.98,4.41 80.14,5.12 79.29,5.84 78.27,6.25 77.24,6.65 76.14,6.71 75.04,6.77 73.98,6.48 72.92,6.18 72.00,5.56 71.09,4.94 70.42,4.07 69.75,3.19 69.40,2.14 69.05,1.10 69.05,-0.00 69.05,-1.10 69.40,-2.14 69.76,-3.19 70.42,-4.07 71.09,-4.95 72.00,-5.56 72.92,-6.18 73.98,-6.48 75.04,-6.77 76.15,-6.71 77.25,-6.65 78.27,-6.25 79.30,-5.84 80.14,-5.12 80.98,-4.41 81.55,-3.46 82.11,-2.52 82.35,-1.44 82.59,-0.36 82.47,0.72 82.35,1.82 81.89,2.82 81.42,3.82 80.66,4.62 79.90,5.42 78.93,5.94 77.95,6.46 76.87,6.64 75.78,6.81 75.78,6.81 75.78,6.81 71.94,6.73 68.11,6.64 65.50,6.55 62.90,6.47 60.76,6.40 58.62,6.34 56.24,6.26 53.87,6.19 50.75,6.12 47.64,6.06 44.25,5.99 40.86,5.92 37.24,5.85 33.62,5.77 31.49,5.76 29.36,5.74 27.18,5.72 25.00,5.70 22.69,5.70 20.38,5.70 16.38,5.62 12.37,5.54 8.59,5.42 4.80,5.29 2.40,5.26 0,5.23 -0.62,5.15 -1.25,5.08 -1.84,4.85 -2.43,4.63 -2.95,4.27 -3.47,3.91 -3.88,3.44 -4.30,2.97 -4.60,2.41 -4.89,1.85 -5.04,1.24 -5.19,0.63 -5.19,-0.00 -5.19,-0.63 -5.04,-1.24 -4.89,-1.85 -4.60,-2.41 -4.30,-2.97 -3.88,-3.44 -3.47,-3.91 -2.95,-4.27 -2.43,-4.63 -1.84,-4.85 -1.25,-5.08 -0.62,-5.15 0.00,-5.23 0.00,-5.23 L 0,-5.23 Z"></path></g><g stroke-linecap="round" transform="translate(192.93422974608984 66.93559946724054) rotate(0 59.197925083804876 16.729848393248176)"><path d="M1.08 15.52 C1.08 15.52, 1.08 15.52, 1.08 15.52 M1.08 15.52 C1.08 15.52, 1.08 15.52, 1.08 15.52 M10.94 27.57 C12.67 25.57, 15.35 23.11, 24 14.1 M11.1 28.64 C15.26 23.58, 18.03 19.61, 22.8 15.62 M29.86 33.34 C34.38 27.05, 38.89 20.54, 50.37 8.54 M27.47 34.37 C35.35 26.21, 42.07 17.32, 49.2 8.35 M43.36 43.35 C54.45 29.27, 63.86 17.35, 77.35 3.11 M41.56 41.32 C55.4 26.04, 68.99 11.65, 75.09 3.96 M68.51 34.64 C78.96 25.63, 87.82 10.91, 94.64 4.05 M67.3 36.12 C74.64 28.63, 82.12 20.07, 93.95 4.69 M91.03 35.45 C95.5 30.64, 101.49 22.63, 110.06 13.14 M90.6 33.05 C97.23 28.07, 102.7 21.2, 110.24 11.27 M7.62 24.77 C7.62 24.77, 7.62 24.77, 7.62 24.77 M7.62 24.77 C7.62 24.77, 7.62 24.77, 7.62 24.77 M36.19 27.63 C27.01 20.1, 22.76 17.71, 10.69 5.75 M35.06 26.51 C26.43 18.78, 16.17 11.62, 10.61 6.16 M65.41 30.66 C49.86 17.54, 30.66 2.84, 22.67 -6.25 M64.87 30.73 C47.96 18.07, 32.48 4.42, 21.38 -6.04 M86.03 27.67 C73.22 17.61, 62.39 8.03, 45.91 -5.5 M85.12 28.81 C73.03 19.21, 62.01 8.23, 45.33 -6.48 M103.61 20.62 C95.72 16.85, 90.94 10.32, 73.91 -0.07 M101.53 22.43 C94.31 14.52, 85.99 8.42, 75.47 -1.45" stroke="#ffd8a8" stroke-width="2" fill="none"></path><path d="M37.85 0.34 C47.16 -0.75, 61.53 -0.39, 72.15 0.23 C82.76 0.86, 94.2 1.85, 101.53 4.12 C108.86 6.39, 114.1 10.65, 116.14 13.85 C118.18 17.04, 117.27 20.68, 113.77 23.31 C110.26 25.95, 103.54 28.12, 95.11 29.67 C86.67 31.23, 73.87 32.31, 63.15 32.64 C52.44 32.97, 40.1 33, 30.8 31.65 C21.51 30.3, 12.35 27.19, 7.36 24.55 C2.37 21.9, 0.2 18.86, 0.85 15.78 C1.51 12.71, 3.81 8.51, 11.28 6.1 C18.74 3.69, 38.28 2.13, 45.64 1.31 C53 0.5, 54.98 1.15, 55.43 1.2 M62.92 -0.96 C72.81 -0.94, 85.8 0.76, 94.64 2.71 C103.47 4.65, 112.3 7.82, 115.93 10.72 C119.55 13.62, 118.79 16.98, 116.38 20.12 C113.98 23.26, 108.82 27.29, 101.5 29.54 C94.18 31.79, 83.2 33.17, 72.45 33.61 C61.7 34.05, 47.39 33.25, 37 32.2 C26.61 31.16, 16.42 29.95, 10.11 27.34 C3.8 24.73, -0.47 19.48, -0.87 16.54 C-1.27 13.59, 2.2 12.34, 7.72 9.66 C13.23 6.99, 23 1.9, 32.22 0.49 C41.44 -0.92, 57.52 1.44, 63.04 1.21 C68.56 0.98, 65.22 -0.81, 65.33 -0.86" stroke="#f08c00" stroke-width="4" fill="none"></path></g><g stroke-linecap="round"><g transform="translate(195.50805257582033 87.52618210508444) rotate(0 0.22399761527776718 47.22255752442652)"><path d="M1.79 0.76 C-1.13 37.95, 1.08 74.12, -1.35 94.37 M-0.12 0 C-0.43 34.45, 1.31 70.04, 0.08 94.44" stroke="#f08c00" stroke-width="4" fill="none"></path></g></g><mask></mask><g stroke-linecap="round"><g transform="translate(308.7562570839691 87.52618210508444) rotate(0 0.10704929195344448 47.22689054368311)"><path d="M0.47 1.33 C-1.31 21.38, -1.04 47.26, 1.04 92.18 M-0.82 0.52 C0.5 36.81, 1.32 75.46, 0.62 93.93" stroke="#f08c00" stroke-width="4" fill="none"></path></g></g><mask></mask><g stroke-linecap="round" transform="translate(194.22114116096054 162.1670441672686) rotate(0 59.197925083804876 16.729848393248176)"><path d="M1.36 14.43 C1.36 14.43, 1.36 14.43, 1.36 14.43 M1.36 14.43 C1.36 14.43, 1.36 14.43, 1.36 14.43 M10.5 27.86 C13.05 23.67, 16.94 19.49, 20.35 15.35 M10.57 27.65 C12.57 24.98, 15.21 22.27, 20.03 16.49 M27.75 33.48 C33.55 23.66, 37.62 18.82, 46.38 8.86 M29.16 32.26 C36.02 23.39, 42.2 16.3, 47.79 9.1 M43.95 39.26 C49.07 32.67, 55.12 26.97, 73.1 5.23 M41.68 40.35 C53.83 26.73, 66.53 14.04, 74.45 3.55 M67.32 35.94 C74.46 30.09, 78.77 23.21, 94.33 7.14 M66.54 36 C73.24 27.98, 79.88 21.68, 92.13 7.49 M90.1 34.38 C97.21 27.07, 99.72 20.89, 108.95 14.24 M89.58 33.99 C97.46 25.59, 105.38 17.25, 108.93 12.28 M8.39 25.41 C8.39 25.41, 8.39 25.41, 8.39 25.41 M8.39 25.41 C8.39 25.41, 8.39 25.41, 8.39 25.41 M35.8 28.09 C29.17 21.25, 24.85 16.12, 12.31 7.56 M33.6 26.76 C25.47 18.66, 17.97 11.42, 10.7 6.6 M64.35 32.54 C57.89 23.98, 49.8 20.12, 29.91 1.19 M63.76 31.86 C50.86 20.95, 39.75 9.54, 30.18 3.43 M84.88 29.17 C72.73 16.12, 56.28 4.05, 45.82 -6.8 M86.48 29.3 C72.14 16.14, 56.26 4.65, 45.76 -4.57 M102.18 22.99 C90.02 10.16, 78.86 1.06, 73.92 -1.65 M100.76 21.08 C93.2 15.37, 85.22 7.72, 74 -2.74" stroke="#ffd8a8" stroke-width="2" fill="none"></path><path d="M39.09 1.79 C48.18 0.59, 60.58 0.67, 70.73 1.14 C80.88 1.61, 92.42 2.47, 100.02 4.62 C107.62 6.76, 113.79 11.03, 116.34 14.02 C118.89 17.02, 119.02 19.9, 115.33 22.59 C111.64 25.28, 102.91 28.51, 94.19 30.18 C85.48 31.84, 73.64 32.49, 63.02 32.58 C52.4 32.66, 39.6 31.92, 30.45 30.69 C21.3 29.46, 13.03 27.85, 8.14 25.2 C3.24 22.54, 0.63 17.67, 1.08 14.75 C1.54 11.83, 3.6 9.99, 10.88 7.68 C18.16 5.37, 38.07 2.14, 44.76 0.9 C51.46 -0.35, 50.99 0.14, 51.04 0.21 M69.16 0.28 C79.63 0.53, 92.57 3.01, 100.53 5.11 C108.5 7.22, 114.44 10.02, 116.98 12.89 C119.51 15.76, 119.04 19.67, 115.75 22.34 C112.46 25, 105.63 26.93, 97.24 28.87 C88.86 30.81, 76.22 33.72, 65.44 33.98 C54.66 34.24, 42.22 31.75, 32.58 30.45 C22.94 29.14, 13.13 28.5, 7.62 26.15 C2.1 23.8, -0.78 19.63, -0.52 16.35 C-0.26 13.07, 3.17 8.93, 9.15 6.47 C15.14 4.01, 25.19 2.84, 35.38 1.61 C45.57 0.39, 64.62 -0.87, 70.3 -0.89 C75.97 -0.91, 69.96 1.28, 69.44 1.52" stroke="#f08c00" stroke-width="4" fill="none"></path></g><g stroke-linecap="round" transform="translate(610.1359711911682 795.3274602808888) rotate(0 70.7801278175939 19.947126930412196)"><path d="M1.08 18.16 C1.08 18.16, 1.08 18.16, 1.08 18.16 M1.08 18.16 C1.08 18.16, 1.08 18.16, 1.08 18.16 M10.5 31.56 C14.58 29.76, 16.56 24.46, 23.1 17.53 M9.23 33.39 C14.94 27.83, 18.27 21.26, 23.64 16.14 M25.72 37.69 C35.64 26.43, 43.67 18.79, 50.07 10.69 M25.65 37.02 C34.81 27.65, 41.97 20.25, 52.05 8.12 M39.29 45.55 C47.37 35.14, 58.77 25.5, 79.86 -0.25 M39.91 46.43 C51.76 34.21, 60.54 22.51, 80.52 -0.26 M64.69 39.53 C79.39 26.66, 91.25 12.85, 99.93 1.18 M66.7 40.65 C76.49 27.66, 88.29 16.78, 98.44 2.8 M89.03 38.33 C95.34 34.31, 100.2 26.32, 116.29 5.68 M88.21 39.05 C95.8 31.48, 103.56 23.06, 117.03 7.99 M106.66 42.4 C113.62 37.8, 118.56 31.11, 133.66 13.61 M106.17 44.38 C114.41 35.57, 122.18 27.04, 131.89 13.93 M5.8 28.39 C5.8 28.39, 5.8 28.39, 5.8 28.39 M5.8 28.39 C5.8 28.39, 5.8 28.39, 5.8 28.39 M34.58 31.87 C25.08 25.15, 17.79 17.3, 8.74 8.26 M33.3 30.76 C26.3 25.79, 18.5 18.19, 9.66 8.79 M67.25 37.67 C47.92 20.75, 31.45 5.89, 22.55 0.63 M64.36 37.79 C52.79 25.51, 38.73 14.29, 20.04 -0.06 M88.55 38.29 C73.68 22.48, 59.2 10.11, 46.81 -0.14 M88.94 37.7 C77.56 28.53, 68.1 19.22, 45.6 -0.31 M104.22 30.48 C98.01 21.41, 87.47 17.11, 67.39 -1.84 M105.17 30.27 C94.76 22.28, 86.17 12.62, 68.96 -1.69 M131.61 32.17 C110.47 15.48, 96.14 -0.03, 85.45 -10.09 M129.31 29.82 C117.65 20.25, 105.81 10.33, 85.94 -7.71 M141.62 19.39 C136.84 13.1, 126.87 5.67, 115.38 -0.36 M142.07 19.85 C134.92 12.96, 126.5 6.32, 117.85 -2.08" stroke="#b2f2bb" stroke-width="2" fill="none"></path><path d="M78.48 -0.48 C89.6 -0.48, 102.79 1.4, 112.19 3.41 C121.59 5.41, 130.18 8.43, 134.88 11.54 C139.57 14.64, 141.44 18.66, 140.37 22.04 C139.3 25.41, 135.37 29.21, 128.47 31.81 C121.57 34.42, 109.65 36.41, 98.96 37.66 C88.27 38.91, 75.94 39.55, 64.34 39.33 C52.74 39.12, 39.07 38.16, 29.35 36.37 C19.64 34.59, 10.79 31.63, 6.06 28.61 C1.33 25.6, -0.19 21.75, 0.97 18.29 C2.14 14.82, 6.07 10.62, 13.05 7.82 C20.03 5.02, 30.42 2.52, 42.88 1.49 C55.35 0.45, 78.51 1.53, 87.85 1.61 C97.18 1.69, 99.16 1.71, 98.87 1.99 M76.46 -0.98 C87.78 -0.78, 101.44 2.31, 111.29 4.11 C121.14 5.9, 130.53 6.76, 135.54 9.79 C140.56 12.82, 142.21 18.82, 141.37 22.29 C140.53 25.76, 136.84 28.21, 130.51 30.61 C124.18 33, 113.83 35.02, 103.38 36.68 C92.93 38.34, 79.77 40.46, 67.81 40.56 C55.84 40.67, 41.81 39.31, 31.6 37.31 C21.39 35.31, 11.74 31.66, 6.55 28.59 C1.37 25.51, -0.6 22.25, 0.5 18.87 C1.59 15.48, 6.7 10.87, 13.13 8.3 C19.56 5.72, 28.72 4.65, 39.08 3.43 C49.43 2.2, 68.99 1.23, 75.25 0.95 C81.51 0.66, 76.83 1.29, 76.61 1.71" stroke="#2f9e44" stroke-width="4" fill="none"></path></g><g stroke-linecap="round"><g transform="translate(611.4228826060389 815.9180429187327) rotate(0 13.385699484684665 51.17553508281344)"><path d="M-0.88 0.56 C10.28 36.84, 20.36 74.64, 27.65 100.79 M-0.14 -0.27 C11.04 37.84, 19.82 75.55, 26.38 102.63" stroke="#2f9e44" stroke-width="4" fill="none"></path></g></g><mask></mask><g stroke-linecap="round"><g transform="translate(752.9831382412231 819.7787771633302) rotate(0 -16.988570179764793 52.390793966053025)"><path d="M0.32 0.29 C-15.06 36.4, -24.24 74.07, -32.95 103.15 M-0.32 -0.15 C-12.2 35.06, -24.79 69.11, -34.3 104.93" stroke="#2f9e44" stroke-width="4" fill="none"></path></g></g><mask></mask><g stroke-linecap="round"><g transform="translate(642.3087565628048 920.1578675228266) rotate(0 36.902665611234625 0.32039990462362766)"><path d="M1.94 1.23 C23.3 1.96, 45.15 -1.25, 73.48 1.44 M0.32 -0.35 C20.28 0.05, 42.07 1.35, 71.93 -0.8" stroke="#2f9e44" stroke-width="4" fill="none"></path></g></g><mask></mask><g stroke-linecap="round" transform="translate(10 10) rotate(0 463.1194046512137 485.82133625176357)"><path d="M32 0 M32 0 C245.37 -5.79, 459.71 -4.32, 894.24 0 M32 0 C222.53 4.21, 413.53 3.95, 894.24 0 M894.24 0 C914.71 0.86, 925.09 7.84, 926.24 32 M894.24 0 C912.79 -1.04, 926.18 12.9, 926.24 32 M926.24 32 C927.8 267.74, 927.22 500.9, 926.24 939.64 M926.24 32 C927.52 389.98, 928.82 746.77, 926.24 939.64 M926.24 939.64 C923.74 964.34, 918.59 969.61, 894.24 971.64 M926.24 939.64 C930.25 961.61, 918.78 968.69, 894.24 971.64 M894.24 971.64 C633.15 965.57, 374.29 964.24, 32 971.64 M894.24 971.64 C589.61 969.4, 283.87 968.66, 32 971.64 M32 971.64 C8.37 974.78, 1.36 961.77, 0 939.64 M32 971.64 C11.04 972.96, 0.26 964.4, 0 939.64 M0 939.64 C5.2 632.74, 4.39 325.26, 0 32 M0 939.64 C-4.56 699.9, -5.74 460.81, 0 32 M0 32 C3.08 12.86, 10.02 1.8, 32 0 M0 32 C-0.92 14.83, 6.68 0.51, 32 0" stroke="#1e1e1e" stroke-width="4" fill="none"></path></g></svg>