<svg id="Layer_1" data-name="Layer 1" xmlns="http://www.w3.org/2000/svg" viewBox="0 0 200 200"><defs><style>.cls-1{fill:none;stroke:#232f3e;stroke-linejoin:round;stroke-width:2px;}</style></defs><polyline class="cls-1" points="33.72 135.5 33.72 62.86 37.42 62.86"/><line class="cls-1" x1="33.72" y1="151.51" x2="33.72" y2="140.42"/><polyline class="cls-1" points="44.71 88.62 44.71 166.6 33.72 166.6 33.72 156.68"/><polyline class="cls-1" points="163.32 62.86 166.28 62.86 166.28 166.6 155.29 166.6 155.29 84.26"/><line class="cls-1" x1="138.52" y1="162.07" x2="150.85" y2="162.07"/><line class="cls-1" x1="119.78" y1="162.07" x2="132.43" y2="162.07"/><line class="cls-1" x1="49.15" y1="162.07" x2="115.67" y2="162.07"/><line class="cls-1" x1="121.65" y1="70.31" x2="141.61" y2="70.31"/><line class="cls-1" x1="68.5" y1="70.31" x2="81.74" y2="70.31"/><line class="cls-1" x1="122.58" y1="79.13" x2="142.28" y2="79.13"/><line class="cls-1" x1="98.01" y1="79.13" x2="101.82" y2="79.13"/><line class="cls-1" x1="67.27" y1="79.13" x2="80.33" y2="79.13"/><line class="cls-1" x1="111.25" y1="80.06" x2="105.36" y2="80.69"/><line class="cls-1" x1="112.26" y1="89.53" x2="106.37" y2="90.16"/><line class="cls-1" x1="113.27" y1="99.01" x2="107.38" y2="99.64"/><line class="cls-1" x1="114.28" y1="108.49" x2="108.39" y2="109.12"/><polyline class="cls-1" points="108.66 114.71 103.78 68.9 118.8 67.3 123.8 114.18"/><line class="cls-1" x1="87.91" y1="115.44" x2="100.42" y2="57.64"/><line class="cls-1" x1="88.39" y1="55.34" x2="75.55" y2="114.73"/><path class="cls-1" d="M108.53,38.34a8.4,8.4,0,0,0,4.73,2.79,8.66,8.66,0,0,0,4-.05"/><path class="cls-1" d="M115,50.31a7.58,7.58,0,0,0-3.61-1.9,7.42,7.42,0,0,0-5.06.68"/><path class="cls-1" d="M91.81,33.68l16.49,3.57-2.74,12.69-5.25,8.4-12-2.63s1.42-9.9-1.89-11.77c-4.32-2.45-13.55,3.33-21.23,11.77l-2-2S77.63,30.62,91.81,33.68Z"/><line class="cls-1" x1="155.29" y1="122.4" x2="166.28" y2="122.4"/><line class="cls-1" x1="124.66" y1="122.4" x2="149.23" y2="122.4"/><line class="cls-1" x1="49.29" y1="122.4" x2="124.66" y2="122.4"/><line class="cls-1" x1="33.72" y1="122.4" x2="44.71" y2="122.4"/><path class="cls-1" d="M66.93,115.44,52.44,85.24a13.27,13.27,0,0,1-11.91-7.57"/><path class="cls-1" d="M40.53,77.67A13.32,13.32,0,0,1,43.2,62.41l4.7,9.79,7.78-3.74L51,58.68a13.34,13.34,0,0,1,12,21.5L73.8,102.64"/><path class="cls-1" d="M144.81,70.66a1.48,1.48,0,0,1-.31-1.72l9.1-12.75a1.4,1.4,0,0,1,1.74-.77l2.6.89a1.41,1.41,0,0,1,.91,1.67l-.58,15.65a1.47,1.47,0,0,1-1.3,1.16c-.78,0-3.07-.38-3.32.36L145,100.55l-6.43-2.18L147.22,73C147.47,72.23,145.43,71.13,144.81,70.66Z"/><path class="cls-1" d="M145.36,114.73l3.79-11.15a1.4,1.4,0,0,0-.88-1.78l-13.05-4.43a1.41,1.41,0,0,0-1.79.87l-5.61,16.47"/><path class="cls-1" d="M115.24,40h5.69a3.39,3.39,0,0,1,3.39,3.39V50a3.39,3.39,0,0,1-3.39,3.39h-5.69a0,0,0,0,1,0,0V40a0,0,0,0,1,0,0Z" transform="translate(226.98 117.65) rotate(-167.8)"/></svg>