<svg id="Layer_1" data-name="Layer 1" xmlns="http://www.w3.org/2000/svg" viewBox="0 0 200 200"><defs><style>.cls-1{stroke-linejoin:round;stroke-width:2px;}</style></defs><polygon class="cls-1" points="40.77 113.77 40.77 100.64 40.77 87.51 40.77 113.77"/><polyline class="cls-1" points="70.38 100.64 70.38 85.19 85.19 77.79 85.19 62.98"/><line class="cls-1" x1="70.38" y1="85.19" x2="55.58" y2="77.79"/><line class="cls-1" x1="70.38" y1="67.92" x2="70.38" y2="49.73"/><line class="cls-1" x1="40.77" y1="100.8" x2="55.03" y2="92.4"/><line class="cls-1" x1="55.58" y1="124.68" x2="70.38" y2="114.81"/><line class="cls-1" x1="70.25" y1="150.52" x2="83.37" y2="142.8"/><line class="cls-1" x1="67.92" y1="132.08" x2="100" y2="114.81"/><line class="cls-1" x1="55.58" y1="109.87" x2="70.38" y2="100"/><polyline class="cls-1" points="100 50.64 85.19 40.77 55.58 58.04 55.58 77.66 40.77 85.19 40.77 100.64 40.77 114.81 55.58 124.68 55.58 141.96 85.19 159.23 100 151.3 100 100 85.19 92.6"/><polyline class="cls-1" points="85.19 122.21 85.19 109.87 70.38 100"/><polygon class="cls-1" points="159.23 87.52 159.23 100.65 159.23 113.78 159.23 87.52"/><line class="cls-1" x1="144.42" y1="107.4" x2="159.23" y2="114.81"/><line class="cls-1" x1="144.42" y1="67.92" x2="134.55" y2="67.92"/><line class="cls-1" x1="100" y1="134.55" x2="114.81" y2="134.55"/><circle class="cls-1" cx="129.62" cy="67.92" r="4.94"/><circle class="cls-1" cx="139.49" cy="104.94" r="4.94"/><circle class="cls-1" cx="119.74" cy="92.6" r="4.94"/><circle class="cls-1" cx="119.74" cy="134.55" r="4.94"/><polyline class="cls-1" points="114.81 90.13 100 80.26 100 50.64 114.81 40.77 144.42 58.47 144.43 77.67 159.23 86.07 159.23 100.65 159.23 114.81 144.42 124.68 144.42 141.96 114.81 159.23 100 151.83 100 100.79"/></svg>