<svg id="Layer_1" data-name="Layer 1" xmlns="http://www.w3.org/2000/svg" viewBox="0 0 200 200"><defs><style>.cls-1{stroke-linejoin:round;stroke-width:2px;}.cls-2</style></defs><path class="cls-1" d="M132.51,152.62l1.2,1.36,1.19,1.36,1.2,1.37,8.11-4.16A20.78,20.78,0,0,0,150,155.4l1.63,9,1.8.12,1.81.12,1.81.12,2.8-8.71A20.57,20.57,0,0,0,166,154l7.53,5.21,1.36-1.19,1.36-1.19,1.37-1.2-4.18-8.14a20.92,20.92,0,0,0,2.86-5.78l9-1.63.12-1.81.12-1.81.12-1.8-8.7-2.8a21,21,0,0,0-2.06-6.13l5.19-7.5-1.19-1.36-1.2-1.37-1.19-1.36-8.1,4.15a20.75,20.75,0,0,0-5.83-2.89l-1.62-8.94-1.81-.12-1.81-.12-1.81-.12-2.78,8.64a20.71,20.71,0,0,0-6.18,2.09l-7.46-5.16-1.36,1.19L136.35,114l-1.36,1.2,4.14,8.07a20.92,20.92,0,0,0-2.89,5.86l-8.93,1.62-.12,1.8-.12,1.81-.12,1.81L135.6,139a21,21,0,0,0,2.1,6.16Z"/><circle class="cls-1" cx="156.29" cy="135.41" r="11.69"/><path class="cls-1" d="M145.2,108.73V83.49A2.45,2.45,0,0,0,142.75,81H59.57a2.45,2.45,0,0,0-2.45,2.45v55.42a2.45,2.45,0,0,0,2.45,2.45H125.8"/><path class="cls-1" d="M129.42,157.35h-82s-5.19.05-7.17-3.12v-5.8H51.92"/><path class="cls-1" d="M151.13,102.94V77.75a2.45,2.45,0,0,0-2.45-2.44H53.24a2.44,2.44,0,0,0-2.45,2.44V146a2.44,2.44,0,0,0,2.45,2.44H128.6"/><rect class="cls-1" x="56.24" y="68.62" width="6.27" height="6.27" transform="translate(118.75 143.51) rotate(-180)"/><rect class="cls-1" x="47.46" y="56.29" width="6.27" height="6.27" transform="translate(101.19 118.85) rotate(-180)"/><rect class="cls-1" x="59.7" y="42.83" width="6.27" height="6.27" transform="translate(125.66 91.93) rotate(-180)"/><rect class="cls-1" x="13.2" y="36.71" width="6.27" height="6.27" transform="translate(32.66 79.69) rotate(-180)"/><rect class="cls-1" x="69.54" y="63.32" width="6.27" height="6.27" transform="translate(145.35 132.9) rotate(-180)"/><rect class="cls-1" x="39.09" y="69.89" width="6.27" height="6.27" transform="translate(84.45 146.05) rotate(-180)"/><rect class="cls-1" x="37.04" y="90.32" width="6.27" height="6.27" transform="translate(80.35 186.91) rotate(-180)"/><rect class="cls-1" x="23.58" y="78.09" width="6.27" height="6.27" transform="translate(53.42 162.44) rotate(-180)"/><rect class="cls-1" x="30.77" y="55.08" width="6.27" height="6.27" transform="translate(67.81 116.44) rotate(-180)"/><rect class="cls-2" x="75.09" y="94.05" width="23.75" height="1.83"/><rect class="cls-2" x="101.38" y="94.05" width="17.16" height="1.83" transform="translate(219.91 189.94) rotate(180)"/><rect class="cls-2" x="81.33" y="102.22" width="31.84" height="1.83"/><rect class="cls-2" x="126.18" y="102.22" width="9.82" height="1.83" transform="translate(262.17 206.28) rotate(-180)"/><rect class="cls-2" x="114.52" y="102.22" width="9.99" height="1.83"/><rect class="cls-2" x="91.91" y="110.4" width="27.86" height="1.83"/><rect class="cls-2" x="84.25" y="110.4" width="5.83" height="1.83" transform="translate(174.34 222.63) rotate(180)"/><rect class="cls-2" x="75.09" y="116.72" width="19.01" height="1.83"/><rect class="cls-2" x="95.57" y="116.72" width="6.53" height="1.83"/><rect class="cls-2" x="103.92" y="116.72" width="25.99" height="1.83"/><rect class="cls-2" x="81.33" y="124.9" width="9.86" height="1.83"/><rect class="cls-2" x="94.1" y="124.9" width="23.41" height="1.83" transform="translate(211.6 251.63) rotate(-180)"/><rect class="cls-2" x="66.63" y="88.47" width="2.63" height="2.63" rx="1"/><rect class="cls-2" x="66.63" y="95.39" width="2.63" height="2.63" rx="1"/><rect class="cls-2" x="66.63" y="102.32" width="2.63" height="2.63" rx="1"/><rect class="cls-2" x="66.63" y="109.24" width="2.63" height="2.63" rx="1"/><rect class="cls-2" x="66.63" y="116.16" width="2.63" height="2.63" rx="1"/><rect class="cls-2" x="66.63" y="123.09" width="2.63" height="2.63" rx="1"/><rect class="cls-2" x="66.63" y="130.01" width="2.63" height="2.63" rx="1"/></svg>